<?xml version="1.0" encoding="UTF-8"?>
<svg xmlns="http://www.w3.org/2000/svg" xmlns:xlink="http://www.w3.org/1999/xlink" width="600" height="600" viewBox="0 0 600 600">
<rect x="-60" y="-60" width="720" height="720" fill="rgb(100%, 100%, 100%)" fill-opacity="1"/>
<path fill="none" stroke-width="1" stroke-linecap="butt" stroke-linejoin="miter" stroke="rgb(26.666667%, 26.666667%, 26.666667%)" stroke-opacity="1" stroke-miterlimit="10" d="M 318.777344 421.996094 L 370.335938 305.460938 "/>
<path fill="none" stroke-width="1" stroke-linecap="butt" stroke-linejoin="miter" stroke="rgb(26.666667%, 26.666667%, 26.666667%)" stroke-opacity="1" stroke-miterlimit="10" d="M 318.777344 421.996094 L 276.390625 307.257812 "/>
<path fill="none" stroke-width="1" stroke-linecap="butt" stroke-linejoin="miter" stroke="rgb(26.666667%, 26.666667%, 26.666667%)" stroke-opacity="1" stroke-miterlimit="10" d="M 318.777344 421.996094 L 415.375 484.699219 "/>
<path fill="none" stroke-width="1" stroke-linecap="butt" stroke-linejoin="miter" stroke="rgb(26.666667%, 26.666667%, 26.666667%)" stroke-opacity="1" stroke-miterlimit="10" d="M 318.777344 421.996094 L 317.601562 546.550781 "/>
<path fill="none" stroke-width="1" stroke-linecap="butt" stroke-linejoin="miter" stroke="rgb(26.666667%, 26.666667%, 26.666667%)" stroke-opacity="1" stroke-miterlimit="10" d="M 318.777344 421.996094 L 215.78125 464.042969 "/>
<path fill="none" stroke-width="1" stroke-linecap="butt" stroke-linejoin="miter" stroke="rgb(26.666667%, 26.666667%, 26.666667%)" stroke-opacity="1" stroke-miterlimit="10" d="M 370.335938 305.460938 L 446.777344 221.191406 "/>
<path fill="none" stroke-width="1" stroke-linecap="butt" stroke-linejoin="miter" stroke="rgb(26.666667%, 26.666667%, 26.666667%)" stroke-opacity="1" stroke-miterlimit="10" d="M 370.335938 305.460938 L 276.390625 307.257812 "/>
<path fill="none" stroke-width="1" stroke-linecap="butt" stroke-linejoin="miter" stroke="rgb(26.666667%, 26.666667%, 26.666667%)" stroke-opacity="1" stroke-miterlimit="10" d="M 446.777344 221.191406 L 508.691406 153.957031 "/>
<path fill="none" stroke-width="1" stroke-linecap="butt" stroke-linejoin="miter" stroke="rgb(26.666667%, 26.666667%, 26.666667%)" stroke-opacity="1" stroke-miterlimit="10" d="M 276.390625 307.257812 L 203.8125 232.292969 "/>
<path fill="none" stroke-width="1" stroke-linecap="butt" stroke-linejoin="miter" stroke="rgb(26.666667%, 26.666667%, 26.666667%)" stroke-opacity="1" stroke-miterlimit="10" d="M 415.375 484.699219 L 401.078125 580 "/>
<path fill="none" stroke-width="1" stroke-linecap="butt" stroke-linejoin="miter" stroke="rgb(26.666667%, 26.666667%, 26.666667%)" stroke-opacity="1" stroke-miterlimit="10" d="M 401.078125 580 L 317.601562 546.550781 "/>
<path fill-rule="nonzero" fill="rgb(100%, 0%, 0%)" fill-opacity="1" stroke-width="1" stroke-linecap="butt" stroke-linejoin="miter" stroke="rgb(0%, 0%, 0%)" stroke-opacity="1" stroke-miterlimit="10" d="M 328.777344 421.996094 C 328.777344 427.519531 324.296875 431.996094 318.777344 431.996094 C 313.253906 431.996094 308.777344 427.519531 308.777344 421.996094 C 308.777344 416.472656 313.253906 411.996094 318.777344 411.996094 C 324.296875 411.996094 328.777344 416.472656 328.777344 421.996094 "/>
<path fill-rule="nonzero" fill="rgb(100%, 0%, 0%)" fill-opacity="1" stroke-width="1" stroke-linecap="butt" stroke-linejoin="miter" stroke="rgb(0%, 0%, 0%)" stroke-opacity="1" stroke-miterlimit="10" d="M 380.335938 305.460938 C 380.335938 310.984375 375.859375 315.460938 370.335938 315.460938 C 364.8125 315.460938 360.335938 310.984375 360.335938 305.460938 C 360.335938 299.9375 364.8125 295.460938 370.335938 295.460938 C 375.859375 295.460938 380.335938 299.9375 380.335938 305.460938 "/>
<path fill-rule="nonzero" fill="rgb(100%, 0%, 0%)" fill-opacity="1" stroke-width="1" stroke-linecap="butt" stroke-linejoin="miter" stroke="rgb(0%, 0%, 0%)" stroke-opacity="1" stroke-miterlimit="10" d="M 456.777344 221.191406 C 456.777344 226.710938 452.300781 231.191406 446.777344 231.191406 C 441.253906 231.191406 436.777344 226.710938 436.777344 221.191406 C 436.777344 215.667969 441.253906 211.191406 446.777344 211.191406 C 452.300781 211.191406 456.777344 215.667969 456.777344 221.191406 "/>
<path fill-rule="nonzero" fill="rgb(100%, 0%, 0%)" fill-opacity="1" stroke-width="1" stroke-linecap="butt" stroke-linejoin="miter" stroke="rgb(0%, 0%, 0%)" stroke-opacity="1" stroke-miterlimit="10" d="M 286.390625 307.257812 C 286.390625 312.78125 281.914062 317.257812 276.390625 317.257812 C 270.867188 317.257812 266.390625 312.78125 266.390625 307.257812 C 266.390625 301.734375 270.867188 297.257812 276.390625 297.257812 C 281.914062 297.257812 286.390625 301.734375 286.390625 307.257812 "/>
<path fill-rule="nonzero" fill="rgb(100%, 0%, 0%)" fill-opacity="1" stroke-width="1" stroke-linecap="butt" stroke-linejoin="miter" stroke="rgb(0%, 0%, 0%)" stroke-opacity="1" stroke-miterlimit="10" d="M 425.375 484.699219 C 425.375 490.222656 420.898438 494.699219 415.375 494.699219 C 409.851562 494.699219 405.375 490.222656 405.375 484.699219 C 405.375 479.175781 409.851562 474.699219 415.375 474.699219 C 420.898438 474.699219 425.375 479.175781 425.375 484.699219 "/>
<path fill-rule="nonzero" fill="rgb(100%, 0%, 0%)" fill-opacity="1" stroke-width="1" stroke-linecap="butt" stroke-linejoin="miter" stroke="rgb(0%, 0%, 0%)" stroke-opacity="1" stroke-miterlimit="10" d="M 118.097656 80.566406 C 118.097656 86.085938 113.621094 90.566406 108.097656 90.566406 C 102.578125 90.566406 98.097656 86.085938 98.097656 80.566406 C 98.097656 75.042969 102.578125 70.566406 108.097656 70.566406 C 113.621094 70.566406 118.097656 75.042969 118.097656 80.566406 "/>
<path fill-rule="nonzero" fill="rgb(100%, 0%, 0%)" fill-opacity="1" stroke-width="1" stroke-linecap="butt" stroke-linejoin="miter" stroke="rgb(0%, 0%, 0%)" stroke-opacity="1" stroke-miterlimit="10" d="M 213.8125 232.292969 C 213.8125 237.816406 209.335938 242.292969 203.8125 242.292969 C 198.289062 242.292969 193.8125 237.816406 193.8125 232.292969 C 193.8125 226.769531 198.289062 222.292969 203.8125 222.292969 C 209.335938 222.292969 213.8125 226.769531 213.8125 232.292969 "/>
<path fill-rule="nonzero" fill="rgb(100%, 0%, 0%)" fill-opacity="1" stroke-width="1" stroke-linecap="butt" stroke-linejoin="miter" stroke="rgb(0%, 0%, 0%)" stroke-opacity="1" stroke-miterlimit="10" d="M 35.464844 218.964844 C 35.464844 224.488281 30.988281 228.964844 25.464844 228.964844 C 19.941406 228.964844 15.464844 224.488281 15.464844 218.964844 C 15.464844 213.441406 19.941406 208.964844 25.464844 208.964844 C 30.988281 208.964844 35.464844 213.441406 35.464844 218.964844 "/>
<path fill-rule="nonzero" fill="rgb(100%, 0%, 0%)" fill-opacity="1" stroke-width="1" stroke-linecap="butt" stroke-linejoin="miter" stroke="rgb(0%, 0%, 0%)" stroke-opacity="1" stroke-miterlimit="10" d="M 518.691406 153.957031 C 518.691406 159.480469 514.210938 163.957031 508.691406 163.957031 C 503.167969 163.957031 498.691406 159.480469 498.691406 153.957031 C 498.691406 148.4375 503.167969 143.957031 508.691406 143.957031 C 514.210938 143.957031 518.691406 148.4375 518.691406 153.957031 "/>
<path fill-rule="nonzero" fill="rgb(100%, 0%, 0%)" fill-opacity="1" stroke-width="1" stroke-linecap="butt" stroke-linejoin="miter" stroke="rgb(0%, 0%, 0%)" stroke-opacity="1" stroke-miterlimit="10" d="M 411.078125 580 C 411.078125 585.523438 406.601562 590 401.078125 590 C 395.554688 590 391.078125 585.523438 391.078125 580 C 391.078125 574.476562 395.554688 570 401.078125 570 C 406.601562 570 411.078125 574.476562 411.078125 580 "/>
<path fill-rule="nonzero" fill="rgb(100%, 0%, 0%)" fill-opacity="1" stroke-width="1" stroke-linecap="butt" stroke-linejoin="miter" stroke="rgb(0%, 0%, 0%)" stroke-opacity="1" stroke-miterlimit="10" d="M 327.601562 546.550781 C 327.601562 552.074219 323.125 556.550781 317.601562 556.550781 C 312.078125 556.550781 307.601562 552.074219 307.601562 546.550781 C 307.601562 541.027344 312.078125 536.550781 317.601562 536.550781 C 323.125 536.550781 327.601562 541.027344 327.601562 546.550781 "/>
<path fill-rule="nonzero" fill="rgb(100%, 0%, 0%)" fill-opacity="1" stroke-width="1" stroke-linecap="butt" stroke-linejoin="miter" stroke="rgb(0%, 0%, 0%)" stroke-opacity="1" stroke-miterlimit="10" d="M 91.765625 540.136719 C 91.765625 545.65625 87.289062 550.136719 81.765625 550.136719 C 76.246094 550.136719 71.765625 545.65625 71.765625 540.136719 C 71.765625 534.613281 76.246094 530.136719 81.765625 530.136719 C 87.289062 530.136719 91.765625 534.613281 91.765625 540.136719 "/>
<path fill-rule="nonzero" fill="rgb(100%, 0%, 0%)" fill-opacity="1" stroke-width="1" stroke-linecap="butt" stroke-linejoin="miter" stroke="rgb(0%, 0%, 0%)" stroke-opacity="1" stroke-miterlimit="10" d="M 252.386719 20 C 252.386719 25.523438 247.910156 30 242.386719 30 C 236.863281 30 232.386719 25.523438 232.386719 20 C 232.386719 14.476562 236.863281 10 242.386719 10 C 247.910156 10 252.386719 14.476562 252.386719 20 "/>
<path fill-rule="nonzero" fill="rgb(100%, 0%, 0%)" fill-opacity="1" stroke-width="1" stroke-linecap="butt" stroke-linejoin="miter" stroke="rgb(0%, 0%, 0%)" stroke-opacity="1" stroke-miterlimit="10" d="M 225.78125 464.042969 C 225.78125 469.566406 221.304688 474.042969 215.78125 474.042969 C 210.257812 474.042969 205.78125 469.566406 205.78125 464.042969 C 205.78125 458.519531 210.257812 454.042969 215.78125 454.042969 C 221.304688 454.042969 225.78125 458.519531 225.78125 464.042969 "/>
<path fill-rule="nonzero" fill="rgb(100%, 0%, 0%)" fill-opacity="1" stroke-width="1" stroke-linecap="butt" stroke-linejoin="miter" stroke="rgb(0%, 0%, 0%)" stroke-opacity="1" stroke-miterlimit="10" d="M 590 358.320312 C 590 363.84375 585.523438 368.320312 580 368.320312 C 574.476562 368.320312 570 363.84375 570 358.320312 C 570 352.796875 574.476562 348.320312 580 348.320312 C 585.523438 348.320312 590 352.796875 590 358.320312 "/>
<path fill-rule="nonzero" fill="rgb(100%, 0%, 0%)" fill-opacity="1" stroke-width="1" stroke-linecap="butt" stroke-linejoin="miter" stroke="rgb(0%, 0%, 0%)" stroke-opacity="1" stroke-miterlimit="10" d="M 30 376.707031 C 30 382.230469 25.523438 386.707031 20 386.707031 C 14.476562 386.707031 10 382.230469 10 376.707031 C 10 371.183594 14.476562 366.707031 20 366.707031 C 25.523438 366.707031 30 371.183594 30 376.707031 "/>
<path fill-rule="nonzero" fill="rgb(100%, 0%, 0%)" fill-opacity="1" stroke-width="1" stroke-linecap="butt" stroke-linejoin="miter" stroke="rgb(0%, 0%, 0%)" stroke-opacity="1" stroke-miterlimit="10" d="M 394.535156 24.695312 C 394.535156 30.21875 390.058594 34.695312 384.535156 34.695312 C 379.015625 34.695312 374.535156 30.21875 374.535156 24.695312 C 374.535156 19.171875 379.015625 14.695312 384.535156 14.695312 C 390.058594 14.695312 394.535156 19.171875 394.535156 24.695312 "/>
</svg>
