<?xml version="1.0" encoding="UTF-8"?>
<svg xmlns="http://www.w3.org/2000/svg" xmlns:xlink="http://www.w3.org/1999/xlink" width="600" height="600" viewBox="0 0 600 600">
<rect x="-60" y="-60" width="720" height="720" fill="rgb(100%, 100%, 100%)" fill-opacity="1"/>
<path fill="none" stroke-width="1" stroke-linecap="butt" stroke-linejoin="miter" stroke="rgb(26.666667%, 26.666667%, 26.666667%)" stroke-opacity="1" stroke-miterlimit="10" d="M 478.332031 295.695312 L 380.382812 236.203125 "/>
<path fill="none" stroke-width="1" stroke-linecap="butt" stroke-linejoin="miter" stroke="rgb(26.666667%, 26.666667%, 26.666667%)" stroke-opacity="1" stroke-miterlimit="10" d="M 478.332031 295.695312 L 475.886719 198.601562 "/>
<path fill="none" stroke-width="1" stroke-linecap="butt" stroke-linejoin="miter" stroke="rgb(26.666667%, 26.666667%, 26.666667%)" stroke-opacity="1" stroke-miterlimit="10" d="M 478.332031 295.695312 L 454.472656 403.625 "/>
<path fill="none" stroke-width="1" stroke-linecap="butt" stroke-linejoin="miter" stroke="rgb(26.666667%, 26.666667%, 26.666667%)" stroke-opacity="1" stroke-miterlimit="10" d="M 478.332031 295.695312 L 580 304.5625 "/>
<path fill="none" stroke-width="1" stroke-linecap="butt" stroke-linejoin="miter" stroke="rgb(26.666667%, 26.666667%, 26.666667%)" stroke-opacity="1" stroke-miterlimit="10" d="M 380.382812 236.203125 L 260.074219 253.53125 "/>
<path fill="none" stroke-width="1" stroke-linecap="butt" stroke-linejoin="miter" stroke="rgb(26.666667%, 26.666667%, 26.666667%)" stroke-opacity="1" stroke-miterlimit="10" d="M 380.382812 236.203125 L 475.886719 198.601562 "/>
<path fill="none" stroke-width="1" stroke-linecap="butt" stroke-linejoin="miter" stroke="rgb(26.666667%, 26.666667%, 26.666667%)" stroke-opacity="1" stroke-miterlimit="10" d="M 380.382812 236.203125 L 307.199219 180.039062 "/>
<path fill="none" stroke-width="1" stroke-linecap="butt" stroke-linejoin="miter" stroke="rgb(26.666667%, 26.666667%, 26.666667%)" stroke-opacity="1" stroke-miterlimit="10" d="M 260.074219 253.53125 L 163.671875 222.128906 "/>
<path fill="none" stroke-width="1" stroke-linecap="butt" stroke-linejoin="miter" stroke="rgb(26.666667%, 26.666667%, 26.666667%)" stroke-opacity="1" stroke-miterlimit="10" d="M 260.074219 253.53125 L 211.847656 341.519531 "/>
<path fill="none" stroke-width="1" stroke-linecap="butt" stroke-linejoin="miter" stroke="rgb(26.666667%, 26.666667%, 26.666667%)" stroke-opacity="1" stroke-miterlimit="10" d="M 260.074219 253.53125 L 307.199219 180.039062 "/>
<path fill="none" stroke-width="1" stroke-linecap="butt" stroke-linejoin="miter" stroke="rgb(26.666667%, 26.666667%, 26.666667%)" stroke-opacity="1" stroke-miterlimit="10" d="M 475.886719 198.601562 L 517.855469 118.332031 "/>
<path fill="none" stroke-width="1" stroke-linecap="butt" stroke-linejoin="miter" stroke="rgb(26.666667%, 26.666667%, 26.666667%)" stroke-opacity="1" stroke-miterlimit="10" d="M 454.472656 403.625 L 416.894531 492.835938 "/>
<path fill="none" stroke-width="1" stroke-linecap="butt" stroke-linejoin="miter" stroke="rgb(26.666667%, 26.666667%, 26.666667%)" stroke-opacity="1" stroke-miterlimit="10" d="M 416.894531 492.835938 L 385.039062 568.132812 "/>
<path fill-rule="nonzero" fill="rgb(100%, 0%, 0%)" fill-opacity="1" stroke-width="1" stroke-linecap="butt" stroke-linejoin="miter" stroke="rgb(0%, 0%, 0%)" stroke-opacity="1" stroke-miterlimit="10" d="M 488.332031 295.695312 C 488.332031 301.21875 483.855469 305.695312 478.332031 305.695312 C 472.808594 305.695312 468.332031 301.21875 468.332031 295.695312 C 468.332031 290.171875 472.808594 285.695312 478.332031 285.695312 C 483.855469 285.695312 488.332031 290.171875 488.332031 295.695312 "/>
<path fill-rule="nonzero" fill="rgb(100%, 0%, 0%)" fill-opacity="1" stroke-width="1" stroke-linecap="butt" stroke-linejoin="miter" stroke="rgb(0%, 0%, 0%)" stroke-opacity="1" stroke-miterlimit="10" d="M 390.382812 236.203125 C 390.382812 241.726562 385.90625 246.203125 380.382812 246.203125 C 374.859375 246.203125 370.382812 241.726562 370.382812 236.203125 C 370.382812 230.679688 374.859375 226.203125 380.382812 226.203125 C 385.90625 226.203125 390.382812 230.679688 390.382812 236.203125 "/>
<path fill-rule="nonzero" fill="rgb(100%, 0%, 0%)" fill-opacity="1" stroke-width="1" stroke-linecap="butt" stroke-linejoin="miter" stroke="rgb(0%, 0%, 0%)" stroke-opacity="1" stroke-miterlimit="10" d="M 270.074219 253.53125 C 270.074219 259.054688 265.597656 263.53125 260.074219 263.53125 C 254.554688 263.53125 250.074219 259.054688 250.074219 253.53125 C 250.074219 248.007812 254.554688 243.53125 260.074219 243.53125 C 265.597656 243.53125 270.074219 248.007812 270.074219 253.53125 "/>
<path fill-rule="nonzero" fill="rgb(100%, 0%, 0%)" fill-opacity="1" stroke-width="1" stroke-linecap="butt" stroke-linejoin="miter" stroke="rgb(0%, 0%, 0%)" stroke-opacity="1" stroke-miterlimit="10" d="M 485.886719 198.601562 C 485.886719 204.121094 481.40625 208.601562 475.886719 208.601562 C 470.363281 208.601562 465.886719 204.121094 465.886719 198.601562 C 465.886719 193.078125 470.363281 188.601562 475.886719 188.601562 C 481.40625 188.601562 485.886719 193.078125 485.886719 198.601562 "/>
<path fill-rule="nonzero" fill="rgb(100%, 0%, 0%)" fill-opacity="1" stroke-width="1" stroke-linecap="butt" stroke-linejoin="miter" stroke="rgb(0%, 0%, 0%)" stroke-opacity="1" stroke-miterlimit="10" d="M 464.472656 403.625 C 464.472656 409.148438 459.996094 413.625 454.472656 413.625 C 448.949219 413.625 444.472656 409.148438 444.472656 403.625 C 444.472656 398.101562 448.949219 393.625 454.472656 393.625 C 459.996094 393.625 464.472656 398.101562 464.472656 403.625 "/>
<path fill-rule="nonzero" fill="rgb(100%, 0%, 0%)" fill-opacity="1" stroke-width="1" stroke-linecap="butt" stroke-linejoin="miter" stroke="rgb(0%, 0%, 0%)" stroke-opacity="1" stroke-miterlimit="10" d="M 589.402344 489.988281 C 589.402344 495.511719 584.925781 499.988281 579.402344 499.988281 C 573.878906 499.988281 569.402344 495.511719 569.402344 489.988281 C 569.402344 484.464844 573.878906 479.988281 579.402344 479.988281 C 584.925781 479.988281 589.402344 484.464844 589.402344 489.988281 "/>
<path fill-rule="nonzero" fill="rgb(100%, 0%, 0%)" fill-opacity="1" stroke-width="1" stroke-linecap="butt" stroke-linejoin="miter" stroke="rgb(0%, 0%, 0%)" stroke-opacity="1" stroke-miterlimit="10" d="M 527.855469 118.332031 C 527.855469 123.855469 523.375 128.332031 517.855469 128.332031 C 512.332031 128.332031 507.855469 123.855469 507.855469 118.332031 C 507.855469 112.808594 512.332031 108.332031 517.855469 108.332031 C 523.375 108.332031 527.855469 112.808594 527.855469 118.332031 "/>
<path fill-rule="nonzero" fill="rgb(100%, 0%, 0%)" fill-opacity="1" stroke-width="1" stroke-linecap="butt" stroke-linejoin="miter" stroke="rgb(0%, 0%, 0%)" stroke-opacity="1" stroke-miterlimit="10" d="M 30 269.148438 C 30 274.667969 25.523438 279.148438 20 279.148438 C 14.476562 279.148438 10 274.667969 10 269.148438 C 10 263.625 14.476562 259.148438 20 259.148438 C 25.523438 259.148438 30 263.625 30 269.148438 "/>
<path fill-rule="nonzero" fill="rgb(100%, 0%, 0%)" fill-opacity="1" stroke-width="1" stroke-linecap="butt" stroke-linejoin="miter" stroke="rgb(0%, 0%, 0%)" stroke-opacity="1" stroke-miterlimit="10" d="M 173.671875 222.128906 C 173.671875 227.652344 169.195312 232.128906 163.671875 232.128906 C 158.148438 232.128906 153.671875 227.652344 153.671875 222.128906 C 153.671875 216.605469 158.148438 212.128906 163.671875 212.128906 C 169.195312 212.128906 173.671875 216.605469 173.671875 222.128906 "/>
<path fill-rule="nonzero" fill="rgb(100%, 0%, 0%)" fill-opacity="1" stroke-width="1" stroke-linecap="butt" stroke-linejoin="miter" stroke="rgb(0%, 0%, 0%)" stroke-opacity="1" stroke-miterlimit="10" d="M 426.894531 492.835938 C 426.894531 498.355469 422.417969 502.835938 416.894531 502.835938 C 411.371094 502.835938 406.894531 498.355469 406.894531 492.835938 C 406.894531 487.3125 411.371094 482.835938 416.894531 482.835938 C 422.417969 482.835938 426.894531 487.3125 426.894531 492.835938 "/>
<path fill-rule="nonzero" fill="rgb(100%, 0%, 0%)" fill-opacity="1" stroke-width="1" stroke-linecap="butt" stroke-linejoin="miter" stroke="rgb(0%, 0%, 0%)" stroke-opacity="1" stroke-miterlimit="10" d="M 395.039062 568.132812 C 395.039062 573.65625 390.5625 578.132812 385.039062 578.132812 C 379.515625 578.132812 375.039062 573.65625 375.039062 568.132812 C 375.039062 562.609375 379.515625 558.132812 385.039062 558.132812 C 390.5625 558.132812 395.039062 562.609375 395.039062 568.132812 "/>
<path fill-rule="nonzero" fill="rgb(100%, 0%, 0%)" fill-opacity="1" stroke-width="1" stroke-linecap="butt" stroke-linejoin="miter" stroke="rgb(0%, 0%, 0%)" stroke-opacity="1" stroke-miterlimit="10" d="M 139.433594 82.464844 C 139.433594 87.988281 134.957031 92.464844 129.433594 92.464844 C 123.910156 92.464844 119.433594 87.988281 119.433594 82.464844 C 119.433594 76.941406 123.910156 72.464844 129.433594 72.464844 C 134.957031 72.464844 139.433594 76.941406 139.433594 82.464844 "/>
<path fill-rule="nonzero" fill="rgb(100%, 0%, 0%)" fill-opacity="1" stroke-width="1" stroke-linecap="butt" stroke-linejoin="miter" stroke="rgb(0%, 0%, 0%)" stroke-opacity="1" stroke-miterlimit="10" d="M 248.601562 580 C 248.601562 585.523438 244.125 590 238.601562 590 C 233.078125 590 228.601562 585.523438 228.601562 580 C 228.601562 574.476562 233.078125 570 238.601562 570 C 244.125 570 248.601562 574.476562 248.601562 580 "/>
<path fill-rule="nonzero" fill="rgb(100%, 0%, 0%)" fill-opacity="1" stroke-width="1" stroke-linecap="butt" stroke-linejoin="miter" stroke="rgb(0%, 0%, 0%)" stroke-opacity="1" stroke-miterlimit="10" d="M 590 304.5625 C 590 310.085938 585.523438 314.5625 580 314.5625 C 574.476562 314.5625 570 310.085938 570 304.5625 C 570 299.039062 574.476562 294.5625 580 294.5625 C 585.523438 294.5625 590 299.039062 590 304.5625 "/>
<path fill-rule="nonzero" fill="rgb(100%, 0%, 0%)" fill-opacity="1" stroke-width="1" stroke-linecap="butt" stroke-linejoin="miter" stroke="rgb(0%, 0%, 0%)" stroke-opacity="1" stroke-miterlimit="10" d="M 58.363281 416.511719 C 58.363281 422.035156 53.886719 426.511719 48.363281 426.511719 C 42.839844 426.511719 38.363281 422.035156 38.363281 416.511719 C 38.363281 410.988281 42.839844 406.511719 48.363281 406.511719 C 53.886719 406.511719 58.363281 410.988281 58.363281 416.511719 "/>
<path fill-rule="nonzero" fill="rgb(100%, 0%, 0%)" fill-opacity="1" stroke-width="1" stroke-linecap="butt" stroke-linejoin="miter" stroke="rgb(0%, 0%, 0%)" stroke-opacity="1" stroke-miterlimit="10" d="M 221.847656 341.519531 C 221.847656 347.042969 217.371094 351.519531 211.847656 351.519531 C 206.324219 351.519531 201.847656 347.042969 201.847656 341.519531 C 201.847656 335.996094 206.324219 331.519531 211.847656 331.519531 C 217.371094 331.519531 221.847656 335.996094 221.847656 341.519531 "/>
<path fill-rule="nonzero" fill="rgb(100%, 0%, 0%)" fill-opacity="1" stroke-width="1" stroke-linecap="butt" stroke-linejoin="miter" stroke="rgb(0%, 0%, 0%)" stroke-opacity="1" stroke-miterlimit="10" d="M 317.199219 180.039062 C 317.199219 185.5625 312.722656 190.039062 307.199219 190.039062 C 301.675781 190.039062 297.199219 185.5625 297.199219 180.039062 C 297.199219 174.515625 301.675781 170.039062 307.199219 170.039062 C 312.722656 170.039062 317.199219 174.515625 317.199219 180.039062 "/>
<path fill-rule="nonzero" fill="rgb(100%, 0%, 0%)" fill-opacity="1" stroke-width="1" stroke-linecap="butt" stroke-linejoin="miter" stroke="rgb(0%, 0%, 0%)" stroke-opacity="1" stroke-miterlimit="10" d="M 330.304688 20 C 330.304688 25.523438 325.828125 30 320.304688 30 C 314.78125 30 310.304688 25.523438 310.304688 20 C 310.304688 14.476562 314.78125 10 320.304688 10 C 325.828125 10 330.304688 14.476562 330.304688 20 "/>
<path fill-rule="nonzero" fill="rgb(100%, 0%, 0%)" fill-opacity="1" stroke-width="1" stroke-linecap="butt" stroke-linejoin="miter" stroke="rgb(0%, 0%, 0%)" stroke-opacity="1" stroke-miterlimit="10" d="M 142.503906 515.082031 C 142.503906 520.601562 138.027344 525.082031 132.503906 525.082031 C 126.980469 525.082031 122.503906 520.601562 122.503906 515.082031 C 122.503906 509.558594 126.980469 505.082031 132.503906 505.082031 C 138.027344 505.082031 142.503906 509.558594 142.503906 515.082031 "/>
</svg>
