<?xml version="1.0" encoding="UTF-8"?>
<svg xmlns="http://www.w3.org/2000/svg" xmlns:xlink="http://www.w3.org/1999/xlink" width="600" height="600" viewBox="0 0 600 600">
<rect x="-60" y="-60" width="720" height="720" fill="rgb(100%, 100%, 100%)" fill-opacity="1"/>
<path fill="none" stroke-width="1" stroke-linecap="butt" stroke-linejoin="miter" stroke="rgb(26.666667%, 26.666667%, 26.666667%)" stroke-opacity="1" stroke-miterlimit="10" d="M 331.582031 374.683594 L 253.265625 289.191406 "/>
<path fill="none" stroke-width="1" stroke-linecap="butt" stroke-linejoin="miter" stroke="rgb(26.666667%, 26.666667%, 26.666667%)" stroke-opacity="1" stroke-miterlimit="10" d="M 331.582031 374.683594 L 340.546875 269.460938 "/>
<path fill="none" stroke-width="1" stroke-linecap="butt" stroke-linejoin="miter" stroke="rgb(26.666667%, 26.666667%, 26.666667%)" stroke-opacity="1" stroke-miterlimit="10" d="M 331.582031 374.683594 L 276.71875 470.058594 "/>
<path fill="none" stroke-width="1" stroke-linecap="butt" stroke-linejoin="miter" stroke="rgb(26.666667%, 26.666667%, 26.666667%)" stroke-opacity="1" stroke-miterlimit="10" d="M 331.582031 374.683594 L 384.035156 461.714844 "/>
<path fill="none" stroke-width="1" stroke-linecap="butt" stroke-linejoin="miter" stroke="rgb(26.666667%, 26.666667%, 26.666667%)" stroke-opacity="1" stroke-miterlimit="10" d="M 331.582031 374.683594 L 427.074219 370.539062 "/>
<path fill="none" stroke-width="1" stroke-linecap="butt" stroke-linejoin="miter" stroke="rgb(26.666667%, 26.666667%, 26.666667%)" stroke-opacity="1" stroke-miterlimit="10" d="M 253.265625 289.191406 L 183.160156 212.996094 "/>
<path fill="none" stroke-width="1" stroke-linecap="butt" stroke-linejoin="miter" stroke="rgb(26.666667%, 26.666667%, 26.666667%)" stroke-opacity="1" stroke-miterlimit="10" d="M 253.265625 289.191406 L 340.546875 269.460938 "/>
<path fill="none" stroke-width="1" stroke-linecap="butt" stroke-linejoin="miter" stroke="rgb(26.666667%, 26.666667%, 26.666667%)" stroke-opacity="1" stroke-miterlimit="10" d="M 253.265625 289.191406 L 165.597656 287.574219 "/>
<path fill="none" stroke-width="1" stroke-linecap="butt" stroke-linejoin="miter" stroke="rgb(26.666667%, 26.666667%, 26.666667%)" stroke-opacity="1" stroke-miterlimit="10" d="M 183.160156 212.996094 L 148.109375 129.1875 "/>
<path fill="none" stroke-width="1" stroke-linecap="butt" stroke-linejoin="miter" stroke="rgb(26.666667%, 26.666667%, 26.666667%)" stroke-opacity="1" stroke-miterlimit="10" d="M 183.160156 212.996094 L 165.597656 287.574219 "/>
<path fill="none" stroke-width="1" stroke-linecap="butt" stroke-linejoin="miter" stroke="rgb(26.666667%, 26.666667%, 26.666667%)" stroke-opacity="1" stroke-miterlimit="10" d="M 340.546875 269.460938 L 391.984375 190.789062 "/>
<path fill="none" stroke-width="1" stroke-linecap="butt" stroke-linejoin="miter" stroke="rgb(26.666667%, 26.666667%, 26.666667%)" stroke-opacity="1" stroke-miterlimit="10" d="M 276.71875 470.058594 L 235.585938 547.246094 "/>
<path fill="none" stroke-width="1" stroke-linecap="butt" stroke-linejoin="miter" stroke="rgb(26.666667%, 26.666667%, 26.666667%)" stroke-opacity="1" stroke-miterlimit="10" d="M 148.109375 129.1875 L 169.179688 55.789062 "/>
<path fill="none" stroke-width="1" stroke-linecap="butt" stroke-linejoin="miter" stroke="rgb(26.666667%, 26.666667%, 26.666667%)" stroke-opacity="1" stroke-miterlimit="10" d="M 235.585938 547.246094 L 163.773438 559.320312 "/>
<path fill="none" stroke-width="1" stroke-linecap="butt" stroke-linejoin="miter" stroke="rgb(26.666667%, 26.666667%, 26.666667%)" stroke-opacity="1" stroke-miterlimit="10" d="M 580 320.738281 L 573.269531 395.277344 "/>
<path fill-rule="nonzero" fill="rgb(100%, 0%, 0%)" fill-opacity="1" stroke-width="1" stroke-linecap="butt" stroke-linejoin="miter" stroke="rgb(0%, 0%, 0%)" stroke-opacity="1" stroke-miterlimit="10" d="M 341.582031 374.683594 C 341.582031 380.207031 337.105469 384.683594 331.582031 384.683594 C 326.058594 384.683594 321.582031 380.207031 321.582031 374.683594 C 321.582031 369.160156 326.058594 364.683594 331.582031 364.683594 C 337.105469 364.683594 341.582031 369.160156 341.582031 374.683594 "/>
<path fill-rule="nonzero" fill="rgb(100%, 0%, 0%)" fill-opacity="1" stroke-width="1" stroke-linecap="butt" stroke-linejoin="miter" stroke="rgb(0%, 0%, 0%)" stroke-opacity="1" stroke-miterlimit="10" d="M 263.265625 289.191406 C 263.265625 294.714844 258.785156 299.191406 253.265625 299.191406 C 247.742188 299.191406 243.265625 294.714844 243.265625 289.191406 C 243.265625 283.671875 247.742188 279.191406 253.265625 279.191406 C 258.785156 279.191406 263.265625 283.671875 263.265625 289.191406 "/>
<path fill-rule="nonzero" fill="rgb(100%, 0%, 0%)" fill-opacity="1" stroke-width="1" stroke-linecap="butt" stroke-linejoin="miter" stroke="rgb(0%, 0%, 0%)" stroke-opacity="1" stroke-miterlimit="10" d="M 193.160156 212.996094 C 193.160156 218.519531 188.683594 222.996094 183.160156 222.996094 C 177.636719 222.996094 173.160156 218.519531 173.160156 212.996094 C 173.160156 207.472656 177.636719 202.996094 183.160156 202.996094 C 188.683594 202.996094 193.160156 207.472656 193.160156 212.996094 "/>
<path fill-rule="nonzero" fill="rgb(100%, 0%, 0%)" fill-opacity="1" stroke-width="1" stroke-linecap="butt" stroke-linejoin="miter" stroke="rgb(0%, 0%, 0%)" stroke-opacity="1" stroke-miterlimit="10" d="M 350.546875 269.460938 C 350.546875 274.984375 346.070312 279.460938 340.546875 279.460938 C 335.023438 279.460938 330.546875 274.984375 330.546875 269.460938 C 330.546875 263.941406 335.023438 259.460938 340.546875 259.460938 C 346.070312 259.460938 350.546875 263.941406 350.546875 269.460938 "/>
<path fill-rule="nonzero" fill="rgb(100%, 0%, 0%)" fill-opacity="1" stroke-width="1" stroke-linecap="butt" stroke-linejoin="miter" stroke="rgb(0%, 0%, 0%)" stroke-opacity="1" stroke-miterlimit="10" d="M 286.71875 470.058594 C 286.71875 475.582031 282.242188 480.058594 276.71875 480.058594 C 271.195312 480.058594 266.71875 475.582031 266.71875 470.058594 C 266.71875 464.535156 271.195312 460.058594 276.71875 460.058594 C 282.242188 460.058594 286.71875 464.535156 286.71875 470.058594 "/>
<path fill-rule="nonzero" fill="rgb(100%, 0%, 0%)" fill-opacity="1" stroke-width="1" stroke-linecap="butt" stroke-linejoin="miter" stroke="rgb(0%, 0%, 0%)" stroke-opacity="1" stroke-miterlimit="10" d="M 394.035156 461.714844 C 394.035156 467.238281 389.558594 471.714844 384.035156 471.714844 C 378.511719 471.714844 374.035156 467.238281 374.035156 461.714844 C 374.035156 456.191406 378.511719 451.714844 384.035156 451.714844 C 389.558594 451.714844 394.035156 456.191406 394.035156 461.714844 "/>
<path fill-rule="nonzero" fill="rgb(100%, 0%, 0%)" fill-opacity="1" stroke-width="1" stroke-linecap="butt" stroke-linejoin="miter" stroke="rgb(0%, 0%, 0%)" stroke-opacity="1" stroke-miterlimit="10" d="M 401.984375 190.789062 C 401.984375 196.3125 397.507812 200.789062 391.984375 200.789062 C 386.460938 200.789062 381.984375 196.3125 381.984375 190.789062 C 381.984375 185.265625 386.460938 180.789062 391.984375 180.789062 C 397.507812 180.789062 401.984375 185.265625 401.984375 190.789062 "/>
<path fill-rule="nonzero" fill="rgb(100%, 0%, 0%)" fill-opacity="1" stroke-width="1" stroke-linecap="butt" stroke-linejoin="miter" stroke="rgb(0%, 0%, 0%)" stroke-opacity="1" stroke-miterlimit="10" d="M 462.253906 56.382812 C 462.253906 61.902344 457.777344 66.382812 452.253906 66.382812 C 446.730469 66.382812 442.253906 61.902344 442.253906 56.382812 C 442.253906 50.859375 446.730469 46.382812 452.253906 46.382812 C 457.777344 46.382812 462.253906 50.859375 462.253906 56.382812 "/>
<path fill-rule="nonzero" fill="rgb(100%, 0%, 0%)" fill-opacity="1" stroke-width="1" stroke-linecap="butt" stroke-linejoin="miter" stroke="rgb(0%, 0%, 0%)" stroke-opacity="1" stroke-miterlimit="10" d="M 158.109375 129.1875 C 158.109375 134.710938 153.632812 139.1875 148.109375 139.1875 C 142.585938 139.1875 138.109375 134.710938 138.109375 129.1875 C 138.109375 123.664062 142.585938 119.1875 148.109375 119.1875 C 153.632812 119.1875 158.109375 123.664062 158.109375 129.1875 "/>
<path fill-rule="nonzero" fill="rgb(100%, 0%, 0%)" fill-opacity="1" stroke-width="1" stroke-linecap="butt" stroke-linejoin="miter" stroke="rgb(0%, 0%, 0%)" stroke-opacity="1" stroke-miterlimit="10" d="M 245.585938 547.246094 C 245.585938 552.769531 241.109375 557.246094 235.585938 557.246094 C 230.0625 557.246094 225.585938 552.769531 225.585938 547.246094 C 225.585938 541.726562 230.0625 537.246094 235.585938 537.246094 C 241.109375 537.246094 245.585938 541.726562 245.585938 547.246094 "/>
<path fill-rule="nonzero" fill="rgb(100%, 0%, 0%)" fill-opacity="1" stroke-width="1" stroke-linecap="butt" stroke-linejoin="miter" stroke="rgb(0%, 0%, 0%)" stroke-opacity="1" stroke-miterlimit="10" d="M 173.773438 559.320312 C 173.773438 564.84375 169.296875 569.320312 163.773438 569.320312 C 158.25 569.320312 153.773438 564.84375 153.773438 559.320312 C 153.773438 553.796875 158.25 549.320312 163.773438 549.320312 C 169.296875 549.320312 173.773438 553.796875 173.773438 559.320312 "/>
<path fill-rule="nonzero" fill="rgb(100%, 0%, 0%)" fill-opacity="1" stroke-width="1" stroke-linecap="butt" stroke-linejoin="miter" stroke="rgb(0%, 0%, 0%)" stroke-opacity="1" stroke-miterlimit="10" d="M 30 275.609375 C 30 281.132812 25.523438 285.609375 20 285.609375 C 14.476562 285.609375 10 281.132812 10 275.609375 C 10 270.089844 14.476562 265.609375 20 265.609375 C 25.523438 265.609375 30 270.089844 30 275.609375 "/>
<path fill-rule="nonzero" fill="rgb(100%, 0%, 0%)" fill-opacity="1" stroke-width="1" stroke-linecap="butt" stroke-linejoin="miter" stroke="rgb(0%, 0%, 0%)" stroke-opacity="1" stroke-miterlimit="10" d="M 590 320.738281 C 590 326.261719 585.523438 330.738281 580 330.738281 C 574.476562 330.738281 570 326.261719 570 320.738281 C 570 315.214844 574.476562 310.738281 580 310.738281 C 585.523438 310.738281 590 315.214844 590 320.738281 "/>
<path fill-rule="nonzero" fill="rgb(100%, 0%, 0%)" fill-opacity="1" stroke-width="1" stroke-linecap="butt" stroke-linejoin="miter" stroke="rgb(0%, 0%, 0%)" stroke-opacity="1" stroke-miterlimit="10" d="M 437.074219 370.539062 C 437.074219 376.0625 432.597656 380.539062 427.074219 380.539062 C 421.550781 380.539062 417.074219 376.0625 417.074219 370.539062 C 417.074219 365.015625 421.550781 360.539062 427.074219 360.539062 C 432.597656 360.539062 437.074219 365.015625 437.074219 370.539062 "/>
<path fill-rule="nonzero" fill="rgb(100%, 0%, 0%)" fill-opacity="1" stroke-width="1" stroke-linecap="butt" stroke-linejoin="miter" stroke="rgb(0%, 0%, 0%)" stroke-opacity="1" stroke-miterlimit="10" d="M 583.269531 395.277344 C 583.269531 400.800781 578.792969 405.277344 573.269531 405.277344 C 567.746094 405.277344 563.269531 400.800781 563.269531 395.277344 C 563.269531 389.753906 567.746094 385.277344 573.269531 385.277344 C 578.792969 385.277344 583.269531 389.753906 583.269531 395.277344 "/>
<path fill-rule="nonzero" fill="rgb(100%, 0%, 0%)" fill-opacity="1" stroke-width="1" stroke-linecap="butt" stroke-linejoin="miter" stroke="rgb(0%, 0%, 0%)" stroke-opacity="1" stroke-miterlimit="10" d="M 67.453125 431.582031 C 67.453125 437.105469 62.976562 441.582031 57.453125 441.582031 C 51.929688 441.582031 47.453125 437.105469 47.453125 431.582031 C 47.453125 426.0625 51.929688 421.582031 57.453125 421.582031 C 62.976562 421.582031 67.453125 426.0625 67.453125 431.582031 "/>
<path fill-rule="nonzero" fill="rgb(100%, 0%, 0%)" fill-opacity="1" stroke-width="1" stroke-linecap="butt" stroke-linejoin="miter" stroke="rgb(0%, 0%, 0%)" stroke-opacity="1" stroke-miterlimit="10" d="M 175.597656 287.574219 C 175.597656 293.09375 171.121094 297.574219 165.597656 297.574219 C 160.074219 297.574219 155.597656 293.09375 155.597656 287.574219 C 155.597656 282.050781 160.074219 277.574219 165.597656 277.574219 C 171.121094 277.574219 175.597656 282.050781 175.597656 287.574219 "/>
<path fill-rule="nonzero" fill="rgb(100%, 0%, 0%)" fill-opacity="1" stroke-width="1" stroke-linecap="butt" stroke-linejoin="miter" stroke="rgb(0%, 0%, 0%)" stroke-opacity="1" stroke-miterlimit="10" d="M 457.382812 580 C 457.382812 585.523438 452.90625 590 447.382812 590 C 441.859375 590 437.382812 585.523438 437.382812 580 C 437.382812 574.476562 441.859375 570 447.382812 570 C 452.90625 570 457.382812 574.476562 457.382812 580 "/>
<path fill-rule="nonzero" fill="rgb(100%, 0%, 0%)" fill-opacity="1" stroke-width="1" stroke-linecap="butt" stroke-linejoin="miter" stroke="rgb(0%, 0%, 0%)" stroke-opacity="1" stroke-miterlimit="10" d="M 557.90625 164.054688 C 557.90625 169.578125 553.429688 174.054688 547.90625 174.054688 C 542.382812 174.054688 537.90625 169.578125 537.90625 164.054688 C 537.90625 158.53125 542.382812 154.054688 547.90625 154.054688 C 553.429688 154.054688 557.90625 158.53125 557.90625 164.054688 "/>
<path fill-rule="nonzero" fill="rgb(100%, 0%, 0%)" fill-opacity="1" stroke-width="1" stroke-linecap="butt" stroke-linejoin="miter" stroke="rgb(0%, 0%, 0%)" stroke-opacity="1" stroke-miterlimit="10" d="M 179.179688 55.789062 C 179.179688 61.3125 174.703125 65.789062 169.179688 65.789062 C 163.65625 65.789062 159.179688 61.3125 159.179688 55.789062 C 159.179688 50.265625 163.65625 45.789062 169.179688 45.789062 C 174.703125 45.789062 179.179688 50.265625 179.179688 55.789062 "/>
<path fill-rule="nonzero" fill="rgb(100%, 0%, 0%)" fill-opacity="1" stroke-width="1" stroke-linecap="butt" stroke-linejoin="miter" stroke="rgb(0%, 0%, 0%)" stroke-opacity="1" stroke-miterlimit="10" d="M 331.996094 20 C 331.996094 25.523438 327.519531 30 321.996094 30 C 316.472656 30 311.996094 25.523438 311.996094 20 C 311.996094 14.476562 316.472656 10 321.996094 10 C 327.519531 10 331.996094 14.476562 331.996094 20 "/>
</svg>
