<?xml version="1.0" encoding="UTF-8"?>
<svg xmlns="http://www.w3.org/2000/svg" xmlns:xlink="http://www.w3.org/1999/xlink" width="600" height="600" viewBox="0 0 600 600">
<rect x="-60" y="-60" width="720" height="720" fill="rgb(100%, 100%, 100%)" fill-opacity="1"/>
<path fill="none" stroke-width="1" stroke-linecap="butt" stroke-linejoin="miter" stroke="rgb(26.666667%, 26.666667%, 26.666667%)" stroke-opacity="1" stroke-miterlimit="10" d="M 320.9375 139.375 L 325.652344 276.113281 "/>
<path fill="none" stroke-width="1" stroke-linecap="butt" stroke-linejoin="miter" stroke="rgb(26.666667%, 26.666667%, 26.666667%)" stroke-opacity="1" stroke-miterlimit="10" d="M 320.9375 139.375 L 370.8125 203.136719 "/>
<path fill="none" stroke-width="1" stroke-linecap="butt" stroke-linejoin="miter" stroke="rgb(26.666667%, 26.666667%, 26.666667%)" stroke-opacity="1" stroke-miterlimit="10" d="M 320.9375 139.375 L 215.847656 106.230469 "/>
<path fill="none" stroke-width="1" stroke-linecap="butt" stroke-linejoin="miter" stroke="rgb(26.666667%, 26.666667%, 26.666667%)" stroke-opacity="1" stroke-miterlimit="10" d="M 320.9375 139.375 L 327.132812 35.171875 "/>
<path fill="none" stroke-width="1" stroke-linecap="butt" stroke-linejoin="miter" stroke="rgb(26.666667%, 26.666667%, 26.666667%)" stroke-opacity="1" stroke-miterlimit="10" d="M 320.9375 139.375 L 400.445312 82.886719 "/>
<path fill="none" stroke-width="1" stroke-linecap="butt" stroke-linejoin="miter" stroke="rgb(26.666667%, 26.666667%, 26.666667%)" stroke-opacity="1" stroke-miterlimit="10" d="M 325.652344 276.113281 L 301.90625 388.636719 "/>
<path fill="none" stroke-width="1" stroke-linecap="butt" stroke-linejoin="miter" stroke="rgb(26.666667%, 26.666667%, 26.666667%)" stroke-opacity="1" stroke-miterlimit="10" d="M 325.652344 276.113281 L 370.8125 203.136719 "/>
<path fill="none" stroke-width="1" stroke-linecap="butt" stroke-linejoin="miter" stroke="rgb(26.666667%, 26.666667%, 26.666667%)" stroke-opacity="1" stroke-miterlimit="10" d="M 325.652344 276.113281 L 242.800781 339.523438 "/>
<path fill="none" stroke-width="1" stroke-linecap="butt" stroke-linejoin="miter" stroke="rgb(26.666667%, 26.666667%, 26.666667%)" stroke-opacity="1" stroke-miterlimit="10" d="M 325.652344 276.113281 L 412.40625 317.335938 "/>
<path fill="none" stroke-width="1" stroke-linecap="butt" stroke-linejoin="miter" stroke="rgb(26.666667%, 26.666667%, 26.666667%)" stroke-opacity="1" stroke-miterlimit="10" d="M 301.90625 388.636719 L 284.183594 487.71875 "/>
<path fill="none" stroke-width="1" stroke-linecap="butt" stroke-linejoin="miter" stroke="rgb(26.666667%, 26.666667%, 26.666667%)" stroke-opacity="1" stroke-miterlimit="10" d="M 301.90625 388.636719 L 242.800781 339.523438 "/>
<path fill="none" stroke-width="1" stroke-linecap="butt" stroke-linejoin="miter" stroke="rgb(26.666667%, 26.666667%, 26.666667%)" stroke-opacity="1" stroke-miterlimit="10" d="M 215.847656 106.230469 L 134.449219 160.664062 "/>
<path fill="none" stroke-width="1" stroke-linecap="butt" stroke-linejoin="miter" stroke="rgb(26.666667%, 26.666667%, 26.666667%)" stroke-opacity="1" stroke-miterlimit="10" d="M 215.847656 106.230469 L 195.632812 20 "/>
<path fill="none" stroke-width="1" stroke-linecap="butt" stroke-linejoin="miter" stroke="rgb(26.666667%, 26.666667%, 26.666667%)" stroke-opacity="1" stroke-miterlimit="10" d="M 284.183594 487.71875 L 250.011719 560.527344 "/>
<path fill="none" stroke-width="1" stroke-linecap="butt" stroke-linejoin="miter" stroke="rgb(26.666667%, 26.666667%, 26.666667%)" stroke-opacity="1" stroke-miterlimit="10" d="M 134.449219 160.664062 L 69 216.777344 "/>
<path fill="none" stroke-width="1" stroke-linecap="butt" stroke-linejoin="miter" stroke="rgb(26.666667%, 26.666667%, 26.666667%)" stroke-opacity="1" stroke-miterlimit="10" d="M 580 325.105469 L 561.949219 392.242188 "/>
<path fill="none" stroke-width="1" stroke-linecap="butt" stroke-linejoin="miter" stroke="rgb(26.666667%, 26.666667%, 26.666667%)" stroke-opacity="1" stroke-miterlimit="10" d="M 242.800781 339.523438 L 159.949219 373.296875 "/>
<path fill-rule="nonzero" fill="rgb(100%, 0%, 0%)" fill-opacity="1" stroke-width="1" stroke-linecap="butt" stroke-linejoin="miter" stroke="rgb(0%, 0%, 0%)" stroke-opacity="1" stroke-miterlimit="10" d="M 330.9375 139.375 C 330.9375 144.894531 326.457031 149.375 320.9375 149.375 C 315.414062 149.375 310.9375 144.894531 310.9375 139.375 C 310.9375 133.851562 315.414062 129.375 320.9375 129.375 C 326.457031 129.375 330.9375 133.851562 330.9375 139.375 "/>
<path fill-rule="nonzero" fill="rgb(100%, 0%, 0%)" fill-opacity="1" stroke-width="1" stroke-linecap="butt" stroke-linejoin="miter" stroke="rgb(0%, 0%, 0%)" stroke-opacity="1" stroke-miterlimit="10" d="M 335.652344 276.113281 C 335.652344 281.636719 331.175781 286.113281 325.652344 286.113281 C 320.128906 286.113281 315.652344 281.636719 315.652344 276.113281 C 315.652344 270.589844 320.128906 266.113281 325.652344 266.113281 C 331.175781 266.113281 335.652344 270.589844 335.652344 276.113281 "/>
<path fill-rule="nonzero" fill="rgb(100%, 0%, 0%)" fill-opacity="1" stroke-width="1" stroke-linecap="butt" stroke-linejoin="miter" stroke="rgb(0%, 0%, 0%)" stroke-opacity="1" stroke-miterlimit="10" d="M 311.90625 388.636719 C 311.90625 394.160156 307.429688 398.636719 301.90625 398.636719 C 296.382812 398.636719 291.90625 394.160156 291.90625 388.636719 C 291.90625 383.113281 296.382812 378.636719 301.90625 378.636719 C 307.429688 378.636719 311.90625 383.113281 311.90625 388.636719 "/>
<path fill-rule="nonzero" fill="rgb(100%, 0%, 0%)" fill-opacity="1" stroke-width="1" stroke-linecap="butt" stroke-linejoin="miter" stroke="rgb(0%, 0%, 0%)" stroke-opacity="1" stroke-miterlimit="10" d="M 380.8125 203.136719 C 380.8125 208.660156 376.332031 213.136719 370.8125 213.136719 C 365.289062 213.136719 360.8125 208.660156 360.8125 203.136719 C 360.8125 197.613281 365.289062 193.136719 370.8125 193.136719 C 376.332031 193.136719 380.8125 197.613281 380.8125 203.136719 "/>
<path fill-rule="nonzero" fill="rgb(100%, 0%, 0%)" fill-opacity="1" stroke-width="1" stroke-linecap="butt" stroke-linejoin="miter" stroke="rgb(0%, 0%, 0%)" stroke-opacity="1" stroke-miterlimit="10" d="M 225.847656 106.230469 C 225.847656 111.753906 221.367188 116.230469 215.847656 116.230469 C 210.324219 116.230469 205.847656 111.753906 205.847656 106.230469 C 205.847656 100.707031 210.324219 96.230469 215.847656 96.230469 C 221.367188 96.230469 225.847656 100.707031 225.847656 106.230469 "/>
<path fill-rule="nonzero" fill="rgb(100%, 0%, 0%)" fill-opacity="1" stroke-width="1" stroke-linecap="butt" stroke-linejoin="miter" stroke="rgb(0%, 0%, 0%)" stroke-opacity="1" stroke-miterlimit="10" d="M 337.132812 35.171875 C 337.132812 40.695312 332.65625 45.171875 327.132812 45.171875 C 321.613281 45.171875 317.132812 40.695312 317.132812 35.171875 C 317.132812 29.648438 321.613281 25.171875 327.132812 25.171875 C 332.65625 25.171875 337.132812 29.648438 337.132812 35.171875 "/>
<path fill-rule="nonzero" fill="rgb(100%, 0%, 0%)" fill-opacity="1" stroke-width="1" stroke-linecap="butt" stroke-linejoin="miter" stroke="rgb(0%, 0%, 0%)" stroke-opacity="1" stroke-miterlimit="10" d="M 402.703125 580 C 402.703125 585.523438 398.226562 590 392.703125 590 C 387.183594 590 382.703125 585.523438 382.703125 580 C 382.703125 574.476562 387.183594 570 392.703125 570 C 398.226562 570 402.703125 574.476562 402.703125 580 "/>
<path fill-rule="nonzero" fill="rgb(100%, 0%, 0%)" fill-opacity="1" stroke-width="1" stroke-linecap="butt" stroke-linejoin="miter" stroke="rgb(0%, 0%, 0%)" stroke-opacity="1" stroke-miterlimit="10" d="M 110.152344 512.347656 C 110.152344 517.867188 105.671875 522.347656 100.152344 522.347656 C 94.628906 522.347656 90.152344 517.867188 90.152344 512.347656 C 90.152344 506.824219 94.628906 502.347656 100.152344 502.347656 C 105.671875 502.347656 110.152344 506.824219 110.152344 512.347656 "/>
<path fill-rule="nonzero" fill="rgb(100%, 0%, 0%)" fill-opacity="1" stroke-width="1" stroke-linecap="butt" stroke-linejoin="miter" stroke="rgb(0%, 0%, 0%)" stroke-opacity="1" stroke-miterlimit="10" d="M 294.183594 487.71875 C 294.183594 493.242188 289.707031 497.71875 284.183594 497.71875 C 278.664062 497.71875 274.183594 493.242188 274.183594 487.71875 C 274.183594 482.195312 278.664062 477.71875 284.183594 477.71875 C 289.707031 477.71875 294.183594 482.195312 294.183594 487.71875 "/>
<path fill-rule="nonzero" fill="rgb(100%, 0%, 0%)" fill-opacity="1" stroke-width="1" stroke-linecap="butt" stroke-linejoin="miter" stroke="rgb(0%, 0%, 0%)" stroke-opacity="1" stroke-miterlimit="10" d="M 144.449219 160.664062 C 144.449219 166.1875 139.972656 170.664062 134.449219 170.664062 C 128.925781 170.664062 124.449219 166.1875 124.449219 160.664062 C 124.449219 155.140625 128.925781 150.664062 134.449219 150.664062 C 139.972656 150.664062 144.449219 155.140625 144.449219 160.664062 "/>
<path fill-rule="nonzero" fill="rgb(100%, 0%, 0%)" fill-opacity="1" stroke-width="1" stroke-linecap="butt" stroke-linejoin="miter" stroke="rgb(0%, 0%, 0%)" stroke-opacity="1" stroke-miterlimit="10" d="M 79 216.777344 C 79 222.300781 74.523438 226.777344 69 226.777344 C 63.476562 226.777344 59 222.300781 59 216.777344 C 59 211.257812 63.476562 206.777344 69 206.777344 C 74.523438 206.777344 79 211.257812 79 216.777344 "/>
<path fill-rule="nonzero" fill="rgb(100%, 0%, 0%)" fill-opacity="1" stroke-width="1" stroke-linecap="butt" stroke-linejoin="miter" stroke="rgb(0%, 0%, 0%)" stroke-opacity="1" stroke-miterlimit="10" d="M 205.632812 20 C 205.632812 25.523438 201.15625 30 195.632812 30 C 190.109375 30 185.632812 25.523438 185.632812 20 C 185.632812 14.476562 190.109375 10 195.632812 10 C 201.15625 10 205.632812 14.476562 205.632812 20 "/>
<path fill-rule="nonzero" fill="rgb(100%, 0%, 0%)" fill-opacity="1" stroke-width="1" stroke-linecap="butt" stroke-linejoin="miter" stroke="rgb(0%, 0%, 0%)" stroke-opacity="1" stroke-miterlimit="10" d="M 590 325.105469 C 590 330.628906 585.523438 335.105469 580 335.105469 C 574.476562 335.105469 570 330.628906 570 325.105469 C 570 319.585938 574.476562 315.105469 580 315.105469 C 585.523438 315.105469 590 319.585938 590 325.105469 "/>
<path fill-rule="nonzero" fill="rgb(100%, 0%, 0%)" fill-opacity="1" stroke-width="1" stroke-linecap="butt" stroke-linejoin="miter" stroke="rgb(0%, 0%, 0%)" stroke-opacity="1" stroke-miterlimit="10" d="M 410.445312 82.886719 C 410.445312 88.410156 405.96875 92.886719 400.445312 92.886719 C 394.921875 92.886719 390.445312 88.410156 390.445312 82.886719 C 390.445312 77.363281 394.921875 72.886719 400.445312 72.886719 C 405.96875 72.886719 410.445312 77.363281 410.445312 82.886719 "/>
<path fill-rule="nonzero" fill="rgb(100%, 0%, 0%)" fill-opacity="1" stroke-width="1" stroke-linecap="butt" stroke-linejoin="miter" stroke="rgb(0%, 0%, 0%)" stroke-opacity="1" stroke-miterlimit="10" d="M 571.949219 392.242188 C 571.949219 397.765625 567.472656 402.242188 561.949219 402.242188 C 556.425781 402.242188 551.949219 397.765625 551.949219 392.242188 C 551.949219 386.722656 556.425781 382.242188 561.949219 382.242188 C 567.472656 382.242188 571.949219 386.722656 571.949219 392.242188 "/>
<path fill-rule="nonzero" fill="rgb(100%, 0%, 0%)" fill-opacity="1" stroke-width="1" stroke-linecap="butt" stroke-linejoin="miter" stroke="rgb(0%, 0%, 0%)" stroke-opacity="1" stroke-miterlimit="10" d="M 30 371.957031 C 30 377.480469 25.523438 381.957031 20 381.957031 C 14.476562 381.957031 10 377.480469 10 371.957031 C 10 366.433594 14.476562 361.957031 20 361.957031 C 25.523438 361.957031 30 366.433594 30 371.957031 "/>
<path fill-rule="nonzero" fill="rgb(100%, 0%, 0%)" fill-opacity="1" stroke-width="1" stroke-linecap="butt" stroke-linejoin="miter" stroke="rgb(0%, 0%, 0%)" stroke-opacity="1" stroke-miterlimit="10" d="M 252.800781 339.523438 C 252.800781 345.042969 248.320312 349.523438 242.800781 349.523438 C 237.277344 349.523438 232.800781 345.042969 232.800781 339.523438 C 232.800781 334 237.277344 329.523438 242.800781 329.523438 C 248.320312 329.523438 252.800781 334 252.800781 339.523438 "/>
<path fill-rule="nonzero" fill="rgb(100%, 0%, 0%)" fill-opacity="1" stroke-width="1" stroke-linecap="butt" stroke-linejoin="miter" stroke="rgb(0%, 0%, 0%)" stroke-opacity="1" stroke-miterlimit="10" d="M 500.539062 504.199219 C 500.539062 509.722656 496.0625 514.199219 490.539062 514.199219 C 485.019531 514.199219 480.539062 509.722656 480.539062 504.199219 C 480.539062 498.675781 485.019531 494.199219 490.539062 494.199219 C 496.0625 494.199219 500.539062 498.675781 500.539062 504.199219 "/>
<path fill-rule="nonzero" fill="rgb(100%, 0%, 0%)" fill-opacity="1" stroke-width="1" stroke-linecap="butt" stroke-linejoin="miter" stroke="rgb(0%, 0%, 0%)" stroke-opacity="1" stroke-miterlimit="10" d="M 169.949219 373.296875 C 169.949219 378.820312 165.472656 383.296875 159.949219 383.296875 C 154.425781 383.296875 149.949219 378.820312 149.949219 373.296875 C 149.949219 367.773438 154.425781 363.296875 159.949219 363.296875 C 165.472656 363.296875 169.949219 367.773438 169.949219 373.296875 "/>
<path fill-rule="nonzero" fill="rgb(100%, 0%, 0%)" fill-opacity="1" stroke-width="1" stroke-linecap="butt" stroke-linejoin="miter" stroke="rgb(0%, 0%, 0%)" stroke-opacity="1" stroke-miterlimit="10" d="M 260.011719 560.527344 C 260.011719 566.046875 255.535156 570.527344 250.011719 570.527344 C 244.488281 570.527344 240.011719 566.046875 240.011719 560.527344 C 240.011719 555.003906 244.488281 550.527344 250.011719 550.527344 C 255.535156 550.527344 260.011719 555.003906 260.011719 560.527344 "/>
<path fill-rule="nonzero" fill="rgb(100%, 0%, 0%)" fill-opacity="1" stroke-width="1" stroke-linecap="butt" stroke-linejoin="miter" stroke="rgb(0%, 0%, 0%)" stroke-opacity="1" stroke-miterlimit="10" d="M 422.40625 317.335938 C 422.40625 322.859375 417.929688 327.335938 412.40625 327.335938 C 406.886719 327.335938 402.40625 322.859375 402.40625 317.335938 C 402.40625 311.8125 406.886719 307.335938 412.40625 307.335938 C 417.929688 307.335938 422.40625 311.8125 422.40625 317.335938 "/>
<path fill-rule="nonzero" fill="rgb(100%, 0%, 0%)" fill-opacity="1" stroke-width="1" stroke-linecap="butt" stroke-linejoin="miter" stroke="rgb(0%, 0%, 0%)" stroke-opacity="1" stroke-miterlimit="10" d="M 50.894531 93.691406 C 50.894531 99.214844 46.417969 103.691406 40.894531 103.691406 C 35.371094 103.691406 30.894531 99.214844 30.894531 93.691406 C 30.894531 88.167969 35.371094 83.691406 40.894531 83.691406 C 46.417969 83.691406 50.894531 88.167969 50.894531 93.691406 "/>
<path fill-rule="nonzero" fill="rgb(100%, 0%, 0%)" fill-opacity="1" stroke-width="1" stroke-linecap="butt" stroke-linejoin="miter" stroke="rgb(0%, 0%, 0%)" stroke-opacity="1" stroke-miterlimit="10" d="M 533.144531 57.503906 C 533.144531 63.027344 528.667969 67.503906 523.144531 67.503906 C 517.621094 67.503906 513.144531 63.027344 513.144531 57.503906 C 513.144531 51.980469 517.621094 47.503906 523.144531 47.503906 C 528.667969 47.503906 533.144531 51.980469 533.144531 57.503906 "/>
<path fill-rule="nonzero" fill="rgb(100%, 0%, 0%)" fill-opacity="1" stroke-width="1" stroke-linecap="butt" stroke-linejoin="miter" stroke="rgb(0%, 0%, 0%)" stroke-opacity="1" stroke-miterlimit="10" d="M 585.726562 186.339844 C 585.726562 191.863281 581.246094 196.339844 575.726562 196.339844 C 570.203125 196.339844 565.726562 191.863281 565.726562 186.339844 C 565.726562 180.816406 570.203125 176.339844 575.726562 176.339844 C 581.246094 176.339844 585.726562 180.816406 585.726562 186.339844 "/>
</svg>
