<?xml version="1.0" encoding="UTF-8"?>
<svg xmlns="http://www.w3.org/2000/svg" xmlns:xlink="http://www.w3.org/1999/xlink" width="600" height="600" viewBox="0 0 600 600">
<rect x="-60" y="-60" width="720" height="720" fill="rgb(100%, 100%, 100%)" fill-opacity="1"/>
<path fill="none" stroke-width="1" stroke-linecap="butt" stroke-linejoin="miter" stroke="rgb(26.666667%, 26.666667%, 26.666667%)" stroke-opacity="1" stroke-miterlimit="10" d="M 378.789062 364.359375 L 364.980469 250.167969 "/>
<path fill="none" stroke-width="1" stroke-linecap="butt" stroke-linejoin="miter" stroke="rgb(26.666667%, 26.666667%, 26.666667%)" stroke-opacity="1" stroke-miterlimit="10" d="M 378.789062 364.359375 L 337.957031 315.761719 "/>
<path fill="none" stroke-width="1" stroke-linecap="butt" stroke-linejoin="miter" stroke="rgb(26.666667%, 26.666667%, 26.666667%)" stroke-opacity="1" stroke-miterlimit="10" d="M 378.789062 364.359375 L 266.710938 400.816406 "/>
<path fill="none" stroke-width="1" stroke-linecap="butt" stroke-linejoin="miter" stroke="rgb(26.666667%, 26.666667%, 26.666667%)" stroke-opacity="1" stroke-miterlimit="10" d="M 378.789062 364.359375 L 450.214844 300.5625 "/>
<path fill="none" stroke-width="1" stroke-linecap="butt" stroke-linejoin="miter" stroke="rgb(26.666667%, 26.666667%, 26.666667%)" stroke-opacity="1" stroke-miterlimit="10" d="M 378.789062 364.359375 L 384.113281 452.34375 "/>
<path fill="none" stroke-width="1" stroke-linecap="butt" stroke-linejoin="miter" stroke="rgb(26.666667%, 26.666667%, 26.666667%)" stroke-opacity="1" stroke-miterlimit="10" d="M 378.789062 364.359375 L 457.976562 414.339844 "/>
<path fill="none" stroke-width="1" stroke-linecap="butt" stroke-linejoin="miter" stroke="rgb(26.666667%, 26.666667%, 26.666667%)" stroke-opacity="1" stroke-miterlimit="10" d="M 364.980469 250.167969 L 422.203125 214.621094 "/>
<path fill="none" stroke-width="1" stroke-linecap="butt" stroke-linejoin="miter" stroke="rgb(26.666667%, 26.666667%, 26.666667%)" stroke-opacity="1" stroke-miterlimit="10" d="M 364.980469 250.167969 L 337.957031 315.761719 "/>
<path fill="none" stroke-width="1" stroke-linecap="butt" stroke-linejoin="miter" stroke="rgb(26.666667%, 26.666667%, 26.666667%)" stroke-opacity="1" stroke-miterlimit="10" d="M 364.980469 250.167969 L 314.210938 197.753906 "/>
<path fill="none" stroke-width="1" stroke-linecap="butt" stroke-linejoin="miter" stroke="rgb(26.666667%, 26.666667%, 26.666667%)" stroke-opacity="1" stroke-miterlimit="10" d="M 364.980469 250.167969 L 370.941406 148.570312 "/>
<path fill="none" stroke-width="1" stroke-linecap="butt" stroke-linejoin="miter" stroke="rgb(26.666667%, 26.666667%, 26.666667%)" stroke-opacity="1" stroke-miterlimit="10" d="M 422.203125 214.621094 L 450.214844 300.5625 "/>
<path fill="none" stroke-width="1" stroke-linecap="butt" stroke-linejoin="miter" stroke="rgb(26.666667%, 26.666667%, 26.666667%)" stroke-opacity="1" stroke-miterlimit="10" d="M 422.203125 214.621094 L 496.003906 168.726562 "/>
<path fill="none" stroke-width="1" stroke-linecap="butt" stroke-linejoin="miter" stroke="rgb(26.666667%, 26.666667%, 26.666667%)" stroke-opacity="1" stroke-miterlimit="10" d="M 422.203125 214.621094 L 314.210938 197.753906 "/>
<path fill="none" stroke-width="1" stroke-linecap="butt" stroke-linejoin="miter" stroke="rgb(26.666667%, 26.666667%, 26.666667%)" stroke-opacity="1" stroke-miterlimit="10" d="M 266.710938 400.816406 L 185.648438 350.941406 "/>
<path fill="none" stroke-width="1" stroke-linecap="butt" stroke-linejoin="miter" stroke="rgb(26.666667%, 26.666667%, 26.666667%)" stroke-opacity="1" stroke-miterlimit="10" d="M 266.710938 400.816406 L 228.753906 469.585938 "/>
<path fill="none" stroke-width="1" stroke-linecap="butt" stroke-linejoin="miter" stroke="rgb(26.666667%, 26.666667%, 26.666667%)" stroke-opacity="1" stroke-miterlimit="10" d="M 496.003906 168.726562 L 560.015625 173.195312 "/>
<path fill="none" stroke-width="1" stroke-linecap="butt" stroke-linejoin="miter" stroke="rgb(26.666667%, 26.666667%, 26.666667%)" stroke-opacity="1" stroke-miterlimit="10" d="M 185.648438 350.941406 L 163.941406 269.324219 "/>
<path fill="none" stroke-width="1" stroke-linecap="butt" stroke-linejoin="miter" stroke="rgb(26.666667%, 26.666667%, 26.666667%)" stroke-opacity="1" stroke-miterlimit="10" d="M 163.941406 269.324219 L 217.355469 203.550781 "/>
<path fill="none" stroke-width="1" stroke-linecap="butt" stroke-linejoin="miter" stroke="rgb(26.666667%, 26.666667%, 26.666667%)" stroke-opacity="1" stroke-miterlimit="10" d="M 314.210938 197.753906 L 217.355469 203.550781 "/>
<path fill-rule="nonzero" fill="rgb(100%, 0%, 0%)" fill-opacity="1" stroke-width="1" stroke-linecap="butt" stroke-linejoin="miter" stroke="rgb(0%, 0%, 0%)" stroke-opacity="1" stroke-miterlimit="10" d="M 388.789062 364.359375 C 388.789062 369.882812 384.3125 374.359375 378.789062 374.359375 C 373.265625 374.359375 368.789062 369.882812 368.789062 364.359375 C 368.789062 358.835938 373.265625 354.359375 378.789062 354.359375 C 384.3125 354.359375 388.789062 358.835938 388.789062 364.359375 "/>
<path fill-rule="nonzero" fill="rgb(100%, 0%, 0%)" fill-opacity="1" stroke-width="1" stroke-linecap="butt" stroke-linejoin="miter" stroke="rgb(0%, 0%, 0%)" stroke-opacity="1" stroke-miterlimit="10" d="M 374.980469 250.167969 C 374.980469 255.6875 370.503906 260.167969 364.980469 260.167969 C 359.460938 260.167969 354.980469 255.6875 354.980469 250.167969 C 354.980469 244.644531 359.460938 240.167969 364.980469 240.167969 C 370.503906 240.167969 374.980469 244.644531 374.980469 250.167969 "/>
<path fill-rule="nonzero" fill="rgb(100%, 0%, 0%)" fill-opacity="1" stroke-width="1" stroke-linecap="butt" stroke-linejoin="miter" stroke="rgb(0%, 0%, 0%)" stroke-opacity="1" stroke-miterlimit="10" d="M 432.203125 214.621094 C 432.203125 220.140625 427.726562 224.621094 422.203125 224.621094 C 416.683594 224.621094 412.203125 220.140625 412.203125 214.621094 C 412.203125 209.097656 416.683594 204.621094 422.203125 204.621094 C 427.726562 204.621094 432.203125 209.097656 432.203125 214.621094 "/>
<path fill-rule="nonzero" fill="rgb(100%, 0%, 0%)" fill-opacity="1" stroke-width="1" stroke-linecap="butt" stroke-linejoin="miter" stroke="rgb(0%, 0%, 0%)" stroke-opacity="1" stroke-miterlimit="10" d="M 347.957031 315.761719 C 347.957031 321.28125 343.480469 325.761719 337.957031 325.761719 C 332.433594 325.761719 327.957031 321.28125 327.957031 315.761719 C 327.957031 310.238281 332.433594 305.761719 337.957031 305.761719 C 343.480469 305.761719 347.957031 310.238281 347.957031 315.761719 "/>
<path fill-rule="nonzero" fill="rgb(100%, 0%, 0%)" fill-opacity="1" stroke-width="1" stroke-linecap="butt" stroke-linejoin="miter" stroke="rgb(0%, 0%, 0%)" stroke-opacity="1" stroke-miterlimit="10" d="M 276.710938 400.816406 C 276.710938 406.339844 272.234375 410.816406 266.710938 410.816406 C 261.1875 410.816406 256.710938 406.339844 256.710938 400.816406 C 256.710938 395.292969 261.1875 390.816406 266.710938 390.816406 C 272.234375 390.816406 276.710938 395.292969 276.710938 400.816406 "/>
<path fill-rule="nonzero" fill="rgb(100%, 0%, 0%)" fill-opacity="1" stroke-width="1" stroke-linecap="butt" stroke-linejoin="miter" stroke="rgb(0%, 0%, 0%)" stroke-opacity="1" stroke-miterlimit="10" d="M 460.214844 300.5625 C 460.214844 306.082031 455.738281 310.5625 450.214844 310.5625 C 444.691406 310.5625 440.214844 306.082031 440.214844 300.5625 C 440.214844 295.039062 444.691406 290.5625 450.214844 290.5625 C 455.738281 290.5625 460.214844 295.039062 460.214844 300.5625 "/>
<path fill-rule="nonzero" fill="rgb(100%, 0%, 0%)" fill-opacity="1" stroke-width="1" stroke-linecap="butt" stroke-linejoin="miter" stroke="rgb(0%, 0%, 0%)" stroke-opacity="1" stroke-miterlimit="10" d="M 263.953125 22.433594 C 263.953125 27.953125 259.472656 32.433594 253.953125 32.433594 C 248.429688 32.433594 243.953125 27.953125 243.953125 22.433594 C 243.953125 16.910156 248.429688 12.433594 253.953125 12.433594 C 259.472656 12.433594 263.953125 16.910156 263.953125 22.433594 "/>
<path fill-rule="nonzero" fill="rgb(100%, 0%, 0%)" fill-opacity="1" stroke-width="1" stroke-linecap="butt" stroke-linejoin="miter" stroke="rgb(0%, 0%, 0%)" stroke-opacity="1" stroke-miterlimit="10" d="M 435.578125 558.347656 C 435.578125 563.871094 431.101562 568.347656 425.578125 568.347656 C 420.054688 568.347656 415.578125 563.871094 415.578125 558.347656 C 415.578125 552.824219 420.054688 548.347656 425.578125 548.347656 C 431.101562 548.347656 435.578125 552.824219 435.578125 558.347656 "/>
<path fill-rule="nonzero" fill="rgb(100%, 0%, 0%)" fill-opacity="1" stroke-width="1" stroke-linecap="butt" stroke-linejoin="miter" stroke="rgb(0%, 0%, 0%)" stroke-opacity="1" stroke-miterlimit="10" d="M 506.003906 168.726562 C 506.003906 174.25 501.527344 178.726562 496.003906 178.726562 C 490.484375 178.726562 486.003906 174.25 486.003906 168.726562 C 486.003906 163.203125 490.484375 158.726562 496.003906 158.726562 C 501.527344 158.726562 506.003906 163.203125 506.003906 168.726562 "/>
<path fill-rule="nonzero" fill="rgb(100%, 0%, 0%)" fill-opacity="1" stroke-width="1" stroke-linecap="butt" stroke-linejoin="miter" stroke="rgb(0%, 0%, 0%)" stroke-opacity="1" stroke-miterlimit="10" d="M 195.648438 350.941406 C 195.648438 356.464844 191.171875 360.941406 185.648438 360.941406 C 180.125 360.941406 175.648438 356.464844 175.648438 350.941406 C 175.648438 345.417969 180.125 340.941406 185.648438 340.941406 C 191.171875 340.941406 195.648438 345.417969 195.648438 350.941406 "/>
<path fill-rule="nonzero" fill="rgb(100%, 0%, 0%)" fill-opacity="1" stroke-width="1" stroke-linecap="butt" stroke-linejoin="miter" stroke="rgb(0%, 0%, 0%)" stroke-opacity="1" stroke-miterlimit="10" d="M 173.941406 269.324219 C 173.941406 274.84375 169.464844 279.324219 163.941406 279.324219 C 158.417969 279.324219 153.941406 274.84375 153.941406 269.324219 C 153.941406 263.800781 158.417969 259.324219 163.941406 259.324219 C 169.464844 259.324219 173.941406 263.800781 173.941406 269.324219 "/>
<path fill-rule="nonzero" fill="rgb(100%, 0%, 0%)" fill-opacity="1" stroke-width="1" stroke-linecap="butt" stroke-linejoin="miter" stroke="rgb(0%, 0%, 0%)" stroke-opacity="1" stroke-miterlimit="10" d="M 238.753906 469.585938 C 238.753906 475.109375 234.273438 479.585938 228.753906 479.585938 C 223.230469 479.585938 218.753906 475.109375 218.753906 469.585938 C 218.753906 464.0625 223.230469 459.585938 228.753906 459.585938 C 234.273438 459.585938 238.753906 464.0625 238.753906 469.585938 "/>
<path fill-rule="nonzero" fill="rgb(100%, 0%, 0%)" fill-opacity="1" stroke-width="1" stroke-linecap="butt" stroke-linejoin="miter" stroke="rgb(0%, 0%, 0%)" stroke-opacity="1" stroke-miterlimit="10" d="M 285.242188 580 C 285.242188 585.523438 280.765625 590 275.242188 590 C 269.71875 590 265.242188 585.523438 265.242188 580 C 265.242188 574.476562 269.71875 570 275.242188 570 C 280.765625 570 285.242188 574.476562 285.242188 580 "/>
<path fill-rule="nonzero" fill="rgb(100%, 0%, 0%)" fill-opacity="1" stroke-width="1" stroke-linecap="butt" stroke-linejoin="miter" stroke="rgb(0%, 0%, 0%)" stroke-opacity="1" stroke-miterlimit="10" d="M 394.113281 452.34375 C 394.113281 457.867188 389.636719 462.34375 384.113281 462.34375 C 378.589844 462.34375 374.113281 457.867188 374.113281 452.34375 C 374.113281 446.820312 378.589844 442.34375 384.113281 442.34375 C 389.636719 442.34375 394.113281 446.820312 394.113281 452.34375 "/>
<path fill-rule="nonzero" fill="rgb(100%, 0%, 0%)" fill-opacity="1" stroke-width="1" stroke-linecap="butt" stroke-linejoin="miter" stroke="rgb(0%, 0%, 0%)" stroke-opacity="1" stroke-miterlimit="10" d="M 35.882812 224.65625 C 35.882812 230.179688 31.40625 234.65625 25.882812 234.65625 C 20.363281 234.65625 15.882812 230.179688 15.882812 224.65625 C 15.882812 219.132812 20.363281 214.65625 25.882812 214.65625 C 31.40625 214.65625 35.882812 219.132812 35.882812 224.65625 "/>
<path fill-rule="nonzero" fill="rgb(100%, 0%, 0%)" fill-opacity="1" stroke-width="1" stroke-linecap="butt" stroke-linejoin="miter" stroke="rgb(0%, 0%, 0%)" stroke-opacity="1" stroke-miterlimit="10" d="M 138.503906 526.652344 C 138.503906 532.175781 134.027344 536.652344 128.503906 536.652344 C 122.980469 536.652344 118.503906 532.175781 118.503906 526.652344 C 118.503906 521.128906 122.980469 516.652344 128.503906 516.652344 C 134.027344 516.652344 138.503906 521.128906 138.503906 526.652344 "/>
<path fill-rule="nonzero" fill="rgb(100%, 0%, 0%)" fill-opacity="1" stroke-width="1" stroke-linecap="butt" stroke-linejoin="miter" stroke="rgb(0%, 0%, 0%)" stroke-opacity="1" stroke-miterlimit="10" d="M 324.210938 197.753906 C 324.210938 203.273438 319.734375 207.753906 314.210938 207.753906 C 308.6875 207.753906 304.210938 203.273438 304.210938 197.753906 C 304.210938 192.230469 308.6875 187.753906 314.210938 187.753906 C 319.734375 187.753906 324.210938 192.230469 324.210938 197.753906 "/>
<path fill-rule="nonzero" fill="rgb(100%, 0%, 0%)" fill-opacity="1" stroke-width="1" stroke-linecap="butt" stroke-linejoin="miter" stroke="rgb(0%, 0%, 0%)" stroke-opacity="1" stroke-miterlimit="10" d="M 65.5 433.640625 C 65.5 439.164062 61.023438 443.640625 55.5 443.640625 C 49.976562 443.640625 45.5 439.164062 45.5 433.640625 C 45.5 428.117188 49.976562 423.640625 55.5 423.640625 C 61.023438 423.640625 65.5 428.117188 65.5 433.640625 "/>
<path fill-rule="nonzero" fill="rgb(100%, 0%, 0%)" fill-opacity="1" stroke-width="1" stroke-linecap="butt" stroke-linejoin="miter" stroke="rgb(0%, 0%, 0%)" stroke-opacity="1" stroke-miterlimit="10" d="M 227.355469 203.550781 C 227.355469 209.074219 222.878906 213.550781 217.355469 213.550781 C 211.832031 213.550781 207.355469 209.074219 207.355469 203.550781 C 207.355469 198.027344 211.832031 193.550781 217.355469 193.550781 C 222.878906 193.550781 227.355469 198.027344 227.355469 203.550781 "/>
<path fill-rule="nonzero" fill="rgb(100%, 0%, 0%)" fill-opacity="1" stroke-width="1" stroke-linecap="butt" stroke-linejoin="miter" stroke="rgb(0%, 0%, 0%)" stroke-opacity="1" stroke-miterlimit="10" d="M 570.015625 173.195312 C 570.015625 178.71875 565.535156 183.195312 560.015625 183.195312 C 554.492188 183.195312 550.015625 178.71875 550.015625 173.195312 C 550.015625 167.671875 554.492188 163.195312 560.015625 163.195312 C 565.535156 163.195312 570.015625 167.671875 570.015625 173.195312 "/>
<path fill-rule="nonzero" fill="rgb(100%, 0%, 0%)" fill-opacity="1" stroke-width="1" stroke-linecap="butt" stroke-linejoin="miter" stroke="rgb(0%, 0%, 0%)" stroke-opacity="1" stroke-miterlimit="10" d="M 380.941406 148.570312 C 380.941406 154.09375 376.464844 158.570312 370.941406 158.570312 C 365.417969 158.570312 360.941406 154.09375 360.941406 148.570312 C 360.941406 143.046875 365.417969 138.570312 370.941406 138.570312 C 376.464844 138.570312 380.941406 143.046875 380.941406 148.570312 "/>
<path fill-rule="nonzero" fill="rgb(100%, 0%, 0%)" fill-opacity="1" stroke-width="1" stroke-linecap="butt" stroke-linejoin="miter" stroke="rgb(0%, 0%, 0%)" stroke-opacity="1" stroke-miterlimit="10" d="M 163.316406 60.667969 C 163.316406 66.191406 158.839844 70.667969 153.316406 70.667969 C 147.792969 70.667969 143.316406 66.191406 143.316406 60.667969 C 143.316406 55.148438 147.792969 50.667969 153.316406 50.667969 C 158.839844 50.667969 163.316406 55.148438 163.316406 60.667969 "/>
<path fill-rule="nonzero" fill="rgb(100%, 0%, 0%)" fill-opacity="1" stroke-width="1" stroke-linecap="butt" stroke-linejoin="miter" stroke="rgb(0%, 0%, 0%)" stroke-opacity="1" stroke-miterlimit="10" d="M 30 331.828125 C 30 337.351562 25.523438 341.828125 20 341.828125 C 14.476562 341.828125 10 337.351562 10 331.828125 C 10 326.304688 14.476562 321.828125 20 321.828125 C 25.523438 321.828125 30 326.304688 30 331.828125 "/>
<path fill-rule="nonzero" fill="rgb(100%, 0%, 0%)" fill-opacity="1" stroke-width="1" stroke-linecap="butt" stroke-linejoin="miter" stroke="rgb(0%, 0%, 0%)" stroke-opacity="1" stroke-miterlimit="10" d="M 84.074219 129.902344 C 84.074219 135.425781 79.597656 139.902344 74.074219 139.902344 C 68.550781 139.902344 64.074219 135.425781 64.074219 129.902344 C 64.074219 124.378906 68.550781 119.902344 74.074219 119.902344 C 79.597656 119.902344 84.074219 124.378906 84.074219 129.902344 "/>
<path fill-rule="nonzero" fill="rgb(100%, 0%, 0%)" fill-opacity="1" stroke-width="1" stroke-linecap="butt" stroke-linejoin="miter" stroke="rgb(0%, 0%, 0%)" stroke-opacity="1" stroke-miterlimit="10" d="M 467.976562 414.339844 C 467.976562 419.863281 463.5 424.339844 457.976562 424.339844 C 452.453125 424.339844 447.976562 419.863281 447.976562 414.339844 C 447.976562 408.816406 452.453125 404.339844 457.976562 404.339844 C 463.5 404.339844 467.976562 408.816406 467.976562 414.339844 "/>
<path fill-rule="nonzero" fill="rgb(100%, 0%, 0%)" fill-opacity="1" stroke-width="1" stroke-linecap="butt" stroke-linejoin="miter" stroke="rgb(0%, 0%, 0%)" stroke-opacity="1" stroke-miterlimit="10" d="M 590 377.949219 C 590 383.472656 585.523438 387.949219 580 387.949219 C 574.476562 387.949219 570 383.472656 570 377.949219 C 570 372.425781 574.476562 367.949219 580 367.949219 C 585.523438 367.949219 590 372.425781 590 377.949219 "/>
<path fill-rule="nonzero" fill="rgb(100%, 0%, 0%)" fill-opacity="1" stroke-width="1" stroke-linecap="butt" stroke-linejoin="miter" stroke="rgb(0%, 0%, 0%)" stroke-opacity="1" stroke-miterlimit="10" d="M 390.648438 20 C 390.648438 25.523438 386.171875 30 380.648438 30 C 375.128906 30 370.648438 25.523438 370.648438 20 C 370.648438 14.476562 375.128906 10 380.648438 10 C 386.171875 10 390.648438 14.476562 390.648438 20 "/>
</svg>
