<?xml version="1.0" encoding="UTF-8"?>
<svg xmlns="http://www.w3.org/2000/svg" xmlns:xlink="http://www.w3.org/1999/xlink" width="600" height="600" viewBox="0 0 600 600">
<rect x="-60" y="-60" width="720" height="720" fill="rgb(100%, 100%, 100%)" fill-opacity="1"/>
<path fill="none" stroke-width="1" stroke-linecap="butt" stroke-linejoin="miter" stroke="rgb(26.666667%, 26.666667%, 26.666667%)" stroke-opacity="1" stroke-miterlimit="10" d="M 431.160156 233.753906 L 393.609375 303.246094 "/>
<path fill="none" stroke-width="1" stroke-linecap="butt" stroke-linejoin="miter" stroke="rgb(26.666667%, 26.666667%, 26.666667%)" stroke-opacity="1" stroke-miterlimit="10" d="M 431.160156 233.753906 L 469.261719 260.320312 "/>
<path fill="none" stroke-width="1" stroke-linecap="butt" stroke-linejoin="miter" stroke="rgb(26.666667%, 26.666667%, 26.666667%)" stroke-opacity="1" stroke-miterlimit="10" d="M 431.160156 233.753906 L 510.160156 330.164062 "/>
<path fill="none" stroke-width="1" stroke-linecap="butt" stroke-linejoin="miter" stroke="rgb(26.666667%, 26.666667%, 26.666667%)" stroke-opacity="1" stroke-miterlimit="10" d="M 431.160156 233.753906 L 333.285156 263.238281 "/>
<path fill="none" stroke-width="1" stroke-linecap="butt" stroke-linejoin="miter" stroke="rgb(26.666667%, 26.666667%, 26.666667%)" stroke-opacity="1" stroke-miterlimit="10" d="M 431.160156 233.753906 L 403.351562 150.617188 "/>
<path fill="none" stroke-width="1" stroke-linecap="butt" stroke-linejoin="miter" stroke="rgb(26.666667%, 26.666667%, 26.666667%)" stroke-opacity="1" stroke-miterlimit="10" d="M 431.160156 233.753906 L 489.804688 163.074219 "/>
<path fill="none" stroke-width="1" stroke-linecap="butt" stroke-linejoin="miter" stroke="rgb(26.666667%, 26.666667%, 26.666667%)" stroke-opacity="1" stroke-miterlimit="10" d="M 393.609375 303.246094 L 300.578125 357.789062 "/>
<path fill="none" stroke-width="1" stroke-linecap="butt" stroke-linejoin="miter" stroke="rgb(26.666667%, 26.666667%, 26.666667%)" stroke-opacity="1" stroke-miterlimit="10" d="M 393.609375 303.246094 L 469.261719 260.320312 "/>
<path fill="none" stroke-width="1" stroke-linecap="butt" stroke-linejoin="miter" stroke="rgb(26.666667%, 26.666667%, 26.666667%)" stroke-opacity="1" stroke-miterlimit="10" d="M 393.609375 303.246094 L 428.609375 364.03125 "/>
<path fill="none" stroke-width="1" stroke-linecap="butt" stroke-linejoin="miter" stroke="rgb(26.666667%, 26.666667%, 26.666667%)" stroke-opacity="1" stroke-miterlimit="10" d="M 300.578125 357.789062 L 333.285156 263.238281 "/>
<path fill="none" stroke-width="1" stroke-linecap="butt" stroke-linejoin="miter" stroke="rgb(26.666667%, 26.666667%, 26.666667%)" stroke-opacity="1" stroke-miterlimit="10" d="M 300.578125 357.789062 L 332.570312 433.648438 "/>
<path fill="none" stroke-width="1" stroke-linecap="butt" stroke-linejoin="miter" stroke="rgb(26.666667%, 26.666667%, 26.666667%)" stroke-opacity="1" stroke-miterlimit="10" d="M 300.578125 357.789062 L 276.992188 465.515625 "/>
<path fill="none" stroke-width="1" stroke-linecap="butt" stroke-linejoin="miter" stroke="rgb(26.666667%, 26.666667%, 26.666667%)" stroke-opacity="1" stroke-miterlimit="10" d="M 300.578125 357.789062 L 209.878906 344.480469 "/>
<path fill="none" stroke-width="1" stroke-linecap="butt" stroke-linejoin="miter" stroke="rgb(26.666667%, 26.666667%, 26.666667%)" stroke-opacity="1" stroke-miterlimit="10" d="M 510.160156 330.164062 L 498.914062 437.992188 "/>
<path fill="none" stroke-width="1" stroke-linecap="butt" stroke-linejoin="miter" stroke="rgb(26.666667%, 26.666667%, 26.666667%)" stroke-opacity="1" stroke-miterlimit="10" d="M 510.160156 330.164062 L 580 314.011719 "/>
<path fill="none" stroke-width="1" stroke-linecap="butt" stroke-linejoin="miter" stroke="rgb(26.666667%, 26.666667%, 26.666667%)" stroke-opacity="1" stroke-miterlimit="10" d="M 332.570312 433.648438 L 381.035156 495.699219 "/>
<path fill="none" stroke-width="1" stroke-linecap="butt" stroke-linejoin="miter" stroke="rgb(26.666667%, 26.666667%, 26.666667%)" stroke-opacity="1" stroke-miterlimit="10" d="M 498.914062 437.992188 L 433.554688 514.453125 "/>
<path fill="none" stroke-width="1" stroke-linecap="butt" stroke-linejoin="miter" stroke="rgb(26.666667%, 26.666667%, 26.666667%)" stroke-opacity="1" stroke-miterlimit="10" d="M 433.554688 514.453125 L 337.460938 538.722656 "/>
<path fill="none" stroke-width="1" stroke-linecap="butt" stroke-linejoin="miter" stroke="rgb(26.666667%, 26.666667%, 26.666667%)" stroke-opacity="1" stroke-miterlimit="10" d="M 433.554688 514.453125 L 381.035156 495.699219 "/>
<path fill="none" stroke-width="1" stroke-linecap="butt" stroke-linejoin="miter" stroke="rgb(26.666667%, 26.666667%, 26.666667%)" stroke-opacity="1" stroke-miterlimit="10" d="M 276.992188 465.515625 L 337.460938 538.722656 "/>
<path fill="none" stroke-width="1" stroke-linecap="butt" stroke-linejoin="miter" stroke="rgb(26.666667%, 26.666667%, 26.666667%)" stroke-opacity="1" stroke-miterlimit="10" d="M 141.535156 338.3125 L 209.878906 344.480469 "/>
<path fill-rule="nonzero" fill="rgb(100%, 0%, 0%)" fill-opacity="1" stroke-width="1" stroke-linecap="butt" stroke-linejoin="miter" stroke="rgb(0%, 0%, 0%)" stroke-opacity="1" stroke-miterlimit="10" d="M 441.160156 233.753906 C 441.160156 239.273438 436.683594 243.753906 431.160156 243.753906 C 425.636719 243.753906 421.160156 239.273438 421.160156 233.753906 C 421.160156 228.230469 425.636719 223.753906 431.160156 223.753906 C 436.683594 223.753906 441.160156 228.230469 441.160156 233.753906 "/>
<path fill-rule="nonzero" fill="rgb(100%, 0%, 0%)" fill-opacity="1" stroke-width="1" stroke-linecap="butt" stroke-linejoin="miter" stroke="rgb(0%, 0%, 0%)" stroke-opacity="1" stroke-miterlimit="10" d="M 403.609375 303.246094 C 403.609375 308.769531 399.132812 313.246094 393.609375 313.246094 C 388.085938 313.246094 383.609375 308.769531 383.609375 303.246094 C 383.609375 297.726562 388.085938 293.246094 393.609375 293.246094 C 399.132812 293.246094 403.609375 297.726562 403.609375 303.246094 "/>
<path fill-rule="nonzero" fill="rgb(100%, 0%, 0%)" fill-opacity="1" stroke-width="1" stroke-linecap="butt" stroke-linejoin="miter" stroke="rgb(0%, 0%, 0%)" stroke-opacity="1" stroke-miterlimit="10" d="M 310.578125 357.789062 C 310.578125 363.3125 306.101562 367.789062 300.578125 367.789062 C 295.054688 367.789062 290.578125 363.3125 290.578125 357.789062 C 290.578125 352.269531 295.054688 347.789062 300.578125 347.789062 C 306.101562 347.789062 310.578125 352.269531 310.578125 357.789062 "/>
<path fill-rule="nonzero" fill="rgb(100%, 0%, 0%)" fill-opacity="1" stroke-width="1" stroke-linecap="butt" stroke-linejoin="miter" stroke="rgb(0%, 0%, 0%)" stroke-opacity="1" stroke-miterlimit="10" d="M 479.261719 260.320312 C 479.261719 265.839844 474.785156 270.320312 469.261719 270.320312 C 463.738281 270.320312 459.261719 265.839844 459.261719 260.320312 C 459.261719 254.796875 463.738281 250.320312 469.261719 250.320312 C 474.785156 250.320312 479.261719 254.796875 479.261719 260.320312 "/>
<path fill-rule="nonzero" fill="rgb(100%, 0%, 0%)" fill-opacity="1" stroke-width="1" stroke-linecap="butt" stroke-linejoin="miter" stroke="rgb(0%, 0%, 0%)" stroke-opacity="1" stroke-miterlimit="10" d="M 520.160156 330.164062 C 520.160156 335.6875 515.683594 340.164062 510.160156 340.164062 C 504.636719 340.164062 500.160156 335.6875 500.160156 330.164062 C 500.160156 324.644531 504.636719 320.164062 510.160156 320.164062 C 515.683594 320.164062 520.160156 324.644531 520.160156 330.164062 "/>
<path fill-rule="nonzero" fill="rgb(100%, 0%, 0%)" fill-opacity="1" stroke-width="1" stroke-linecap="butt" stroke-linejoin="miter" stroke="rgb(0%, 0%, 0%)" stroke-opacity="1" stroke-miterlimit="10" d="M 343.285156 263.238281 C 343.285156 268.761719 338.808594 273.238281 333.285156 273.238281 C 327.761719 273.238281 323.285156 268.761719 323.285156 263.238281 C 323.285156 257.714844 327.761719 253.238281 333.285156 253.238281 C 338.808594 253.238281 343.285156 257.714844 343.285156 263.238281 "/>
<path fill-rule="nonzero" fill="rgb(100%, 0%, 0%)" fill-opacity="1" stroke-width="1" stroke-linecap="butt" stroke-linejoin="miter" stroke="rgb(0%, 0%, 0%)" stroke-opacity="1" stroke-miterlimit="10" d="M 150.011719 193.546875 C 150.011719 199.070312 145.535156 203.546875 140.011719 203.546875 C 134.488281 203.546875 130.011719 199.070312 130.011719 193.546875 C 130.011719 188.023438 134.488281 183.546875 140.011719 183.546875 C 145.535156 183.546875 150.011719 188.023438 150.011719 193.546875 "/>
<path fill-rule="nonzero" fill="rgb(100%, 0%, 0%)" fill-opacity="1" stroke-width="1" stroke-linecap="butt" stroke-linejoin="miter" stroke="rgb(0%, 0%, 0%)" stroke-opacity="1" stroke-miterlimit="10" d="M 61.296875 152.535156 C 61.296875 158.058594 56.820312 162.535156 51.296875 162.535156 C 45.773438 162.535156 41.296875 158.058594 41.296875 152.535156 C 41.296875 147.011719 45.773438 142.535156 51.296875 142.535156 C 56.820312 142.535156 61.296875 147.011719 61.296875 152.535156 "/>
<path fill-rule="nonzero" fill="rgb(100%, 0%, 0%)" fill-opacity="1" stroke-width="1" stroke-linecap="butt" stroke-linejoin="miter" stroke="rgb(0%, 0%, 0%)" stroke-opacity="1" stroke-miterlimit="10" d="M 342.570312 433.648438 C 342.570312 439.167969 338.09375 443.648438 332.570312 443.648438 C 327.046875 443.648438 322.570312 439.167969 322.570312 433.648438 C 322.570312 428.125 327.046875 423.648438 332.570312 423.648438 C 338.09375 423.648438 342.570312 428.125 342.570312 433.648438 "/>
<path fill-rule="nonzero" fill="rgb(100%, 0%, 0%)" fill-opacity="1" stroke-width="1" stroke-linecap="butt" stroke-linejoin="miter" stroke="rgb(0%, 0%, 0%)" stroke-opacity="1" stroke-miterlimit="10" d="M 508.914062 437.992188 C 508.914062 443.515625 504.4375 447.992188 498.914062 447.992188 C 493.390625 447.992188 488.914062 443.515625 488.914062 437.992188 C 488.914062 432.46875 493.390625 427.992188 498.914062 427.992188 C 504.4375 427.992188 508.914062 432.46875 508.914062 437.992188 "/>
<path fill-rule="nonzero" fill="rgb(100%, 0%, 0%)" fill-opacity="1" stroke-width="1" stroke-linecap="butt" stroke-linejoin="miter" stroke="rgb(0%, 0%, 0%)" stroke-opacity="1" stroke-miterlimit="10" d="M 443.554688 514.453125 C 443.554688 519.976562 439.078125 524.453125 433.554688 524.453125 C 428.03125 524.453125 423.554688 519.976562 423.554688 514.453125 C 423.554688 508.929688 428.03125 504.453125 433.554688 504.453125 C 439.078125 504.453125 443.554688 508.929688 443.554688 514.453125 "/>
<path fill-rule="nonzero" fill="rgb(100%, 0%, 0%)" fill-opacity="1" stroke-width="1" stroke-linecap="butt" stroke-linejoin="miter" stroke="rgb(0%, 0%, 0%)" stroke-opacity="1" stroke-miterlimit="10" d="M 590 314.011719 C 590 319.535156 585.523438 324.011719 580 324.011719 C 574.476562 324.011719 570 319.535156 570 314.011719 C 570 308.488281 574.476562 304.011719 580 304.011719 C 585.523438 304.011719 590 308.488281 590 314.011719 "/>
<path fill-rule="nonzero" fill="rgb(100%, 0%, 0%)" fill-opacity="1" stroke-width="1" stroke-linecap="butt" stroke-linejoin="miter" stroke="rgb(0%, 0%, 0%)" stroke-opacity="1" stroke-miterlimit="10" d="M 206.289062 580 C 206.289062 585.523438 201.8125 590 196.289062 590 C 190.769531 590 186.289062 585.523438 186.289062 580 C 186.289062 574.476562 190.769531 570 196.289062 570 C 201.8125 570 206.289062 574.476562 206.289062 580 "/>
<path fill-rule="nonzero" fill="rgb(100%, 0%, 0%)" fill-opacity="1" stroke-width="1" stroke-linecap="butt" stroke-linejoin="miter" stroke="rgb(0%, 0%, 0%)" stroke-opacity="1" stroke-miterlimit="10" d="M 413.351562 150.617188 C 413.351562 156.140625 408.875 160.617188 403.351562 160.617188 C 397.828125 160.617188 393.351562 156.140625 393.351562 150.617188 C 393.351562 145.09375 397.828125 140.617188 403.351562 140.617188 C 408.875 140.617188 413.351562 145.09375 413.351562 150.617188 "/>
<path fill-rule="nonzero" fill="rgb(100%, 0%, 0%)" fill-opacity="1" stroke-width="1" stroke-linecap="butt" stroke-linejoin="miter" stroke="rgb(0%, 0%, 0%)" stroke-opacity="1" stroke-miterlimit="10" d="M 330.941406 24.632812 C 330.941406 30.15625 326.464844 34.632812 320.941406 34.632812 C 315.417969 34.632812 310.941406 30.15625 310.941406 24.632812 C 310.941406 19.109375 315.417969 14.632812 320.941406 14.632812 C 326.464844 14.632812 330.941406 19.109375 330.941406 24.632812 "/>
<path fill-rule="nonzero" fill="rgb(100%, 0%, 0%)" fill-opacity="1" stroke-width="1" stroke-linecap="butt" stroke-linejoin="miter" stroke="rgb(0%, 0%, 0%)" stroke-opacity="1" stroke-miterlimit="10" d="M 136.914062 75.316406 C 136.914062 80.839844 132.433594 85.316406 126.914062 85.316406 C 121.390625 85.316406 116.914062 80.839844 116.914062 75.316406 C 116.914062 69.792969 121.390625 65.316406 126.914062 65.316406 C 132.433594 65.316406 136.914062 69.792969 136.914062 75.316406 "/>
<path fill-rule="nonzero" fill="rgb(100%, 0%, 0%)" fill-opacity="1" stroke-width="1" stroke-linecap="butt" stroke-linejoin="miter" stroke="rgb(0%, 0%, 0%)" stroke-opacity="1" stroke-miterlimit="10" d="M 286.992188 465.515625 C 286.992188 471.039062 282.511719 475.515625 276.992188 475.515625 C 271.46875 475.515625 266.992188 471.039062 266.992188 465.515625 C 266.992188 459.996094 271.46875 455.515625 276.992188 455.515625 C 282.511719 455.515625 286.992188 459.996094 286.992188 465.515625 "/>
<path fill-rule="nonzero" fill="rgb(100%, 0%, 0%)" fill-opacity="1" stroke-width="1" stroke-linecap="butt" stroke-linejoin="miter" stroke="rgb(0%, 0%, 0%)" stroke-opacity="1" stroke-miterlimit="10" d="M 230.179688 20 C 230.179688 25.523438 225.703125 30 220.179688 30 C 214.65625 30 210.179688 25.523438 210.179688 20 C 210.179688 14.476562 214.65625 10 220.179688 10 C 225.703125 10 230.179688 14.476562 230.179688 20 "/>
<path fill-rule="nonzero" fill="rgb(100%, 0%, 0%)" fill-opacity="1" stroke-width="1" stroke-linecap="butt" stroke-linejoin="miter" stroke="rgb(0%, 0%, 0%)" stroke-opacity="1" stroke-miterlimit="10" d="M 347.460938 538.722656 C 347.460938 544.246094 342.984375 548.722656 337.460938 548.722656 C 331.9375 548.722656 327.460938 544.246094 327.460938 538.722656 C 327.460938 533.199219 331.9375 528.722656 337.460938 528.722656 C 342.984375 528.722656 347.460938 533.199219 347.460938 538.722656 "/>
<path fill-rule="nonzero" fill="rgb(100%, 0%, 0%)" fill-opacity="1" stroke-width="1" stroke-linecap="butt" stroke-linejoin="miter" stroke="rgb(0%, 0%, 0%)" stroke-opacity="1" stroke-miterlimit="10" d="M 391.035156 495.699219 C 391.035156 501.222656 386.558594 505.699219 381.035156 505.699219 C 375.515625 505.699219 371.035156 501.222656 371.035156 495.699219 C 371.035156 490.175781 375.515625 485.699219 381.035156 485.699219 C 386.558594 485.699219 391.035156 490.175781 391.035156 495.699219 "/>
<path fill-rule="nonzero" fill="rgb(100%, 0%, 0%)" fill-opacity="1" stroke-width="1" stroke-linecap="butt" stroke-linejoin="miter" stroke="rgb(0%, 0%, 0%)" stroke-opacity="1" stroke-miterlimit="10" d="M 438.609375 364.03125 C 438.609375 369.554688 434.132812 374.03125 428.609375 374.03125 C 423.085938 374.03125 418.609375 369.554688 418.609375 364.03125 C 418.609375 358.507812 423.085938 354.03125 428.609375 354.03125 C 434.132812 354.03125 438.609375 358.507812 438.609375 364.03125 "/>
<path fill-rule="nonzero" fill="rgb(100%, 0%, 0%)" fill-opacity="1" stroke-width="1" stroke-linecap="butt" stroke-linejoin="miter" stroke="rgb(0%, 0%, 0%)" stroke-opacity="1" stroke-miterlimit="10" d="M 125.976562 512.964844 C 125.976562 518.484375 121.5 522.964844 115.976562 522.964844 C 110.453125 522.964844 105.976562 518.484375 105.976562 512.964844 C 105.976562 507.441406 110.453125 502.964844 115.976562 502.964844 C 121.5 502.964844 125.976562 507.441406 125.976562 512.964844 "/>
<path fill-rule="nonzero" fill="rgb(100%, 0%, 0%)" fill-opacity="1" stroke-width="1" stroke-linecap="butt" stroke-linejoin="miter" stroke="rgb(0%, 0%, 0%)" stroke-opacity="1" stroke-miterlimit="10" d="M 64.828125 440.820312 C 64.828125 446.34375 60.347656 450.820312 54.828125 450.820312 C 49.304688 450.820312 44.828125 446.34375 44.828125 440.820312 C 44.828125 435.296875 49.304688 430.820312 54.828125 430.820312 C 60.347656 430.820312 64.828125 435.296875 64.828125 440.820312 "/>
<path fill-rule="nonzero" fill="rgb(100%, 0%, 0%)" fill-opacity="1" stroke-width="1" stroke-linecap="butt" stroke-linejoin="miter" stroke="rgb(0%, 0%, 0%)" stroke-opacity="1" stroke-miterlimit="10" d="M 435.960938 34.066406 C 435.960938 39.585938 431.480469 44.066406 425.960938 44.066406 C 420.4375 44.066406 415.960938 39.585938 415.960938 34.066406 C 415.960938 28.542969 420.4375 24.066406 425.960938 24.066406 C 431.480469 24.066406 435.960938 28.542969 435.960938 34.066406 "/>
<path fill-rule="nonzero" fill="rgb(100%, 0%, 0%)" fill-opacity="1" stroke-width="1" stroke-linecap="butt" stroke-linejoin="miter" stroke="rgb(0%, 0%, 0%)" stroke-opacity="1" stroke-miterlimit="10" d="M 499.804688 163.074219 C 499.804688 168.597656 495.328125 173.074219 489.804688 173.074219 C 484.28125 173.074219 479.804688 168.597656 479.804688 163.074219 C 479.804688 157.550781 484.28125 153.074219 489.804688 153.074219 C 495.328125 153.074219 499.804688 157.550781 499.804688 163.074219 "/>
<path fill-rule="nonzero" fill="rgb(100%, 0%, 0%)" fill-opacity="1" stroke-width="1" stroke-linecap="butt" stroke-linejoin="miter" stroke="rgb(0%, 0%, 0%)" stroke-opacity="1" stroke-miterlimit="10" d="M 244.4375 117.5 C 244.4375 123.023438 239.960938 127.5 234.4375 127.5 C 228.914062 127.5 224.4375 123.023438 224.4375 117.5 C 224.4375 111.976562 228.914062 107.5 234.4375 107.5 C 239.960938 107.5 244.4375 111.976562 244.4375 117.5 "/>
<path fill-rule="nonzero" fill="rgb(100%, 0%, 0%)" fill-opacity="1" stroke-width="1" stroke-linecap="butt" stroke-linejoin="miter" stroke="rgb(0%, 0%, 0%)" stroke-opacity="1" stroke-miterlimit="10" d="M 39.042969 251.742188 C 39.042969 257.265625 34.566406 261.742188 29.042969 261.742188 C 23.523438 261.742188 19.042969 257.265625 19.042969 251.742188 C 19.042969 246.21875 23.523438 241.742188 29.042969 241.742188 C 34.566406 241.742188 39.042969 246.21875 39.042969 251.742188 "/>
<path fill-rule="nonzero" fill="rgb(100%, 0%, 0%)" fill-opacity="1" stroke-width="1" stroke-linecap="butt" stroke-linejoin="miter" stroke="rgb(0%, 0%, 0%)" stroke-opacity="1" stroke-miterlimit="10" d="M 151.535156 338.3125 C 151.535156 343.832031 147.058594 348.3125 141.535156 348.3125 C 136.011719 348.3125 131.535156 343.832031 131.535156 338.3125 C 131.535156 332.789062 136.011719 328.3125 141.535156 328.3125 C 147.058594 328.3125 151.535156 332.789062 151.535156 338.3125 "/>
<path fill-rule="nonzero" fill="rgb(100%, 0%, 0%)" fill-opacity="1" stroke-width="1" stroke-linecap="butt" stroke-linejoin="miter" stroke="rgb(0%, 0%, 0%)" stroke-opacity="1" stroke-miterlimit="10" d="M 219.878906 344.480469 C 219.878906 350.003906 215.402344 354.480469 209.878906 354.480469 C 204.355469 354.480469 199.878906 350.003906 199.878906 344.480469 C 199.878906 338.960938 204.355469 334.480469 209.878906 334.480469 C 215.402344 334.480469 219.878906 338.960938 219.878906 344.480469 "/>
<path fill-rule="nonzero" fill="rgb(100%, 0%, 0%)" fill-opacity="1" stroke-width="1" stroke-linecap="butt" stroke-linejoin="miter" stroke="rgb(0%, 0%, 0%)" stroke-opacity="1" stroke-miterlimit="10" d="M 30 347.757812 C 30 353.28125 25.523438 357.757812 20 357.757812 C 14.476562 357.757812 10 353.28125 10 347.757812 C 10 342.234375 14.476562 337.757812 20 337.757812 C 25.523438 337.757812 30 342.234375 30 347.757812 "/>
</svg>
