<?xml version="1.0" encoding="UTF-8"?>
<svg xmlns="http://www.w3.org/2000/svg" xmlns:xlink="http://www.w3.org/1999/xlink" width="600" height="600" viewBox="0 0 600 600">
<rect x="-60" y="-60" width="720" height="720" fill="rgb(100%, 100%, 100%)" fill-opacity="1"/>
<path fill="none" stroke-width="1" stroke-linecap="butt" stroke-linejoin="miter" stroke="rgb(26.666667%, 26.666667%, 26.666667%)" stroke-opacity="1" stroke-miterlimit="10" d="M 388.242188 580 L 381.871094 300.59375 "/>
<path fill="none" stroke-width="1" stroke-linecap="butt" stroke-linejoin="miter" stroke="rgb(26.666667%, 26.666667%, 26.666667%)" stroke-opacity="1" stroke-miterlimit="10" d="M 381.871094 300.59375 L 196.621094 156.949219 "/>
<path fill="none" stroke-width="1" stroke-linecap="butt" stroke-linejoin="miter" stroke="rgb(26.666667%, 26.666667%, 26.666667%)" stroke-opacity="1" stroke-miterlimit="10" d="M 381.871094 300.59375 L 580 179.761719 "/>
<path fill="none" stroke-width="1" stroke-linecap="butt" stroke-linejoin="miter" stroke="rgb(26.666667%, 26.666667%, 26.666667%)" stroke-opacity="1" stroke-miterlimit="10" d="M 196.621094 156.949219 L 20 20 "/>
<path fill-rule="nonzero" fill="rgb(100%, 0%, 0%)" fill-opacity="1" stroke-width="1" stroke-linecap="butt" stroke-linejoin="miter" stroke="rgb(0%, 0%, 0%)" stroke-opacity="1" stroke-miterlimit="10" d="M 398.242188 580 C 398.242188 585.523438 393.765625 590 388.242188 590 C 382.71875 590 378.242188 585.523438 378.242188 580 C 378.242188 574.476562 382.71875 570 388.242188 570 C 393.765625 570 398.242188 574.476562 398.242188 580 "/>
<path fill-rule="nonzero" fill="rgb(100%, 0%, 0%)" fill-opacity="1" stroke-width="1" stroke-linecap="butt" stroke-linejoin="miter" stroke="rgb(0%, 0%, 0%)" stroke-opacity="1" stroke-miterlimit="10" d="M 391.871094 300.59375 C 391.871094 306.117188 387.394531 310.59375 381.871094 310.59375 C 376.347656 310.59375 371.871094 306.117188 371.871094 300.59375 C 371.871094 295.074219 376.347656 290.59375 381.871094 290.59375 C 387.394531 290.59375 391.871094 295.074219 391.871094 300.59375 "/>
<path fill-rule="nonzero" fill="rgb(100%, 0%, 0%)" fill-opacity="1" stroke-width="1" stroke-linecap="butt" stroke-linejoin="miter" stroke="rgb(0%, 0%, 0%)" stroke-opacity="1" stroke-miterlimit="10" d="M 206.621094 156.949219 C 206.621094 162.472656 202.140625 166.949219 196.621094 166.949219 C 191.097656 166.949219 186.621094 162.472656 186.621094 156.949219 C 186.621094 151.429688 191.097656 146.949219 196.621094 146.949219 C 202.140625 146.949219 206.621094 151.429688 206.621094 156.949219 "/>
<path fill-rule="nonzero" fill="rgb(100%, 0%, 0%)" fill-opacity="1" stroke-width="1" stroke-linecap="butt" stroke-linejoin="miter" stroke="rgb(0%, 0%, 0%)" stroke-opacity="1" stroke-miterlimit="10" d="M 590 179.761719 C 590 185.28125 585.523438 189.761719 580 189.761719 C 574.476562 189.761719 570 185.28125 570 179.761719 C 570 174.238281 574.476562 169.761719 580 169.761719 C 585.523438 169.761719 590 174.238281 590 179.761719 "/>
<path fill-rule="nonzero" fill="rgb(100%, 0%, 0%)" fill-opacity="1" stroke-width="1" stroke-linecap="butt" stroke-linejoin="miter" stroke="rgb(0%, 0%, 0%)" stroke-opacity="1" stroke-miterlimit="10" d="M 30 20 C 30 25.523438 25.523438 30 20 30 C 14.476562 30 10 25.523438 10 20 C 10 14.476562 14.476562 10 20 10 C 25.523438 10 30 14.476562 30 20 "/>
</svg>
