<?xml version="1.0" encoding="UTF-8"?>
<svg xmlns="http://www.w3.org/2000/svg" xmlns:xlink="http://www.w3.org/1999/xlink" width="600" height="600" viewBox="0 0 600 600">
<rect x="-60" y="-60" width="720" height="720" fill="rgb(100%, 100%, 100%)" fill-opacity="1"/>
<path fill="none" stroke-width="1" stroke-linecap="butt" stroke-linejoin="miter" stroke="rgb(26.666667%, 26.666667%, 26.666667%)" stroke-opacity="1" stroke-miterlimit="10" d="M 535.902344 580 L 516.65625 393.382812 "/>
<path fill="none" stroke-width="1" stroke-linecap="butt" stroke-linejoin="miter" stroke="rgb(26.666667%, 26.666667%, 26.666667%)" stroke-opacity="1" stroke-miterlimit="10" d="M 535.902344 580 L 342.863281 528.996094 "/>
<path fill="none" stroke-width="1" stroke-linecap="butt" stroke-linejoin="miter" stroke="rgb(26.666667%, 26.666667%, 26.666667%)" stroke-opacity="1" stroke-miterlimit="10" d="M 516.65625 393.382812 L 580 186.292969 "/>
<path fill="none" stroke-width="1" stroke-linecap="butt" stroke-linejoin="miter" stroke="rgb(26.666667%, 26.666667%, 26.666667%)" stroke-opacity="1" stroke-miterlimit="10" d="M 516.65625 393.382812 L 342.863281 528.996094 "/>
<path fill="none" stroke-width="1" stroke-linecap="butt" stroke-linejoin="miter" stroke="rgb(26.666667%, 26.666667%, 26.666667%)" stroke-opacity="1" stroke-miterlimit="10" d="M 580 186.292969 L 476.257812 20 "/>
<path fill-rule="nonzero" fill="rgb(100%, 0%, 0%)" fill-opacity="1" stroke-width="1" stroke-linecap="butt" stroke-linejoin="miter" stroke="rgb(0%, 0%, 0%)" stroke-opacity="1" stroke-miterlimit="10" d="M 545.902344 580 C 545.902344 585.523438 541.425781 590 535.902344 590 C 530.378906 590 525.902344 585.523438 525.902344 580 C 525.902344 574.476562 530.378906 570 535.902344 570 C 541.425781 570 545.902344 574.476562 545.902344 580 "/>
<path fill-rule="nonzero" fill="rgb(100%, 0%, 0%)" fill-opacity="1" stroke-width="1" stroke-linecap="butt" stroke-linejoin="miter" stroke="rgb(0%, 0%, 0%)" stroke-opacity="1" stroke-miterlimit="10" d="M 526.65625 393.382812 C 526.65625 398.90625 522.179688 403.382812 516.65625 403.382812 C 511.132812 403.382812 506.65625 398.90625 506.65625 393.382812 C 506.65625 387.859375 511.132812 383.382812 516.65625 383.382812 C 522.179688 383.382812 526.65625 387.859375 526.65625 393.382812 "/>
<path fill-rule="nonzero" fill="rgb(100%, 0%, 0%)" fill-opacity="1" stroke-width="1" stroke-linecap="butt" stroke-linejoin="miter" stroke="rgb(0%, 0%, 0%)" stroke-opacity="1" stroke-miterlimit="10" d="M 590 186.292969 C 590 191.816406 585.523438 196.292969 580 196.292969 C 574.476562 196.292969 570 191.816406 570 186.292969 C 570 180.769531 574.476562 176.292969 580 176.292969 C 585.523438 176.292969 590 180.769531 590 186.292969 "/>
<path fill-rule="nonzero" fill="rgb(100%, 0%, 0%)" fill-opacity="1" stroke-width="1" stroke-linecap="butt" stroke-linejoin="miter" stroke="rgb(0%, 0%, 0%)" stroke-opacity="1" stroke-miterlimit="10" d="M 352.863281 528.996094 C 352.863281 534.519531 348.386719 538.996094 342.863281 538.996094 C 337.339844 538.996094 332.863281 534.519531 332.863281 528.996094 C 332.863281 523.472656 337.339844 518.996094 342.863281 518.996094 C 348.386719 518.996094 352.863281 523.472656 352.863281 528.996094 "/>
<path fill-rule="nonzero" fill="rgb(100%, 0%, 0%)" fill-opacity="1" stroke-width="1" stroke-linecap="butt" stroke-linejoin="miter" stroke="rgb(0%, 0%, 0%)" stroke-opacity="1" stroke-miterlimit="10" d="M 486.257812 20 C 486.257812 25.523438 481.777344 30 476.257812 30 C 470.734375 30 466.257812 25.523438 466.257812 20 C 466.257812 14.476562 470.734375 10 476.257812 10 C 481.777344 10 486.257812 14.476562 486.257812 20 "/>
<path fill-rule="nonzero" fill="rgb(100%, 0%, 0%)" fill-opacity="1" stroke-width="1" stroke-linecap="butt" stroke-linejoin="miter" stroke="rgb(0%, 0%, 0%)" stroke-opacity="1" stroke-miterlimit="10" d="M 30 242.699219 C 30 248.222656 25.523438 252.699219 20 252.699219 C 14.476562 252.699219 10 248.222656 10 242.699219 C 10 237.175781 14.476562 232.699219 20 232.699219 C 25.523438 232.699219 30 237.175781 30 242.699219 "/>
</svg>
