<?xml version="1.0" encoding="UTF-8"?>
<svg xmlns="http://www.w3.org/2000/svg" xmlns:xlink="http://www.w3.org/1999/xlink" width="600" height="600" viewBox="0 0 600 600">
<rect x="-60" y="-60" width="720" height="720" fill="rgb(100%, 100%, 100%)" fill-opacity="1"/>
<path fill="none" stroke-width="1" stroke-linecap="butt" stroke-linejoin="miter" stroke="rgb(26.666667%, 26.666667%, 26.666667%)" stroke-opacity="1" stroke-miterlimit="10" d="M 179.621094 305.34375 L 256.101562 482.53125 "/>
<path fill="none" stroke-width="1" stroke-linecap="butt" stroke-linejoin="miter" stroke="rgb(26.666667%, 26.666667%, 26.666667%)" stroke-opacity="1" stroke-miterlimit="10" d="M 179.621094 305.34375 L 350.945312 325.351562 "/>
<path fill="none" stroke-width="1" stroke-linecap="butt" stroke-linejoin="miter" stroke="rgb(26.666667%, 26.666667%, 26.666667%)" stroke-opacity="1" stroke-miterlimit="10" d="M 179.621094 305.34375 L 20 397.625 "/>
<path fill="none" stroke-width="1" stroke-linecap="butt" stroke-linejoin="miter" stroke="rgb(26.666667%, 26.666667%, 26.666667%)" stroke-opacity="1" stroke-miterlimit="10" d="M 256.101562 482.53125 L 99.546875 580 "/>
<path fill="none" stroke-width="1" stroke-linecap="butt" stroke-linejoin="miter" stroke="rgb(26.666667%, 26.666667%, 26.666667%)" stroke-opacity="1" stroke-miterlimit="10" d="M 256.101562 482.53125 L 350.945312 325.351562 "/>
<path fill="none" stroke-width="1" stroke-linecap="butt" stroke-linejoin="miter" stroke="rgb(26.666667%, 26.666667%, 26.666667%)" stroke-opacity="1" stroke-miterlimit="10" d="M 99.546875 580 L 20 397.625 "/>
<path fill-rule="nonzero" fill="rgb(100%, 0%, 0%)" fill-opacity="1" stroke-width="1" stroke-linecap="butt" stroke-linejoin="miter" stroke="rgb(0%, 0%, 0%)" stroke-opacity="1" stroke-miterlimit="10" d="M 189.621094 305.34375 C 189.621094 310.867188 185.144531 315.34375 179.621094 315.34375 C 174.097656 315.34375 169.621094 310.867188 169.621094 305.34375 C 169.621094 299.820312 174.097656 295.34375 179.621094 295.34375 C 185.144531 295.34375 189.621094 299.820312 189.621094 305.34375 "/>
<path fill-rule="nonzero" fill="rgb(100%, 0%, 0%)" fill-opacity="1" stroke-width="1" stroke-linecap="butt" stroke-linejoin="miter" stroke="rgb(0%, 0%, 0%)" stroke-opacity="1" stroke-miterlimit="10" d="M 266.101562 482.53125 C 266.101562 488.054688 261.621094 492.53125 256.101562 492.53125 C 250.578125 492.53125 246.101562 488.054688 246.101562 482.53125 C 246.101562 477.007812 250.578125 472.53125 256.101562 472.53125 C 261.621094 472.53125 266.101562 477.007812 266.101562 482.53125 "/>
<path fill-rule="nonzero" fill="rgb(100%, 0%, 0%)" fill-opacity="1" stroke-width="1" stroke-linecap="butt" stroke-linejoin="miter" stroke="rgb(0%, 0%, 0%)" stroke-opacity="1" stroke-miterlimit="10" d="M 109.546875 580 C 109.546875 585.523438 105.070312 590 99.546875 590 C 94.023438 590 89.546875 585.523438 89.546875 580 C 89.546875 574.476562 94.023438 570 99.546875 570 C 105.070312 570 109.546875 574.476562 109.546875 580 "/>
<path fill-rule="nonzero" fill="rgb(100%, 0%, 0%)" fill-opacity="1" stroke-width="1" stroke-linecap="butt" stroke-linejoin="miter" stroke="rgb(0%, 0%, 0%)" stroke-opacity="1" stroke-miterlimit="10" d="M 360.945312 325.351562 C 360.945312 330.875 356.46875 335.351562 350.945312 335.351562 C 345.421875 335.351562 340.945312 330.875 340.945312 325.351562 C 340.945312 319.828125 345.421875 315.351562 350.945312 315.351562 C 356.46875 315.351562 360.945312 319.828125 360.945312 325.351562 "/>
<path fill-rule="nonzero" fill="rgb(100%, 0%, 0%)" fill-opacity="1" stroke-width="1" stroke-linecap="butt" stroke-linejoin="miter" stroke="rgb(0%, 0%, 0%)" stroke-opacity="1" stroke-miterlimit="10" d="M 30 397.625 C 30 403.148438 25.523438 407.625 20 407.625 C 14.476562 407.625 10 403.148438 10 397.625 C 10 392.101562 14.476562 387.625 20 387.625 C 25.523438 387.625 30 392.101562 30 397.625 "/>
<path fill-rule="nonzero" fill="rgb(100%, 0%, 0%)" fill-opacity="1" stroke-width="1" stroke-linecap="butt" stroke-linejoin="miter" stroke="rgb(0%, 0%, 0%)" stroke-opacity="1" stroke-miterlimit="10" d="M 590 576.414062 C 590 581.9375 585.523438 586.414062 580 586.414062 C 574.476562 586.414062 570 581.9375 570 576.414062 C 570 570.890625 574.476562 566.414062 580 566.414062 C 585.523438 566.414062 590 570.890625 590 576.414062 "/>
<path fill-rule="nonzero" fill="rgb(100%, 0%, 0%)" fill-opacity="1" stroke-width="1" stroke-linecap="butt" stroke-linejoin="miter" stroke="rgb(0%, 0%, 0%)" stroke-opacity="1" stroke-miterlimit="10" d="M 427.429688 20 C 427.429688 25.523438 422.953125 30 417.429688 30 C 411.90625 30 407.429688 25.523438 407.429688 20 C 407.429688 14.476562 411.90625 10 417.429688 10 C 422.953125 10 427.429688 14.476562 427.429688 20 "/>
</svg>
