<?xml version="1.0" encoding="UTF-8"?>
<svg xmlns="http://www.w3.org/2000/svg" xmlns:xlink="http://www.w3.org/1999/xlink" width="600" height="600" viewBox="0 0 600 600">
<rect x="-60" y="-60" width="720" height="720" fill="rgb(100%, 100%, 100%)" fill-opacity="1"/>
<path fill="none" stroke-width="1" stroke-linecap="butt" stroke-linejoin="miter" stroke="rgb(26.666667%, 26.666667%, 26.666667%)" stroke-opacity="1" stroke-miterlimit="10" d="M 513.691406 125.015625 L 421.285156 244.277344 "/>
<path fill="none" stroke-width="1" stroke-linecap="butt" stroke-linejoin="miter" stroke="rgb(26.666667%, 26.666667%, 26.666667%)" stroke-opacity="1" stroke-miterlimit="10" d="M 513.691406 125.015625 L 580 270.175781 "/>
<path fill="none" stroke-width="1" stroke-linecap="butt" stroke-linejoin="miter" stroke="rgb(26.666667%, 26.666667%, 26.666667%)" stroke-opacity="1" stroke-miterlimit="10" d="M 513.691406 125.015625 L 373.089844 20 "/>
<path fill="none" stroke-width="1" stroke-linecap="butt" stroke-linejoin="miter" stroke="rgb(26.666667%, 26.666667%, 26.666667%)" stroke-opacity="1" stroke-miterlimit="10" d="M 421.285156 244.277344 L 276.601562 141.238281 "/>
<path fill="none" stroke-width="1" stroke-linecap="butt" stroke-linejoin="miter" stroke="rgb(26.666667%, 26.666667%, 26.666667%)" stroke-opacity="1" stroke-miterlimit="10" d="M 421.285156 244.277344 L 580 270.175781 "/>
<path fill="none" stroke-width="1" stroke-linecap="butt" stroke-linejoin="miter" stroke="rgb(26.666667%, 26.666667%, 26.666667%)" stroke-opacity="1" stroke-miterlimit="10" d="M 276.601562 141.238281 L 373.089844 20 "/>
<path fill-rule="nonzero" fill="rgb(100%, 0%, 0%)" fill-opacity="1" stroke-width="1" stroke-linecap="butt" stroke-linejoin="miter" stroke="rgb(0%, 0%, 0%)" stroke-opacity="1" stroke-miterlimit="10" d="M 523.691406 125.015625 C 523.691406 130.535156 519.214844 135.015625 513.691406 135.015625 C 508.167969 135.015625 503.691406 130.535156 503.691406 125.015625 C 503.691406 119.492188 508.167969 115.015625 513.691406 115.015625 C 519.214844 115.015625 523.691406 119.492188 523.691406 125.015625 "/>
<path fill-rule="nonzero" fill="rgb(100%, 0%, 0%)" fill-opacity="1" stroke-width="1" stroke-linecap="butt" stroke-linejoin="miter" stroke="rgb(0%, 0%, 0%)" stroke-opacity="1" stroke-miterlimit="10" d="M 431.285156 244.277344 C 431.285156 249.800781 426.808594 254.277344 421.285156 254.277344 C 415.761719 254.277344 411.285156 249.800781 411.285156 244.277344 C 411.285156 238.753906 415.761719 234.277344 421.285156 234.277344 C 426.808594 234.277344 431.285156 238.753906 431.285156 244.277344 "/>
<path fill-rule="nonzero" fill="rgb(100%, 0%, 0%)" fill-opacity="1" stroke-width="1" stroke-linecap="butt" stroke-linejoin="miter" stroke="rgb(0%, 0%, 0%)" stroke-opacity="1" stroke-miterlimit="10" d="M 286.601562 141.238281 C 286.601562 146.757812 282.125 151.238281 276.601562 151.238281 C 271.078125 151.238281 266.601562 146.757812 266.601562 141.238281 C 266.601562 135.714844 271.078125 131.238281 276.601562 131.238281 C 282.125 131.238281 286.601562 135.714844 286.601562 141.238281 "/>
<path fill-rule="nonzero" fill="rgb(100%, 0%, 0%)" fill-opacity="1" stroke-width="1" stroke-linecap="butt" stroke-linejoin="miter" stroke="rgb(0%, 0%, 0%)" stroke-opacity="1" stroke-miterlimit="10" d="M 590 270.175781 C 590 275.695312 585.523438 280.175781 580 280.175781 C 574.476562 280.175781 570 275.695312 570 270.175781 C 570 264.652344 574.476562 260.175781 580 260.175781 C 585.523438 260.175781 590 264.652344 590 270.175781 "/>
<path fill-rule="nonzero" fill="rgb(100%, 0%, 0%)" fill-opacity="1" stroke-width="1" stroke-linecap="butt" stroke-linejoin="miter" stroke="rgb(0%, 0%, 0%)" stroke-opacity="1" stroke-miterlimit="10" d="M 383.089844 20 C 383.089844 25.523438 378.609375 30 373.089844 30 C 367.566406 30 363.089844 25.523438 363.089844 20 C 363.089844 14.476562 367.566406 10 373.089844 10 C 378.609375 10 383.089844 14.476562 383.089844 20 "/>
<path fill-rule="nonzero" fill="rgb(100%, 0%, 0%)" fill-opacity="1" stroke-width="1" stroke-linecap="butt" stroke-linejoin="miter" stroke="rgb(0%, 0%, 0%)" stroke-opacity="1" stroke-miterlimit="10" d="M 478.433594 580 C 478.433594 585.523438 473.957031 590 468.433594 590 C 462.910156 590 458.433594 585.523438 458.433594 580 C 458.433594 574.476562 462.910156 570 468.433594 570 C 473.957031 570 478.433594 574.476562 478.433594 580 "/>
<path fill-rule="nonzero" fill="rgb(100%, 0%, 0%)" fill-opacity="1" stroke-width="1" stroke-linecap="butt" stroke-linejoin="miter" stroke="rgb(0%, 0%, 0%)" stroke-opacity="1" stroke-miterlimit="10" d="M 30 265.726562 C 30 271.25 25.523438 275.726562 20 275.726562 C 14.476562 275.726562 10 271.25 10 265.726562 C 10 260.203125 14.476562 255.726562 20 255.726562 C 25.523438 255.726562 30 260.203125 30 265.726562 "/>
<path fill-rule="nonzero" fill="rgb(100%, 0%, 0%)" fill-opacity="1" stroke-width="1" stroke-linecap="butt" stroke-linejoin="miter" stroke="rgb(0%, 0%, 0%)" stroke-opacity="1" stroke-miterlimit="10" d="M 182.695312 528.582031 C 182.695312 534.105469 178.21875 538.582031 172.695312 538.582031 C 167.171875 538.582031 162.695312 534.105469 162.695312 528.582031 C 162.695312 523.058594 167.171875 518.582031 172.695312 518.582031 C 178.21875 518.582031 182.695312 523.058594 182.695312 528.582031 "/>
</svg>
