<?xml version="1.0" encoding="UTF-8"?>
<svg xmlns="http://www.w3.org/2000/svg" xmlns:xlink="http://www.w3.org/1999/xlink" width="600" height="600" viewBox="0 0 600 600">
<rect x="-60" y="-60" width="720" height="720" fill="rgb(100%, 100%, 100%)" fill-opacity="1"/>
<path fill="none" stroke-width="1" stroke-linecap="butt" stroke-linejoin="miter" stroke="rgb(26.666667%, 26.666667%, 26.666667%)" stroke-opacity="1" stroke-miterlimit="10" d="M 297.234375 440.203125 L 342.484375 580 "/>
<path fill="none" stroke-width="1" stroke-linecap="butt" stroke-linejoin="miter" stroke="rgb(26.666667%, 26.666667%, 26.666667%)" stroke-opacity="1" stroke-miterlimit="10" d="M 297.234375 440.203125 L 205.3125 554.945312 "/>
<path fill="none" stroke-width="1" stroke-linecap="butt" stroke-linejoin="miter" stroke="rgb(26.666667%, 26.666667%, 26.666667%)" stroke-opacity="1" stroke-miterlimit="10" d="M 297.234375 440.203125 L 439.753906 383.304688 "/>
<path fill="none" stroke-width="1" stroke-linecap="butt" stroke-linejoin="miter" stroke="rgb(26.666667%, 26.666667%, 26.666667%)" stroke-opacity="1" stroke-miterlimit="10" d="M 342.484375 580 L 486.878906 527.117188 "/>
<path fill="none" stroke-width="1" stroke-linecap="butt" stroke-linejoin="miter" stroke="rgb(26.666667%, 26.666667%, 26.666667%)" stroke-opacity="1" stroke-miterlimit="10" d="M 342.484375 580 L 205.3125 554.945312 "/>
<path fill="none" stroke-width="1" stroke-linecap="butt" stroke-linejoin="miter" stroke="rgb(26.666667%, 26.666667%, 26.666667%)" stroke-opacity="1" stroke-miterlimit="10" d="M 486.878906 527.117188 L 439.753906 383.304688 "/>
<path fill-rule="nonzero" fill="rgb(100%, 0%, 0%)" fill-opacity="1" stroke-width="1" stroke-linecap="butt" stroke-linejoin="miter" stroke="rgb(0%, 0%, 0%)" stroke-opacity="1" stroke-miterlimit="10" d="M 307.234375 440.203125 C 307.234375 445.726562 302.757812 450.203125 297.234375 450.203125 C 291.710938 450.203125 287.234375 445.726562 287.234375 440.203125 C 287.234375 434.683594 291.710938 430.203125 297.234375 430.203125 C 302.757812 430.203125 307.234375 434.683594 307.234375 440.203125 "/>
<path fill-rule="nonzero" fill="rgb(100%, 0%, 0%)" fill-opacity="1" stroke-width="1" stroke-linecap="butt" stroke-linejoin="miter" stroke="rgb(0%, 0%, 0%)" stroke-opacity="1" stroke-miterlimit="10" d="M 352.484375 580 C 352.484375 585.523438 348.007812 590 342.484375 590 C 336.964844 590 332.484375 585.523438 332.484375 580 C 332.484375 574.476562 336.964844 570 342.484375 570 C 348.007812 570 352.484375 574.476562 352.484375 580 "/>
<path fill-rule="nonzero" fill="rgb(100%, 0%, 0%)" fill-opacity="1" stroke-width="1" stroke-linecap="butt" stroke-linejoin="miter" stroke="rgb(0%, 0%, 0%)" stroke-opacity="1" stroke-miterlimit="10" d="M 496.878906 527.117188 C 496.878906 532.640625 492.402344 537.117188 486.878906 537.117188 C 481.355469 537.117188 476.878906 532.640625 476.878906 527.117188 C 476.878906 521.59375 481.355469 517.117188 486.878906 517.117188 C 492.402344 517.117188 496.878906 521.59375 496.878906 527.117188 "/>
<path fill-rule="nonzero" fill="rgb(100%, 0%, 0%)" fill-opacity="1" stroke-width="1" stroke-linecap="butt" stroke-linejoin="miter" stroke="rgb(0%, 0%, 0%)" stroke-opacity="1" stroke-miterlimit="10" d="M 215.3125 554.945312 C 215.3125 560.46875 210.835938 564.945312 205.3125 564.945312 C 199.789062 564.945312 195.3125 560.46875 195.3125 554.945312 C 195.3125 549.421875 199.789062 544.945312 205.3125 544.945312 C 210.835938 544.945312 215.3125 549.421875 215.3125 554.945312 "/>
<path fill-rule="nonzero" fill="rgb(100%, 0%, 0%)" fill-opacity="1" stroke-width="1" stroke-linecap="butt" stroke-linejoin="miter" stroke="rgb(0%, 0%, 0%)" stroke-opacity="1" stroke-miterlimit="10" d="M 449.753906 383.304688 C 449.753906 388.828125 445.277344 393.304688 439.753906 393.304688 C 434.230469 393.304688 429.753906 388.828125 429.753906 383.304688 C 429.753906 377.78125 434.230469 373.304688 439.753906 373.304688 C 445.277344 373.304688 449.753906 377.78125 449.753906 383.304688 "/>
<path fill-rule="nonzero" fill="rgb(100%, 0%, 0%)" fill-opacity="1" stroke-width="1" stroke-linecap="butt" stroke-linejoin="miter" stroke="rgb(0%, 0%, 0%)" stroke-opacity="1" stroke-miterlimit="10" d="M 30 309.175781 C 30 314.699219 25.523438 319.175781 20 319.175781 C 14.476562 319.175781 10 314.699219 10 309.175781 C 10 303.652344 14.476562 299.175781 20 299.175781 C 25.523438 299.175781 30 303.652344 30 309.175781 "/>
<path fill-rule="nonzero" fill="rgb(100%, 0%, 0%)" fill-opacity="1" stroke-width="1" stroke-linecap="butt" stroke-linejoin="miter" stroke="rgb(0%, 0%, 0%)" stroke-opacity="1" stroke-miterlimit="10" d="M 590 155.054688 C 590 160.578125 585.523438 165.054688 580 165.054688 C 574.476562 165.054688 570 160.578125 570 155.054688 C 570 149.53125 574.476562 145.054688 580 145.054688 C 585.523438 145.054688 590 149.53125 590 155.054688 "/>
<path fill-rule="nonzero" fill="rgb(100%, 0%, 0%)" fill-opacity="1" stroke-width="1" stroke-linecap="butt" stroke-linejoin="miter" stroke="rgb(0%, 0%, 0%)" stroke-opacity="1" stroke-miterlimit="10" d="M 374.417969 20 C 374.417969 25.523438 369.941406 30 364.417969 30 C 358.894531 30 354.417969 25.523438 354.417969 20 C 354.417969 14.476562 358.894531 10 364.417969 10 C 369.941406 10 374.417969 14.476562 374.417969 20 "/>
<path fill-rule="nonzero" fill="rgb(100%, 0%, 0%)" fill-opacity="1" stroke-width="1" stroke-linecap="butt" stroke-linejoin="miter" stroke="rgb(0%, 0%, 0%)" stroke-opacity="1" stroke-miterlimit="10" d="M 157.183594 83.140625 C 157.183594 88.664062 152.707031 93.140625 147.183594 93.140625 C 141.660156 93.140625 137.183594 88.664062 137.183594 83.140625 C 137.183594 77.621094 141.660156 73.140625 147.183594 73.140625 C 152.707031 73.140625 157.183594 77.621094 157.183594 83.140625 "/>
</svg>
