<?xml version="1.0" encoding="UTF-8"?>
<svg xmlns="http://www.w3.org/2000/svg" xmlns:xlink="http://www.w3.org/1999/xlink" width="600" height="600" viewBox="0 0 600 600">
<rect x="-60" y="-60" width="720" height="720" fill="rgb(100%, 100%, 100%)" fill-opacity="1"/>
<path fill="none" stroke-width="1" stroke-linecap="butt" stroke-linejoin="miter" stroke="rgb(26.666667%, 26.666667%, 26.666667%)" stroke-opacity="1" stroke-miterlimit="10" d="M 161.855469 288.003906 L 20 287.121094 "/>
<path fill="none" stroke-width="1" stroke-linecap="butt" stroke-linejoin="miter" stroke="rgb(26.666667%, 26.666667%, 26.666667%)" stroke-opacity="1" stroke-miterlimit="10" d="M 161.855469 288.003906 L 79.5625 403.421875 "/>
<path fill="none" stroke-width="1" stroke-linecap="butt" stroke-linejoin="miter" stroke="rgb(26.666667%, 26.666667%, 26.666667%)" stroke-opacity="1" stroke-miterlimit="10" d="M 161.855469 288.003906 L 191.34375 132.957031 "/>
<path fill="none" stroke-width="1" stroke-linecap="butt" stroke-linejoin="miter" stroke="rgb(26.666667%, 26.666667%, 26.666667%)" stroke-opacity="1" stroke-miterlimit="10" d="M 20 287.121094 L 36.867188 144.859375 "/>
<path fill="none" stroke-width="1" stroke-linecap="butt" stroke-linejoin="miter" stroke="rgb(26.666667%, 26.666667%, 26.666667%)" stroke-opacity="1" stroke-miterlimit="10" d="M 20 287.121094 L 79.5625 403.421875 "/>
<path fill="none" stroke-width="1" stroke-linecap="butt" stroke-linejoin="miter" stroke="rgb(26.666667%, 26.666667%, 26.666667%)" stroke-opacity="1" stroke-miterlimit="10" d="M 36.867188 144.859375 L 191.34375 132.957031 "/>
<path fill="none" stroke-width="1" stroke-linecap="butt" stroke-linejoin="miter" stroke="rgb(26.666667%, 26.666667%, 26.666667%)" stroke-opacity="1" stroke-miterlimit="10" d="M 191.34375 132.957031 L 281.230469 20 "/>
<path fill-rule="nonzero" fill="rgb(100%, 0%, 0%)" fill-opacity="1" stroke-width="1" stroke-linecap="butt" stroke-linejoin="miter" stroke="rgb(0%, 0%, 0%)" stroke-opacity="1" stroke-miterlimit="10" d="M 171.855469 288.003906 C 171.855469 293.527344 167.378906 298.003906 161.855469 298.003906 C 156.332031 298.003906 151.855469 293.527344 151.855469 288.003906 C 151.855469 282.480469 156.332031 278.003906 161.855469 278.003906 C 167.378906 278.003906 171.855469 282.480469 171.855469 288.003906 "/>
<path fill-rule="nonzero" fill="rgb(100%, 0%, 0%)" fill-opacity="1" stroke-width="1" stroke-linecap="butt" stroke-linejoin="miter" stroke="rgb(0%, 0%, 0%)" stroke-opacity="1" stroke-miterlimit="10" d="M 30 287.121094 C 30 292.644531 25.523438 297.121094 20 297.121094 C 14.476562 297.121094 10 292.644531 10 287.121094 C 10 281.597656 14.476562 277.121094 20 277.121094 C 25.523438 277.121094 30 281.597656 30 287.121094 "/>
<path fill-rule="nonzero" fill="rgb(100%, 0%, 0%)" fill-opacity="1" stroke-width="1" stroke-linecap="butt" stroke-linejoin="miter" stroke="rgb(0%, 0%, 0%)" stroke-opacity="1" stroke-miterlimit="10" d="M 46.867188 144.859375 C 46.867188 150.378906 42.390625 154.859375 36.867188 154.859375 C 31.34375 154.859375 26.867188 150.378906 26.867188 144.859375 C 26.867188 139.335938 31.34375 134.859375 36.867188 134.859375 C 42.390625 134.859375 46.867188 139.335938 46.867188 144.859375 "/>
<path fill-rule="nonzero" fill="rgb(100%, 0%, 0%)" fill-opacity="1" stroke-width="1" stroke-linecap="butt" stroke-linejoin="miter" stroke="rgb(0%, 0%, 0%)" stroke-opacity="1" stroke-miterlimit="10" d="M 89.5625 403.421875 C 89.5625 408.945312 85.085938 413.421875 79.5625 413.421875 C 74.039062 413.421875 69.5625 408.945312 69.5625 403.421875 C 69.5625 397.898438 74.039062 393.421875 79.5625 393.421875 C 85.085938 393.421875 89.5625 397.898438 89.5625 403.421875 "/>
<path fill-rule="nonzero" fill="rgb(100%, 0%, 0%)" fill-opacity="1" stroke-width="1" stroke-linecap="butt" stroke-linejoin="miter" stroke="rgb(0%, 0%, 0%)" stroke-opacity="1" stroke-miterlimit="10" d="M 201.34375 132.957031 C 201.34375 138.480469 196.867188 142.957031 191.34375 142.957031 C 185.820312 142.957031 181.34375 138.480469 181.34375 132.957031 C 181.34375 127.433594 185.820312 122.957031 191.34375 122.957031 C 196.867188 122.957031 201.34375 127.433594 201.34375 132.957031 "/>
<path fill-rule="nonzero" fill="rgb(100%, 0%, 0%)" fill-opacity="1" stroke-width="1" stroke-linecap="butt" stroke-linejoin="miter" stroke="rgb(0%, 0%, 0%)" stroke-opacity="1" stroke-miterlimit="10" d="M 495.753906 479.214844 C 495.753906 484.738281 491.277344 489.214844 485.753906 489.214844 C 480.230469 489.214844 475.753906 484.738281 475.753906 479.214844 C 475.753906 473.695312 480.230469 469.214844 485.753906 469.214844 C 491.277344 469.214844 495.753906 473.695312 495.753906 479.214844 "/>
<path fill-rule="nonzero" fill="rgb(100%, 0%, 0%)" fill-opacity="1" stroke-width="1" stroke-linecap="butt" stroke-linejoin="miter" stroke="rgb(0%, 0%, 0%)" stroke-opacity="1" stroke-miterlimit="10" d="M 281.53125 580 C 281.53125 585.523438 277.050781 590 271.53125 590 C 266.007812 590 261.53125 585.523438 261.53125 580 C 261.53125 574.476562 266.007812 570 271.53125 570 C 277.050781 570 281.53125 574.476562 281.53125 580 "/>
<path fill-rule="nonzero" fill="rgb(100%, 0%, 0%)" fill-opacity="1" stroke-width="1" stroke-linecap="butt" stroke-linejoin="miter" stroke="rgb(0%, 0%, 0%)" stroke-opacity="1" stroke-miterlimit="10" d="M 590 298.136719 C 590 303.660156 585.523438 308.136719 580 308.136719 C 574.476562 308.136719 570 303.660156 570 298.136719 C 570 292.613281 574.476562 288.136719 580 288.136719 C 585.523438 288.136719 590 292.613281 590 298.136719 "/>
<path fill-rule="nonzero" fill="rgb(100%, 0%, 0%)" fill-opacity="1" stroke-width="1" stroke-linecap="butt" stroke-linejoin="miter" stroke="rgb(0%, 0%, 0%)" stroke-opacity="1" stroke-miterlimit="10" d="M 543.800781 92.84375 C 543.800781 98.367188 539.324219 102.84375 533.800781 102.84375 C 528.277344 102.84375 523.800781 98.367188 523.800781 92.84375 C 523.800781 87.320312 528.277344 82.84375 533.800781 82.84375 C 539.324219 82.84375 543.800781 87.320312 543.800781 92.84375 "/>
<path fill-rule="nonzero" fill="rgb(100%, 0%, 0%)" fill-opacity="1" stroke-width="1" stroke-linecap="butt" stroke-linejoin="miter" stroke="rgb(0%, 0%, 0%)" stroke-opacity="1" stroke-miterlimit="10" d="M 291.230469 20 C 291.230469 25.523438 286.75 30 281.230469 30 C 275.707031 30 271.230469 25.523438 271.230469 20 C 271.230469 14.476562 275.707031 10 281.230469 10 C 286.75 10 291.230469 14.476562 291.230469 20 "/>
</svg>
