<?xml version="1.0" encoding="UTF-8"?>
<svg xmlns="http://www.w3.org/2000/svg" xmlns:xlink="http://www.w3.org/1999/xlink" width="600" height="600" viewBox="0 0 600 600">
<rect x="-60" y="-60" width="720" height="720" fill="rgb(100%, 100%, 100%)" fill-opacity="1"/>
<path fill="none" stroke-width="1" stroke-linecap="butt" stroke-linejoin="miter" stroke="rgb(26.666667%, 26.666667%, 26.666667%)" stroke-opacity="1" stroke-miterlimit="10" d="M 324.003906 472.65625 L 190.90625 470.769531 "/>
<path fill="none" stroke-width="1" stroke-linecap="butt" stroke-linejoin="miter" stroke="rgb(26.666667%, 26.666667%, 26.666667%)" stroke-opacity="1" stroke-miterlimit="10" d="M 324.003906 472.65625 L 233.65625 580 "/>
<path fill="none" stroke-width="1" stroke-linecap="butt" stroke-linejoin="miter" stroke="rgb(26.666667%, 26.666667%, 26.666667%)" stroke-opacity="1" stroke-miterlimit="10" d="M 324.003906 472.65625 L 436.519531 439.160156 "/>
<path fill="none" stroke-width="1" stroke-linecap="butt" stroke-linejoin="miter" stroke="rgb(26.666667%, 26.666667%, 26.666667%)" stroke-opacity="1" stroke-miterlimit="10" d="M 324.003906 472.65625 L 385.578125 306.339844 "/>
<path fill="none" stroke-width="1" stroke-linecap="butt" stroke-linejoin="miter" stroke="rgb(26.666667%, 26.666667%, 26.666667%)" stroke-opacity="1" stroke-miterlimit="10" d="M 190.90625 470.769531 L 274.550781 372.28125 "/>
<path fill="none" stroke-width="1" stroke-linecap="butt" stroke-linejoin="miter" stroke="rgb(26.666667%, 26.666667%, 26.666667%)" stroke-opacity="1" stroke-miterlimit="10" d="M 190.90625 470.769531 L 233.65625 580 "/>
<path fill="none" stroke-width="1" stroke-linecap="butt" stroke-linejoin="miter" stroke="rgb(26.666667%, 26.666667%, 26.666667%)" stroke-opacity="1" stroke-miterlimit="10" d="M 274.550781 372.28125 L 436.519531 439.160156 "/>
<path fill="none" stroke-width="1" stroke-linecap="butt" stroke-linejoin="miter" stroke="rgb(26.666667%, 26.666667%, 26.666667%)" stroke-opacity="1" stroke-miterlimit="10" d="M 436.519531 439.160156 L 574.117188 443.710938 "/>
<path fill-rule="nonzero" fill="rgb(100%, 0%, 0%)" fill-opacity="1" stroke-width="1" stroke-linecap="butt" stroke-linejoin="miter" stroke="rgb(0%, 0%, 0%)" stroke-opacity="1" stroke-miterlimit="10" d="M 334.003906 472.65625 C 334.003906 478.179688 329.527344 482.65625 324.003906 482.65625 C 318.484375 482.65625 314.003906 478.179688 314.003906 472.65625 C 314.003906 467.132812 318.484375 462.65625 324.003906 462.65625 C 329.527344 462.65625 334.003906 467.132812 334.003906 472.65625 "/>
<path fill-rule="nonzero" fill="rgb(100%, 0%, 0%)" fill-opacity="1" stroke-width="1" stroke-linecap="butt" stroke-linejoin="miter" stroke="rgb(0%, 0%, 0%)" stroke-opacity="1" stroke-miterlimit="10" d="M 200.90625 470.769531 C 200.90625 476.292969 196.429688 480.769531 190.90625 480.769531 C 185.382812 480.769531 180.90625 476.292969 180.90625 470.769531 C 180.90625 465.246094 185.382812 460.769531 190.90625 460.769531 C 196.429688 460.769531 200.90625 465.246094 200.90625 470.769531 "/>
<path fill-rule="nonzero" fill="rgb(100%, 0%, 0%)" fill-opacity="1" stroke-width="1" stroke-linecap="butt" stroke-linejoin="miter" stroke="rgb(0%, 0%, 0%)" stroke-opacity="1" stroke-miterlimit="10" d="M 284.550781 372.28125 C 284.550781 377.804688 280.074219 382.28125 274.550781 382.28125 C 269.027344 382.28125 264.550781 377.804688 264.550781 372.28125 C 264.550781 366.757812 269.027344 362.28125 274.550781 362.28125 C 280.074219 362.28125 284.550781 366.757812 284.550781 372.28125 "/>
<path fill-rule="nonzero" fill="rgb(100%, 0%, 0%)" fill-opacity="1" stroke-width="1" stroke-linecap="butt" stroke-linejoin="miter" stroke="rgb(0%, 0%, 0%)" stroke-opacity="1" stroke-miterlimit="10" d="M 243.65625 580 C 243.65625 585.523438 239.179688 590 233.65625 590 C 228.136719 590 223.65625 585.523438 223.65625 580 C 223.65625 574.476562 228.136719 570 233.65625 570 C 239.179688 570 243.65625 574.476562 243.65625 580 "/>
<path fill-rule="nonzero" fill="rgb(100%, 0%, 0%)" fill-opacity="1" stroke-width="1" stroke-linecap="butt" stroke-linejoin="miter" stroke="rgb(0%, 0%, 0%)" stroke-opacity="1" stroke-miterlimit="10" d="M 446.519531 439.160156 C 446.519531 444.679688 442.042969 449.160156 436.519531 449.160156 C 430.996094 449.160156 426.519531 444.679688 426.519531 439.160156 C 426.519531 433.636719 430.996094 429.160156 436.519531 429.160156 C 442.042969 429.160156 446.519531 433.636719 446.519531 439.160156 "/>
<path fill-rule="nonzero" fill="rgb(100%, 0%, 0%)" fill-opacity="1" stroke-width="1" stroke-linecap="butt" stroke-linejoin="miter" stroke="rgb(0%, 0%, 0%)" stroke-opacity="1" stroke-miterlimit="10" d="M 30 244.472656 C 30 249.996094 25.523438 254.472656 20 254.472656 C 14.476562 254.472656 10 249.996094 10 244.472656 C 10 238.949219 14.476562 234.472656 20 234.472656 C 25.523438 234.472656 30 238.949219 30 244.472656 "/>
<path fill-rule="nonzero" fill="rgb(100%, 0%, 0%)" fill-opacity="1" stroke-width="1" stroke-linecap="butt" stroke-linejoin="miter" stroke="rgb(0%, 0%, 0%)" stroke-opacity="1" stroke-miterlimit="10" d="M 174.550781 63.496094 C 174.550781 69.019531 170.074219 73.496094 164.550781 73.496094 C 159.027344 73.496094 154.550781 69.019531 154.550781 63.496094 C 154.550781 57.972656 159.027344 53.496094 164.550781 53.496094 C 170.074219 53.496094 174.550781 57.972656 174.550781 63.496094 "/>
<path fill-rule="nonzero" fill="rgb(100%, 0%, 0%)" fill-opacity="1" stroke-width="1" stroke-linecap="butt" stroke-linejoin="miter" stroke="rgb(0%, 0%, 0%)" stroke-opacity="1" stroke-miterlimit="10" d="M 386.097656 20 C 386.097656 25.523438 381.621094 30 376.097656 30 C 370.574219 30 366.097656 25.523438 366.097656 20 C 366.097656 14.476562 370.574219 10 376.097656 10 C 381.621094 10 386.097656 14.476562 386.097656 20 "/>
<path fill-rule="nonzero" fill="rgb(100%, 0%, 0%)" fill-opacity="1" stroke-width="1" stroke-linecap="butt" stroke-linejoin="miter" stroke="rgb(0%, 0%, 0%)" stroke-opacity="1" stroke-miterlimit="10" d="M 590 138.800781 C 590 144.324219 585.523438 148.800781 580 148.800781 C 574.476562 148.800781 570 144.324219 570 138.800781 C 570 133.28125 574.476562 128.800781 580 128.800781 C 585.523438 128.800781 590 133.28125 590 138.800781 "/>
<path fill-rule="nonzero" fill="rgb(100%, 0%, 0%)" fill-opacity="1" stroke-width="1" stroke-linecap="butt" stroke-linejoin="miter" stroke="rgb(0%, 0%, 0%)" stroke-opacity="1" stroke-miterlimit="10" d="M 584.117188 443.710938 C 584.117188 449.234375 579.640625 453.710938 574.117188 453.710938 C 568.59375 453.710938 564.117188 449.234375 564.117188 443.710938 C 564.117188 438.191406 568.59375 433.710938 574.117188 433.710938 C 579.640625 433.710938 584.117188 438.191406 584.117188 443.710938 "/>
<path fill-rule="nonzero" fill="rgb(100%, 0%, 0%)" fill-opacity="1" stroke-width="1" stroke-linecap="butt" stroke-linejoin="miter" stroke="rgb(0%, 0%, 0%)" stroke-opacity="1" stroke-miterlimit="10" d="M 395.578125 306.339844 C 395.578125 311.863281 391.101562 316.339844 385.578125 316.339844 C 380.054688 316.339844 375.578125 311.863281 375.578125 306.339844 C 375.578125 300.816406 380.054688 296.339844 385.578125 296.339844 C 391.101562 296.339844 395.578125 300.816406 395.578125 306.339844 "/>
</svg>
