<?xml version="1.0" encoding="UTF-8"?>
<svg xmlns="http://www.w3.org/2000/svg" xmlns:xlink="http://www.w3.org/1999/xlink" width="600" height="600" viewBox="0 0 600 600">
<rect x="-60" y="-60" width="720" height="720" fill="rgb(100%, 100%, 100%)" fill-opacity="1"/>
<path fill="none" stroke-width="1" stroke-linecap="butt" stroke-linejoin="miter" stroke="rgb(26.666667%, 26.666667%, 26.666667%)" stroke-opacity="1" stroke-miterlimit="10" d="M 234.476562 501.726562 L 282.617188 429.90625 "/>
<path fill="none" stroke-width="1" stroke-linecap="butt" stroke-linejoin="miter" stroke="rgb(26.666667%, 26.666667%, 26.666667%)" stroke-opacity="1" stroke-miterlimit="10" d="M 234.476562 501.726562 L 278.585938 580 "/>
<path fill="none" stroke-width="1" stroke-linecap="butt" stroke-linejoin="miter" stroke="rgb(26.666667%, 26.666667%, 26.666667%)" stroke-opacity="1" stroke-miterlimit="10" d="M 234.476562 501.726562 L 388.839844 467.558594 "/>
<path fill="none" stroke-width="1" stroke-linecap="butt" stroke-linejoin="miter" stroke="rgb(26.666667%, 26.666667%, 26.666667%)" stroke-opacity="1" stroke-miterlimit="10" d="M 234.476562 501.726562 L 111.820312 498.84375 "/>
<path fill="none" stroke-width="1" stroke-linecap="butt" stroke-linejoin="miter" stroke="rgb(26.666667%, 26.666667%, 26.666667%)" stroke-opacity="1" stroke-miterlimit="10" d="M 282.617188 429.90625 L 365.585938 334.542969 "/>
<path fill="none" stroke-width="1" stroke-linecap="butt" stroke-linejoin="miter" stroke="rgb(26.666667%, 26.666667%, 26.666667%)" stroke-opacity="1" stroke-miterlimit="10" d="M 282.617188 429.90625 L 278.585938 580 "/>
<path fill="none" stroke-width="1" stroke-linecap="butt" stroke-linejoin="miter" stroke="rgb(26.666667%, 26.666667%, 26.666667%)" stroke-opacity="1" stroke-miterlimit="10" d="M 365.585938 334.542969 L 388.839844 467.558594 "/>
<path fill="none" stroke-width="1" stroke-linecap="butt" stroke-linejoin="miter" stroke="rgb(26.666667%, 26.666667%, 26.666667%)" stroke-opacity="1" stroke-miterlimit="10" d="M 365.585938 334.542969 L 385.796875 208.722656 "/>
<path fill="none" stroke-width="1" stroke-linecap="butt" stroke-linejoin="miter" stroke="rgb(26.666667%, 26.666667%, 26.666667%)" stroke-opacity="1" stroke-miterlimit="10" d="M 388.839844 467.558594 L 504.855469 494.332031 "/>
<path fill-rule="nonzero" fill="rgb(100%, 0%, 0%)" fill-opacity="1" stroke-width="1" stroke-linecap="butt" stroke-linejoin="miter" stroke="rgb(0%, 0%, 0%)" stroke-opacity="1" stroke-miterlimit="10" d="M 244.476562 501.726562 C 244.476562 507.25 240 511.726562 234.476562 511.726562 C 228.953125 511.726562 224.476562 507.25 224.476562 501.726562 C 224.476562 496.203125 228.953125 491.726562 234.476562 491.726562 C 240 491.726562 244.476562 496.203125 244.476562 501.726562 "/>
<path fill-rule="nonzero" fill="rgb(100%, 0%, 0%)" fill-opacity="1" stroke-width="1" stroke-linecap="butt" stroke-linejoin="miter" stroke="rgb(0%, 0%, 0%)" stroke-opacity="1" stroke-miterlimit="10" d="M 292.617188 429.90625 C 292.617188 435.425781 288.140625 439.90625 282.617188 439.90625 C 277.09375 439.90625 272.617188 435.425781 272.617188 429.90625 C 272.617188 424.382812 277.09375 419.90625 282.617188 419.90625 C 288.140625 419.90625 292.617188 424.382812 292.617188 429.90625 "/>
<path fill-rule="nonzero" fill="rgb(100%, 0%, 0%)" fill-opacity="1" stroke-width="1" stroke-linecap="butt" stroke-linejoin="miter" stroke="rgb(0%, 0%, 0%)" stroke-opacity="1" stroke-miterlimit="10" d="M 375.585938 334.542969 C 375.585938 340.066406 371.109375 344.542969 365.585938 344.542969 C 360.0625 344.542969 355.585938 340.066406 355.585938 334.542969 C 355.585938 329.019531 360.0625 324.542969 365.585938 324.542969 C 371.109375 324.542969 375.585938 329.019531 375.585938 334.542969 "/>
<path fill-rule="nonzero" fill="rgb(100%, 0%, 0%)" fill-opacity="1" stroke-width="1" stroke-linecap="butt" stroke-linejoin="miter" stroke="rgb(0%, 0%, 0%)" stroke-opacity="1" stroke-miterlimit="10" d="M 288.585938 580 C 288.585938 585.523438 284.109375 590 278.585938 590 C 273.0625 590 268.585938 585.523438 268.585938 580 C 268.585938 574.476562 273.0625 570 278.585938 570 C 284.109375 570 288.585938 574.476562 288.585938 580 "/>
<path fill-rule="nonzero" fill="rgb(100%, 0%, 0%)" fill-opacity="1" stroke-width="1" stroke-linecap="butt" stroke-linejoin="miter" stroke="rgb(0%, 0%, 0%)" stroke-opacity="1" stroke-miterlimit="10" d="M 398.839844 467.558594 C 398.839844 473.082031 394.363281 477.558594 388.839844 477.558594 C 383.316406 477.558594 378.839844 473.082031 378.839844 467.558594 C 378.839844 462.039062 383.316406 457.558594 388.839844 457.558594 C 394.363281 457.558594 398.839844 462.039062 398.839844 467.558594 "/>
<path fill-rule="nonzero" fill="rgb(100%, 0%, 0%)" fill-opacity="1" stroke-width="1" stroke-linecap="butt" stroke-linejoin="miter" stroke="rgb(0%, 0%, 0%)" stroke-opacity="1" stroke-miterlimit="10" d="M 239.246094 22.476562 C 239.246094 28 234.765625 32.476562 229.246094 32.476562 C 223.722656 32.476562 219.246094 28 219.246094 22.476562 C 219.246094 16.953125 223.722656 12.476562 229.246094 12.476562 C 234.765625 12.476562 239.246094 16.953125 239.246094 22.476562 "/>
<path fill-rule="nonzero" fill="rgb(100%, 0%, 0%)" fill-opacity="1" stroke-width="1" stroke-linecap="butt" stroke-linejoin="miter" stroke="rgb(0%, 0%, 0%)" stroke-opacity="1" stroke-miterlimit="10" d="M 590 217.21875 C 590 222.742188 585.523438 227.21875 580 227.21875 C 574.476562 227.21875 570 222.742188 570 217.21875 C 570 211.699219 574.476562 207.21875 580 207.21875 C 585.523438 207.21875 590 211.699219 590 217.21875 "/>
<path fill-rule="nonzero" fill="rgb(100%, 0%, 0%)" fill-opacity="1" stroke-width="1" stroke-linecap="butt" stroke-linejoin="miter" stroke="rgb(0%, 0%, 0%)" stroke-opacity="1" stroke-miterlimit="10" d="M 106.476562 122.765625 C 106.476562 128.289062 101.996094 132.765625 96.476562 132.765625 C 90.953125 132.765625 86.476562 128.289062 86.476562 122.765625 C 86.476562 117.242188 90.953125 112.765625 96.476562 112.765625 C 101.996094 112.765625 106.476562 117.242188 106.476562 122.765625 "/>
<path fill-rule="nonzero" fill="rgb(100%, 0%, 0%)" fill-opacity="1" stroke-width="1" stroke-linecap="butt" stroke-linejoin="miter" stroke="rgb(0%, 0%, 0%)" stroke-opacity="1" stroke-miterlimit="10" d="M 395.796875 208.722656 C 395.796875 214.246094 391.320312 218.722656 385.796875 218.722656 C 380.273438 218.722656 375.796875 214.246094 375.796875 208.722656 C 375.796875 203.199219 380.273438 198.722656 385.796875 198.722656 C 391.320312 198.722656 395.796875 203.199219 395.796875 208.722656 "/>
<path fill-rule="nonzero" fill="rgb(100%, 0%, 0%)" fill-opacity="1" stroke-width="1" stroke-linecap="butt" stroke-linejoin="miter" stroke="rgb(0%, 0%, 0%)" stroke-opacity="1" stroke-miterlimit="10" d="M 514.855469 494.332031 C 514.855469 499.855469 510.378906 504.332031 504.855469 504.332031 C 499.335938 504.332031 494.855469 499.855469 494.855469 494.332031 C 494.855469 488.808594 499.335938 484.332031 504.855469 484.332031 C 510.378906 484.332031 514.855469 488.808594 514.855469 494.332031 "/>
<path fill-rule="nonzero" fill="rgb(100%, 0%, 0%)" fill-opacity="1" stroke-width="1" stroke-linecap="butt" stroke-linejoin="miter" stroke="rgb(0%, 0%, 0%)" stroke-opacity="1" stroke-miterlimit="10" d="M 121.820312 498.84375 C 121.820312 504.367188 117.34375 508.84375 111.820312 508.84375 C 106.296875 508.84375 101.820312 504.367188 101.820312 498.84375 C 101.820312 493.320312 106.296875 488.84375 111.820312 488.84375 C 117.34375 488.84375 121.820312 493.320312 121.820312 498.84375 "/>
<path fill-rule="nonzero" fill="rgb(100%, 0%, 0%)" fill-opacity="1" stroke-width="1" stroke-linecap="butt" stroke-linejoin="miter" stroke="rgb(0%, 0%, 0%)" stroke-opacity="1" stroke-miterlimit="10" d="M 425.097656 20 C 425.097656 25.523438 420.621094 30 415.097656 30 C 409.574219 30 405.097656 25.523438 405.097656 20 C 405.097656 14.476562 409.574219 10 415.097656 10 C 420.621094 10 425.097656 14.476562 425.097656 20 "/>
<path fill-rule="nonzero" fill="rgb(100%, 0%, 0%)" fill-opacity="1" stroke-width="1" stroke-linecap="butt" stroke-linejoin="miter" stroke="rgb(0%, 0%, 0%)" stroke-opacity="1" stroke-miterlimit="10" d="M 30 287.128906 C 30 292.652344 25.523438 297.128906 20 297.128906 C 14.476562 297.128906 10 292.652344 10 287.128906 C 10 281.605469 14.476562 277.128906 20 277.128906 C 25.523438 277.128906 30 281.605469 30 287.128906 "/>
</svg>
