<?xml version="1.0" encoding="UTF-8"?>
<svg xmlns="http://www.w3.org/2000/svg" xmlns:xlink="http://www.w3.org/1999/xlink" width="600" height="600" viewBox="0 0 600 600">
<rect x="-60" y="-60" width="720" height="720" fill="rgb(100%, 100%, 100%)" fill-opacity="1"/>
<path fill="none" stroke-width="1" stroke-linecap="butt" stroke-linejoin="miter" stroke="rgb(26.666667%, 26.666667%, 26.666667%)" stroke-opacity="1" stroke-miterlimit="10" d="M 317.273438 187.527344 L 250.519531 81.925781 "/>
<path fill="none" stroke-width="1" stroke-linecap="butt" stroke-linejoin="miter" stroke="rgb(26.666667%, 26.666667%, 26.666667%)" stroke-opacity="1" stroke-miterlimit="10" d="M 317.273438 187.527344 L 308.65625 20 "/>
<path fill="none" stroke-width="1" stroke-linecap="butt" stroke-linejoin="miter" stroke="rgb(26.666667%, 26.666667%, 26.666667%)" stroke-opacity="1" stroke-miterlimit="10" d="M 317.273438 187.527344 L 349.054688 98.433594 "/>
<path fill="none" stroke-width="1" stroke-linecap="butt" stroke-linejoin="miter" stroke="rgb(26.666667%, 26.666667%, 26.666667%)" stroke-opacity="1" stroke-miterlimit="10" d="M 317.273438 187.527344 L 406.230469 283.714844 "/>
<path fill="none" stroke-width="1" stroke-linecap="butt" stroke-linejoin="miter" stroke="rgb(26.666667%, 26.666667%, 26.666667%)" stroke-opacity="1" stroke-miterlimit="10" d="M 317.273438 187.527344 L 270.683594 321.3125 "/>
<path fill="none" stroke-width="1" stroke-linecap="butt" stroke-linejoin="miter" stroke="rgb(26.666667%, 26.666667%, 26.666667%)" stroke-opacity="1" stroke-miterlimit="10" d="M 250.519531 81.925781 L 186.519531 102.296875 "/>
<path fill="none" stroke-width="1" stroke-linecap="butt" stroke-linejoin="miter" stroke="rgb(26.666667%, 26.666667%, 26.666667%)" stroke-opacity="1" stroke-miterlimit="10" d="M 250.519531 81.925781 L 308.65625 20 "/>
<path fill="none" stroke-width="1" stroke-linecap="butt" stroke-linejoin="miter" stroke="rgb(26.666667%, 26.666667%, 26.666667%)" stroke-opacity="1" stroke-miterlimit="10" d="M 186.519531 102.296875 L 349.054688 98.433594 "/>
<path fill="none" stroke-width="1" stroke-linecap="butt" stroke-linejoin="miter" stroke="rgb(26.666667%, 26.666667%, 26.666667%)" stroke-opacity="1" stroke-miterlimit="10" d="M 186.519531 102.296875 L 79.472656 115.421875 "/>
<path fill="none" stroke-width="1" stroke-linecap="butt" stroke-linejoin="miter" stroke="rgb(26.666667%, 26.666667%, 26.666667%)" stroke-opacity="1" stroke-miterlimit="10" d="M 349.054688 98.433594 L 465.035156 65.59375 "/>
<path fill-rule="nonzero" fill="rgb(100%, 0%, 0%)" fill-opacity="1" stroke-width="1" stroke-linecap="butt" stroke-linejoin="miter" stroke="rgb(0%, 0%, 0%)" stroke-opacity="1" stroke-miterlimit="10" d="M 327.273438 187.527344 C 327.273438 193.050781 322.792969 197.527344 317.273438 197.527344 C 311.75 197.527344 307.273438 193.050781 307.273438 187.527344 C 307.273438 182.003906 311.75 177.527344 317.273438 177.527344 C 322.792969 177.527344 327.273438 182.003906 327.273438 187.527344 "/>
<path fill-rule="nonzero" fill="rgb(100%, 0%, 0%)" fill-opacity="1" stroke-width="1" stroke-linecap="butt" stroke-linejoin="miter" stroke="rgb(0%, 0%, 0%)" stroke-opacity="1" stroke-miterlimit="10" d="M 260.519531 81.925781 C 260.519531 87.449219 256.042969 91.925781 250.519531 91.925781 C 244.996094 91.925781 240.519531 87.449219 240.519531 81.925781 C 240.519531 76.402344 244.996094 71.925781 250.519531 71.925781 C 256.042969 71.925781 260.519531 76.402344 260.519531 81.925781 "/>
<path fill-rule="nonzero" fill="rgb(100%, 0%, 0%)" fill-opacity="1" stroke-width="1" stroke-linecap="butt" stroke-linejoin="miter" stroke="rgb(0%, 0%, 0%)" stroke-opacity="1" stroke-miterlimit="10" d="M 196.519531 102.296875 C 196.519531 107.820312 192.042969 112.296875 186.519531 112.296875 C 180.996094 112.296875 176.519531 107.820312 176.519531 102.296875 C 176.519531 96.773438 180.996094 92.296875 186.519531 92.296875 C 192.042969 92.296875 196.519531 96.773438 196.519531 102.296875 "/>
<path fill-rule="nonzero" fill="rgb(100%, 0%, 0%)" fill-opacity="1" stroke-width="1" stroke-linecap="butt" stroke-linejoin="miter" stroke="rgb(0%, 0%, 0%)" stroke-opacity="1" stroke-miterlimit="10" d="M 318.65625 20 C 318.65625 25.523438 314.179688 30 308.65625 30 C 303.132812 30 298.65625 25.523438 298.65625 20 C 298.65625 14.476562 303.132812 10 308.65625 10 C 314.179688 10 318.65625 14.476562 318.65625 20 "/>
<path fill-rule="nonzero" fill="rgb(100%, 0%, 0%)" fill-opacity="1" stroke-width="1" stroke-linecap="butt" stroke-linejoin="miter" stroke="rgb(0%, 0%, 0%)" stroke-opacity="1" stroke-miterlimit="10" d="M 359.054688 98.433594 C 359.054688 103.957031 354.574219 108.433594 349.054688 108.433594 C 343.53125 108.433594 339.054688 103.957031 339.054688 98.433594 C 339.054688 92.910156 343.53125 88.433594 349.054688 88.433594 C 354.574219 88.433594 359.054688 92.910156 359.054688 98.433594 "/>
<path fill-rule="nonzero" fill="rgb(100%, 0%, 0%)" fill-opacity="1" stroke-width="1" stroke-linecap="butt" stroke-linejoin="miter" stroke="rgb(0%, 0%, 0%)" stroke-opacity="1" stroke-miterlimit="10" d="M 30 330.109375 C 30 335.632812 25.523438 340.109375 20 340.109375 C 14.476562 340.109375 10 335.632812 10 330.109375 C 10 324.585938 14.476562 320.109375 20 320.109375 C 25.523438 320.109375 30 324.585938 30 330.109375 "/>
<path fill-rule="nonzero" fill="rgb(100%, 0%, 0%)" fill-opacity="1" stroke-width="1" stroke-linecap="butt" stroke-linejoin="miter" stroke="rgb(0%, 0%, 0%)" stroke-opacity="1" stroke-miterlimit="10" d="M 369.625 580 C 369.625 585.523438 365.148438 590 359.625 590 C 354.105469 590 349.625 585.523438 349.625 580 C 349.625 574.476562 354.105469 570 359.625 570 C 365.148438 570 369.625 574.476562 369.625 580 "/>
<path fill-rule="nonzero" fill="rgb(100%, 0%, 0%)" fill-opacity="1" stroke-width="1" stroke-linecap="butt" stroke-linejoin="miter" stroke="rgb(0%, 0%, 0%)" stroke-opacity="1" stroke-miterlimit="10" d="M 226.101562 576.671875 C 226.101562 582.195312 221.625 586.671875 216.101562 586.671875 C 210.578125 586.671875 206.101562 582.195312 206.101562 576.671875 C 206.101562 571.152344 210.578125 566.671875 216.101562 566.671875 C 221.625 566.671875 226.101562 571.152344 226.101562 576.671875 "/>
<path fill-rule="nonzero" fill="rgb(100%, 0%, 0%)" fill-opacity="1" stroke-width="1" stroke-linecap="butt" stroke-linejoin="miter" stroke="rgb(0%, 0%, 0%)" stroke-opacity="1" stroke-miterlimit="10" d="M 89.472656 115.421875 C 89.472656 120.945312 84.992188 125.421875 79.472656 125.421875 C 73.949219 125.421875 69.472656 120.945312 69.472656 115.421875 C 69.472656 109.898438 73.949219 105.421875 79.472656 105.421875 C 84.992188 105.421875 89.472656 109.898438 89.472656 115.421875 "/>
<path fill-rule="nonzero" fill="rgb(100%, 0%, 0%)" fill-opacity="1" stroke-width="1" stroke-linecap="butt" stroke-linejoin="miter" stroke="rgb(0%, 0%, 0%)" stroke-opacity="1" stroke-miterlimit="10" d="M 475.035156 65.59375 C 475.035156 71.117188 470.558594 75.59375 465.035156 75.59375 C 459.511719 75.59375 455.035156 71.117188 455.035156 65.59375 C 455.035156 60.070312 459.511719 55.59375 465.035156 55.59375 C 470.558594 55.59375 475.035156 60.070312 475.035156 65.59375 "/>
<path fill-rule="nonzero" fill="rgb(100%, 0%, 0%)" fill-opacity="1" stroke-width="1" stroke-linecap="butt" stroke-linejoin="miter" stroke="rgb(0%, 0%, 0%)" stroke-opacity="1" stroke-miterlimit="10" d="M 416.230469 283.714844 C 416.230469 289.238281 411.753906 293.714844 406.230469 293.714844 C 400.707031 293.714844 396.230469 289.238281 396.230469 283.714844 C 396.230469 278.191406 400.707031 273.714844 406.230469 273.714844 C 411.753906 273.714844 416.230469 278.191406 416.230469 283.714844 "/>
<path fill-rule="nonzero" fill="rgb(100%, 0%, 0%)" fill-opacity="1" stroke-width="1" stroke-linecap="butt" stroke-linejoin="miter" stroke="rgb(0%, 0%, 0%)" stroke-opacity="1" stroke-miterlimit="10" d="M 590 308.648438 C 590 314.171875 585.523438 318.648438 580 318.648438 C 574.476562 318.648438 570 314.171875 570 308.648438 C 570 303.128906 574.476562 298.648438 580 298.648438 C 585.523438 298.648438 590 303.128906 590 308.648438 "/>
<path fill-rule="nonzero" fill="rgb(100%, 0%, 0%)" fill-opacity="1" stroke-width="1" stroke-linecap="butt" stroke-linejoin="miter" stroke="rgb(0%, 0%, 0%)" stroke-opacity="1" stroke-miterlimit="10" d="M 104.664062 485.792969 C 104.664062 491.316406 100.1875 495.792969 94.664062 495.792969 C 89.140625 495.792969 84.664062 491.316406 84.664062 485.792969 C 84.664062 480.269531 89.140625 475.792969 94.664062 475.792969 C 100.1875 475.792969 104.664062 480.269531 104.664062 485.792969 "/>
<path fill-rule="nonzero" fill="rgb(100%, 0%, 0%)" fill-opacity="1" stroke-width="1" stroke-linecap="butt" stroke-linejoin="miter" stroke="rgb(0%, 0%, 0%)" stroke-opacity="1" stroke-miterlimit="10" d="M 280.683594 321.3125 C 280.683594 326.832031 276.207031 331.3125 270.683594 331.3125 C 265.160156 331.3125 260.683594 326.832031 260.683594 321.3125 C 260.683594 315.789062 265.160156 311.3125 270.683594 311.3125 C 276.207031 311.3125 280.683594 315.789062 280.683594 321.3125 "/>
<path fill-rule="nonzero" fill="rgb(100%, 0%, 0%)" fill-opacity="1" stroke-width="1" stroke-linecap="butt" stroke-linejoin="miter" stroke="rgb(0%, 0%, 0%)" stroke-opacity="1" stroke-miterlimit="10" d="M 503.203125 496.050781 C 503.203125 501.574219 498.722656 506.050781 493.203125 506.050781 C 487.679688 506.050781 483.203125 501.574219 483.203125 496.050781 C 483.203125 490.53125 487.679688 486.050781 493.203125 486.050781 C 498.722656 486.050781 503.203125 490.53125 503.203125 496.050781 "/>
</svg>
