<?xml version="1.0" encoding="UTF-8"?>
<svg xmlns="http://www.w3.org/2000/svg" xmlns:xlink="http://www.w3.org/1999/xlink" width="600" height="600" viewBox="0 0 600 600">
<rect x="-60" y="-60" width="720" height="720" fill="rgb(100%, 100%, 100%)" fill-opacity="1"/>
<path fill="none" stroke-width="1" stroke-linecap="butt" stroke-linejoin="miter" stroke="rgb(26.666667%, 26.666667%, 26.666667%)" stroke-opacity="1" stroke-miterlimit="10" d="M 169.324219 313.207031 L 240.683594 284.785156 "/>
<path fill="none" stroke-width="1" stroke-linecap="butt" stroke-linejoin="miter" stroke="rgb(26.666667%, 26.666667%, 26.666667%)" stroke-opacity="1" stroke-miterlimit="10" d="M 426.542969 440.65625 L 463.601562 480.25 "/>
<path fill="none" stroke-width="1" stroke-linecap="butt" stroke-linejoin="miter" stroke="rgb(26.666667%, 26.666667%, 26.666667%)" stroke-opacity="1" stroke-miterlimit="10" d="M 182.234375 210.792969 L 240.683594 284.785156 "/>
<path fill="none" stroke-width="1" stroke-linecap="butt" stroke-linejoin="miter" stroke="rgb(26.666667%, 26.666667%, 26.666667%)" stroke-opacity="1" stroke-miterlimit="10" d="M 95.125 192.117188 L 182.234375 210.792969 "/>
<path fill="none" stroke-width="1" stroke-linecap="butt" stroke-linejoin="miter" stroke="rgb(26.666667%, 26.666667%, 26.666667%)" stroke-opacity="1" stroke-miterlimit="10" d="M 121.148438 436.039062 L 134.890625 500.269531 "/>
<path fill="none" stroke-width="1" stroke-linecap="butt" stroke-linejoin="miter" stroke="rgb(26.666667%, 26.666667%, 26.666667%)" stroke-opacity="1" stroke-miterlimit="10" d="M 97.953125 278.347656 L 41.160156 337.425781 "/>
<path fill="none" stroke-width="1" stroke-linecap="butt" stroke-linejoin="miter" stroke="rgb(26.666667%, 26.666667%, 26.666667%)" stroke-opacity="1" stroke-miterlimit="10" d="M 97.953125 278.347656 L 95.125 192.117188 "/>
<path fill="none" stroke-width="1" stroke-linecap="butt" stroke-linejoin="miter" stroke="rgb(26.666667%, 26.666667%, 26.666667%)" stroke-opacity="1" stroke-miterlimit="10" d="M 190.996094 162.09375 L 224.898438 94.753906 "/>
<path fill="none" stroke-width="1" stroke-linecap="butt" stroke-linejoin="miter" stroke="rgb(26.666667%, 26.666667%, 26.666667%)" stroke-opacity="1" stroke-miterlimit="10" d="M 119.890625 345.65625 L 169.324219 313.207031 "/>
<path fill="none" stroke-width="1" stroke-linecap="butt" stroke-linejoin="miter" stroke="rgb(26.666667%, 26.666667%, 26.666667%)" stroke-opacity="1" stroke-miterlimit="10" d="M 119.890625 345.65625 L 121.148438 436.039062 "/>
<path fill="none" stroke-width="1" stroke-linecap="butt" stroke-linejoin="miter" stroke="rgb(26.666667%, 26.666667%, 26.666667%)" stroke-opacity="1" stroke-miterlimit="10" d="M 119.890625 345.65625 L 214.570312 345.402344 "/>
<path fill="none" stroke-width="1" stroke-linecap="butt" stroke-linejoin="miter" stroke="rgb(26.666667%, 26.666667%, 26.666667%)" stroke-opacity="1" stroke-miterlimit="10" d="M 119.890625 345.65625 L 97.953125 278.347656 "/>
<path fill="none" stroke-width="1" stroke-linecap="butt" stroke-linejoin="miter" stroke="rgb(26.666667%, 26.666667%, 26.666667%)" stroke-opacity="1" stroke-miterlimit="10" d="M 132.957031 247.761719 L 29.332031 221.644531 "/>
<path fill="none" stroke-width="1" stroke-linecap="butt" stroke-linejoin="miter" stroke="rgb(26.666667%, 26.666667%, 26.666667%)" stroke-opacity="1" stroke-miterlimit="10" d="M 132.957031 247.761719 L 169.324219 313.207031 "/>
<path fill="none" stroke-width="1" stroke-linecap="butt" stroke-linejoin="miter" stroke="rgb(26.666667%, 26.666667%, 26.666667%)" stroke-opacity="1" stroke-miterlimit="10" d="M 132.957031 247.761719 L 190.996094 162.09375 "/>
<path fill="none" stroke-width="1" stroke-linecap="butt" stroke-linejoin="miter" stroke="rgb(26.666667%, 26.666667%, 26.666667%)" stroke-opacity="1" stroke-miterlimit="10" d="M 132.957031 247.761719 L 119.890625 345.65625 "/>
<path fill="none" stroke-width="1" stroke-linecap="butt" stroke-linejoin="miter" stroke="rgb(26.666667%, 26.666667%, 26.666667%)" stroke-opacity="1" stroke-miterlimit="10" d="M 219.847656 243.019531 L 325.964844 258.277344 "/>
<path fill="none" stroke-width="1" stroke-linecap="butt" stroke-linejoin="miter" stroke="rgb(26.666667%, 26.666667%, 26.666667%)" stroke-opacity="1" stroke-miterlimit="10" d="M 219.847656 243.019531 L 305.128906 186.835938 "/>
<path fill="none" stroke-width="1" stroke-linecap="butt" stroke-linejoin="miter" stroke="rgb(26.666667%, 26.666667%, 26.666667%)" stroke-opacity="1" stroke-miterlimit="10" d="M 219.847656 243.019531 L 182.234375 210.792969 "/>
<path fill="none" stroke-width="1" stroke-linecap="butt" stroke-linejoin="miter" stroke="rgb(26.666667%, 26.666667%, 26.666667%)" stroke-opacity="1" stroke-miterlimit="10" d="M 219.847656 243.019531 L 214.570312 345.402344 "/>
<path fill="none" stroke-width="1" stroke-linecap="butt" stroke-linejoin="miter" stroke="rgb(26.666667%, 26.666667%, 26.666667%)" stroke-opacity="1" stroke-miterlimit="10" d="M 219.847656 243.019531 L 97.953125 278.347656 "/>
<path fill="none" stroke-width="1" stroke-linecap="butt" stroke-linejoin="miter" stroke="rgb(26.666667%, 26.666667%, 26.666667%)" stroke-opacity="1" stroke-miterlimit="10" d="M 219.847656 243.019531 L 190.996094 162.09375 "/>
<path fill="none" stroke-width="1" stroke-linecap="butt" stroke-linejoin="miter" stroke="rgb(26.666667%, 26.666667%, 26.666667%)" stroke-opacity="1" stroke-miterlimit="10" d="M 219.847656 243.019531 L 132.957031 247.761719 "/>
<path fill="none" stroke-width="1" stroke-linecap="butt" stroke-linejoin="miter" stroke="rgb(26.666667%, 26.666667%, 26.666667%)" stroke-opacity="1" stroke-miterlimit="10" d="M 119.890625 345.65625 L 41.160156 337.425781 "/>
<path fill-rule="nonzero" fill="rgb(100%, 0%, 0%)" fill-opacity="1" stroke-width="1" stroke-linecap="butt" stroke-linejoin="miter" stroke="rgb(0%, 0%, 0%)" stroke-opacity="1" stroke-miterlimit="10" d="M 229.847656 243.019531 C 229.847656 248.542969 225.371094 253.019531 219.847656 253.019531 C 214.324219 253.019531 209.847656 248.542969 209.847656 243.019531 C 209.847656 237.496094 214.324219 233.019531 219.847656 233.019531 C 225.371094 233.019531 229.847656 237.496094 229.847656 243.019531 "/>
<path fill-rule="nonzero" fill="rgb(100%, 0%, 0%)" fill-opacity="1" stroke-width="1" stroke-linecap="butt" stroke-linejoin="miter" stroke="rgb(0%, 0%, 0%)" stroke-opacity="1" stroke-miterlimit="10" d="M 142.957031 247.761719 C 142.957031 253.285156 138.476562 257.761719 132.957031 257.761719 C 127.433594 257.761719 122.957031 253.285156 122.957031 247.761719 C 122.957031 242.238281 127.433594 237.761719 132.957031 237.761719 C 138.476562 237.761719 142.957031 242.238281 142.957031 247.761719 "/>
<path fill-rule="nonzero" fill="rgb(100%, 0%, 0%)" fill-opacity="1" stroke-width="1" stroke-linecap="butt" stroke-linejoin="miter" stroke="rgb(0%, 0%, 0%)" stroke-opacity="1" stroke-miterlimit="10" d="M 129.890625 345.65625 C 129.890625 351.179688 125.410156 355.65625 119.890625 355.65625 C 114.367188 355.65625 109.890625 351.179688 109.890625 345.65625 C 109.890625 340.132812 114.367188 335.65625 119.890625 335.65625 C 125.410156 335.65625 129.890625 340.132812 129.890625 345.65625 "/>
<path fill-rule="nonzero" fill="rgb(100%, 0%, 0%)" fill-opacity="1" stroke-width="1" stroke-linecap="butt" stroke-linejoin="miter" stroke="rgb(0%, 0%, 0%)" stroke-opacity="1" stroke-miterlimit="10" d="M 200.996094 162.09375 C 200.996094 167.613281 196.519531 172.09375 190.996094 172.09375 C 185.472656 172.09375 180.996094 167.613281 180.996094 162.09375 C 180.996094 156.570312 185.472656 152.09375 190.996094 152.09375 C 196.519531 152.09375 200.996094 156.570312 200.996094 162.09375 "/>
<path fill-rule="nonzero" fill="rgb(100%, 0%, 0%)" fill-opacity="1" stroke-width="1" stroke-linecap="butt" stroke-linejoin="miter" stroke="rgb(0%, 0%, 0%)" stroke-opacity="1" stroke-miterlimit="10" d="M 107.953125 278.347656 C 107.953125 283.871094 103.476562 288.347656 97.953125 288.347656 C 92.433594 288.347656 87.953125 283.871094 87.953125 278.347656 C 87.953125 272.824219 92.433594 268.347656 97.953125 268.347656 C 103.476562 268.347656 107.953125 272.824219 107.953125 278.347656 "/>
<path fill-rule="nonzero" fill="rgb(100%, 0%, 0%)" fill-opacity="1" stroke-width="1" stroke-linecap="butt" stroke-linejoin="miter" stroke="rgb(0%, 0%, 0%)" stroke-opacity="1" stroke-miterlimit="10" d="M 224.570312 345.402344 C 224.570312 350.925781 220.09375 355.402344 214.570312 355.402344 C 209.046875 355.402344 204.570312 350.925781 204.570312 345.402344 C 204.570312 339.878906 209.046875 335.402344 214.570312 335.402344 C 220.09375 335.402344 224.570312 339.878906 224.570312 345.402344 "/>
<path fill-rule="nonzero" fill="rgb(100%, 0%, 0%)" fill-opacity="1" stroke-width="1" stroke-linecap="butt" stroke-linejoin="miter" stroke="rgb(0%, 0%, 0%)" stroke-opacity="1" stroke-miterlimit="10" d="M 234.898438 94.753906 C 234.898438 100.277344 230.421875 104.753906 224.898438 104.753906 C 219.375 104.753906 214.898438 100.277344 214.898438 94.753906 C 214.898438 89.230469 219.375 84.753906 224.898438 84.753906 C 230.421875 84.753906 234.898438 89.230469 234.898438 94.753906 "/>
<path fill-rule="nonzero" fill="rgb(100%, 0%, 0%)" fill-opacity="1" stroke-width="1" stroke-linecap="butt" stroke-linejoin="miter" stroke="rgb(0%, 0%, 0%)" stroke-opacity="1" stroke-miterlimit="10" d="M 324.25 491.898438 C 324.25 497.421875 319.773438 501.898438 314.25 501.898438 C 308.726562 501.898438 304.25 497.421875 304.25 491.898438 C 304.25 486.375 308.726562 481.898438 314.25 481.898438 C 319.773438 481.898438 324.25 486.375 324.25 491.898438 "/>
<path fill-rule="nonzero" fill="rgb(100%, 0%, 0%)" fill-opacity="1" stroke-width="1" stroke-linecap="butt" stroke-linejoin="miter" stroke="rgb(0%, 0%, 0%)" stroke-opacity="1" stroke-miterlimit="10" d="M 131.148438 436.039062 C 131.148438 441.5625 126.671875 446.039062 121.148438 446.039062 C 115.625 446.039062 111.148438 441.5625 111.148438 436.039062 C 111.148438 430.515625 115.625 426.039062 121.148438 426.039062 C 126.671875 426.039062 131.148438 430.515625 131.148438 436.039062 "/>
<path fill-rule="nonzero" fill="rgb(100%, 0%, 0%)" fill-opacity="1" stroke-width="1" stroke-linecap="butt" stroke-linejoin="miter" stroke="rgb(0%, 0%, 0%)" stroke-opacity="1" stroke-miterlimit="10" d="M 105.125 192.117188 C 105.125 197.640625 100.648438 202.117188 95.125 202.117188 C 89.601562 202.117188 85.125 197.640625 85.125 192.117188 C 85.125 186.59375 89.601562 182.117188 95.125 182.117188 C 100.648438 182.117188 105.125 186.59375 105.125 192.117188 "/>
<path fill-rule="nonzero" fill="rgb(100%, 0%, 0%)" fill-opacity="1" stroke-width="1" stroke-linecap="butt" stroke-linejoin="miter" stroke="rgb(0%, 0%, 0%)" stroke-opacity="1" stroke-miterlimit="10" d="M 192.234375 210.792969 C 192.234375 216.3125 187.757812 220.792969 182.234375 220.792969 C 176.714844 220.792969 172.234375 216.3125 172.234375 210.792969 C 172.234375 205.269531 176.714844 200.792969 182.234375 200.792969 C 187.757812 200.792969 192.234375 205.269531 192.234375 210.792969 "/>
<path fill-rule="nonzero" fill="rgb(100%, 0%, 0%)" fill-opacity="1" stroke-width="1" stroke-linecap="butt" stroke-linejoin="miter" stroke="rgb(0%, 0%, 0%)" stroke-opacity="1" stroke-miterlimit="10" d="M 51.160156 337.425781 C 51.160156 342.949219 46.683594 347.425781 41.160156 347.425781 C 35.636719 347.425781 31.160156 342.949219 31.160156 337.425781 C 31.160156 331.902344 35.636719 327.425781 41.160156 327.425781 C 46.683594 327.425781 51.160156 331.902344 51.160156 337.425781 "/>
<path fill-rule="nonzero" fill="rgb(100%, 0%, 0%)" fill-opacity="1" stroke-width="1" stroke-linecap="butt" stroke-linejoin="miter" stroke="rgb(0%, 0%, 0%)" stroke-opacity="1" stroke-miterlimit="10" d="M 436.542969 440.65625 C 436.542969 446.179688 432.066406 450.65625 426.542969 450.65625 C 421.019531 450.65625 416.542969 446.179688 416.542969 440.65625 C 416.542969 435.132812 421.019531 430.65625 426.542969 430.65625 C 432.066406 430.65625 436.542969 435.132812 436.542969 440.65625 "/>
<path fill-rule="nonzero" fill="rgb(100%, 0%, 0%)" fill-opacity="1" stroke-width="1" stroke-linecap="butt" stroke-linejoin="miter" stroke="rgb(0%, 0%, 0%)" stroke-opacity="1" stroke-miterlimit="10" d="M 315.128906 186.835938 C 315.128906 192.355469 310.652344 196.835938 305.128906 196.835938 C 299.605469 196.835938 295.128906 192.355469 295.128906 186.835938 C 295.128906 181.3125 299.605469 176.835938 305.128906 176.835938 C 310.652344 176.835938 315.128906 181.3125 315.128906 186.835938 "/>
<path fill-rule="nonzero" fill="rgb(100%, 0%, 0%)" fill-opacity="1" stroke-width="1" stroke-linecap="butt" stroke-linejoin="miter" stroke="rgb(0%, 0%, 0%)" stroke-opacity="1" stroke-miterlimit="10" d="M 473.601562 480.25 C 473.601562 485.773438 469.125 490.25 463.601562 490.25 C 458.082031 490.25 453.601562 485.773438 453.601562 480.25 C 453.601562 474.726562 458.082031 470.25 463.601562 470.25 C 469.125 470.25 473.601562 474.726562 473.601562 480.25 "/>
<path fill-rule="nonzero" fill="rgb(100%, 0%, 0%)" fill-opacity="1" stroke-width="1" stroke-linecap="butt" stroke-linejoin="miter" stroke="rgb(0%, 0%, 0%)" stroke-opacity="1" stroke-miterlimit="10" d="M 562.808594 443.390625 C 562.808594 448.914062 558.328125 453.390625 552.808594 453.390625 C 547.285156 453.390625 542.808594 448.914062 542.808594 443.390625 C 542.808594 437.867188 547.285156 433.390625 552.808594 433.390625 C 558.328125 433.390625 562.808594 437.867188 562.808594 443.390625 "/>
<path fill-rule="nonzero" fill="rgb(100%, 0%, 0%)" fill-opacity="1" stroke-width="1" stroke-linecap="butt" stroke-linejoin="miter" stroke="rgb(0%, 0%, 0%)" stroke-opacity="1" stroke-miterlimit="10" d="M 179.324219 313.207031 C 179.324219 318.730469 174.84375 323.207031 169.324219 323.207031 C 163.800781 323.207031 159.324219 318.730469 159.324219 313.207031 C 159.324219 307.683594 163.800781 303.207031 169.324219 303.207031 C 174.84375 303.207031 179.324219 307.683594 179.324219 313.207031 "/>
<path fill-rule="nonzero" fill="rgb(100%, 0%, 0%)" fill-opacity="1" stroke-width="1" stroke-linecap="butt" stroke-linejoin="miter" stroke="rgb(0%, 0%, 0%)" stroke-opacity="1" stroke-miterlimit="10" d="M 551.898438 163.917969 C 551.898438 169.441406 547.421875 173.917969 541.898438 173.917969 C 536.375 173.917969 531.898438 169.441406 531.898438 163.917969 C 531.898438 158.394531 536.375 153.917969 541.898438 153.917969 C 547.421875 153.917969 551.898438 158.394531 551.898438 163.917969 "/>
<path fill-rule="nonzero" fill="rgb(100%, 0%, 0%)" fill-opacity="1" stroke-width="1" stroke-linecap="butt" stroke-linejoin="miter" stroke="rgb(0%, 0%, 0%)" stroke-opacity="1" stroke-miterlimit="10" d="M 250.683594 284.785156 C 250.683594 290.308594 246.207031 294.785156 240.683594 294.785156 C 235.160156 294.785156 230.683594 290.308594 230.683594 284.785156 C 230.683594 279.261719 235.160156 274.785156 240.683594 274.785156 C 246.207031 274.785156 250.683594 279.261719 250.683594 284.785156 "/>
<path fill-rule="nonzero" fill="rgb(100%, 0%, 0%)" fill-opacity="1" stroke-width="1" stroke-linecap="butt" stroke-linejoin="miter" stroke="rgb(0%, 0%, 0%)" stroke-opacity="1" stroke-miterlimit="10" d="M 144.890625 500.269531 C 144.890625 505.792969 140.414062 510.269531 134.890625 510.269531 C 129.367188 510.269531 124.890625 505.792969 124.890625 500.269531 C 124.890625 494.75 129.367188 490.269531 134.890625 490.269531 C 140.414062 490.269531 144.890625 494.75 144.890625 500.269531 "/>
<path fill-rule="nonzero" fill="rgb(100%, 0%, 0%)" fill-opacity="1" stroke-width="1" stroke-linecap="butt" stroke-linejoin="miter" stroke="rgb(0%, 0%, 0%)" stroke-opacity="1" stroke-miterlimit="10" d="M 39.332031 221.644531 C 39.332031 227.167969 34.855469 231.644531 29.332031 231.644531 C 23.808594 231.644531 19.332031 227.167969 19.332031 221.644531 C 19.332031 216.121094 23.808594 211.644531 29.332031 211.644531 C 34.855469 211.644531 39.332031 216.121094 39.332031 221.644531 "/>
<path fill-rule="nonzero" fill="rgb(100%, 0%, 0%)" fill-opacity="1" stroke-width="1" stroke-linecap="butt" stroke-linejoin="miter" stroke="rgb(0%, 0%, 0%)" stroke-opacity="1" stroke-miterlimit="10" d="M 485.445312 340.875 C 485.445312 346.398438 480.96875 350.875 475.445312 350.875 C 469.921875 350.875 465.445312 346.398438 465.445312 340.875 C 465.445312 335.351562 469.921875 330.875 475.445312 330.875 C 480.96875 330.875 485.445312 335.351562 485.445312 340.875 "/>
<path fill-rule="nonzero" fill="rgb(100%, 0%, 0%)" fill-opacity="1" stroke-width="1" stroke-linecap="butt" stroke-linejoin="miter" stroke="rgb(0%, 0%, 0%)" stroke-opacity="1" stroke-miterlimit="10" d="M 426.539062 558.152344 C 426.539062 563.675781 422.0625 568.152344 416.539062 568.152344 C 411.015625 568.152344 406.539062 563.675781 406.539062 558.152344 C 406.539062 552.628906 411.015625 548.152344 416.539062 548.152344 C 422.0625 548.152344 426.539062 552.628906 426.539062 558.152344 "/>
<path fill-rule="nonzero" fill="rgb(100%, 0%, 0%)" fill-opacity="1" stroke-width="1" stroke-linecap="butt" stroke-linejoin="miter" stroke="rgb(0%, 0%, 0%)" stroke-opacity="1" stroke-miterlimit="10" d="M 590 262.003906 C 590 267.527344 585.523438 272.003906 580 272.003906 C 574.476562 272.003906 570 267.527344 570 262.003906 C 570 256.480469 574.476562 252.003906 580 252.003906 C 585.523438 252.003906 590 256.480469 590 262.003906 "/>
<path fill-rule="nonzero" fill="rgb(100%, 0%, 0%)" fill-opacity="1" stroke-width="1" stroke-linecap="butt" stroke-linejoin="miter" stroke="rgb(0%, 0%, 0%)" stroke-opacity="1" stroke-miterlimit="10" d="M 335.964844 258.277344 C 335.964844 263.800781 331.488281 268.277344 325.964844 268.277344 C 320.441406 268.277344 315.964844 263.800781 315.964844 258.277344 C 315.964844 252.753906 320.441406 248.277344 325.964844 248.277344 C 331.488281 248.277344 335.964844 252.753906 335.964844 258.277344 "/>
<path fill-rule="nonzero" fill="rgb(100%, 0%, 0%)" fill-opacity="1" stroke-width="1" stroke-linecap="butt" stroke-linejoin="miter" stroke="rgb(0%, 0%, 0%)" stroke-opacity="1" stroke-miterlimit="10" d="M 234.144531 20 C 234.144531 25.523438 229.667969 30 224.144531 30 C 218.621094 30 214.144531 25.523438 214.144531 20 C 214.144531 14.476562 218.621094 10 224.144531 10 C 229.667969 10 234.144531 14.476562 234.144531 20 "/>
<path fill-rule="nonzero" fill="rgb(100%, 0%, 0%)" fill-opacity="1" stroke-width="1" stroke-linecap="butt" stroke-linejoin="miter" stroke="rgb(0%, 0%, 0%)" stroke-opacity="1" stroke-miterlimit="10" d="M 320.804688 580 C 320.804688 585.523438 316.324219 590 310.804688 590 C 305.28125 590 300.804688 585.523438 300.804688 580 C 300.804688 574.476562 305.28125 570 310.804688 570 C 316.324219 570 320.804688 574.476562 320.804688 580 "/>
<path fill-rule="nonzero" fill="rgb(100%, 0%, 0%)" fill-opacity="1" stroke-width="1" stroke-linecap="butt" stroke-linejoin="miter" stroke="rgb(0%, 0%, 0%)" stroke-opacity="1" stroke-miterlimit="10" d="M 491.492188 232.433594 C 491.492188 237.957031 487.011719 242.433594 481.492188 242.433594 C 475.96875 242.433594 471.492188 237.957031 471.492188 232.433594 C 471.492188 226.910156 475.96875 222.433594 481.492188 222.433594 C 487.011719 222.433594 491.492188 226.910156 491.492188 232.433594 "/>
<path fill-rule="nonzero" fill="rgb(100%, 0%, 0%)" fill-opacity="1" stroke-width="1" stroke-linecap="butt" stroke-linejoin="miter" stroke="rgb(0%, 0%, 0%)" stroke-opacity="1" stroke-miterlimit="10" d="M 218.953125 571.472656 C 218.953125 576.992188 214.476562 581.472656 208.953125 581.472656 C 203.429688 581.472656 198.953125 576.992188 198.953125 571.472656 C 198.953125 565.949219 203.429688 561.472656 208.953125 561.472656 C 214.476562 561.472656 218.953125 565.949219 218.953125 571.472656 "/>
<path fill-rule="nonzero" fill="rgb(100%, 0%, 0%)" fill-opacity="1" stroke-width="1" stroke-linecap="butt" stroke-linejoin="miter" stroke="rgb(0%, 0%, 0%)" stroke-opacity="1" stroke-miterlimit="10" d="M 588.953125 353.402344 C 588.953125 358.925781 584.476562 363.402344 578.953125 363.402344 C 573.429688 363.402344 568.953125 358.925781 568.953125 353.402344 C 568.953125 347.882812 573.429688 343.402344 578.953125 343.402344 C 584.476562 343.402344 588.953125 347.882812 588.953125 353.402344 "/>
<path fill-rule="nonzero" fill="rgb(100%, 0%, 0%)" fill-opacity="1" stroke-width="1" stroke-linecap="butt" stroke-linejoin="miter" stroke="rgb(0%, 0%, 0%)" stroke-opacity="1" stroke-miterlimit="10" d="M 473.515625 111.445312 C 473.515625 116.96875 469.039062 121.445312 463.515625 121.445312 C 457.996094 121.445312 453.515625 116.96875 453.515625 111.445312 C 453.515625 105.921875 457.996094 101.445312 463.515625 101.445312 C 469.039062 101.445312 473.515625 105.921875 473.515625 111.445312 "/>
<path fill-rule="nonzero" fill="rgb(100%, 0%, 0%)" fill-opacity="1" stroke-width="1" stroke-linecap="butt" stroke-linejoin="miter" stroke="rgb(0%, 0%, 0%)" stroke-opacity="1" stroke-miterlimit="10" d="M 396.421875 58.578125 C 396.421875 64.097656 391.941406 68.578125 386.421875 68.578125 C 380.898438 68.578125 376.421875 64.097656 376.421875 58.578125 C 376.421875 53.054688 380.898438 48.578125 386.421875 48.578125 C 391.941406 48.578125 396.421875 53.054688 396.421875 58.578125 "/>
<path fill-rule="nonzero" fill="rgb(100%, 0%, 0%)" fill-opacity="1" stroke-width="1" stroke-linecap="butt" stroke-linejoin="miter" stroke="rgb(0%, 0%, 0%)" stroke-opacity="1" stroke-miterlimit="10" d="M 30 483.292969 C 30 488.816406 25.523438 493.292969 20 493.292969 C 14.476562 493.292969 10 488.816406 10 483.292969 C 10 477.769531 14.476562 473.292969 20 473.292969 C 25.523438 473.292969 30 477.769531 30 483.292969 "/>
</svg>
